%TF.GenerationSoftware,KiCad,Pcbnew,9.0.1*%
%TF.CreationDate,2025-06-02T10:32:27+09:00*%
%TF.ProjectId,Project 1 LED Torch,50726f6a-6563-4742-9031-204c45442054,1*%
%TF.SameCoordinates,Original*%
%TF.FileFunction,Legend,Top*%
%TF.FilePolarity,Positive*%
%FSLAX46Y46*%
G04 Gerber Fmt 4.6, Leading zero omitted, Abs format (unit mm)*
G04 Created by KiCad (PCBNEW 9.0.1) date 2025-06-02 10:32:27*
%MOMM*%
%LPD*%
G01*
G04 APERTURE LIST*
%ADD10C,0.100000*%
%ADD11C,0.150000*%
%ADD12C,0.120000*%
%TA.AperFunction,Profile*%
%ADD13C,0.050000*%
%TD*%
G04 APERTURE END LIST*
D10*
X89803884Y-99991466D02*
X90565789Y-99991466D01*
X89903884Y-108391466D02*
X90665789Y-108391466D01*
X90284836Y-108772419D02*
X90284836Y-108010514D01*
D11*
X91961905Y-99379819D02*
X91961905Y-98379819D01*
X91961905Y-98379819D02*
X92200000Y-98379819D01*
X92200000Y-98379819D02*
X92342857Y-98427438D01*
X92342857Y-98427438D02*
X92438095Y-98522676D01*
X92438095Y-98522676D02*
X92485714Y-98617914D01*
X92485714Y-98617914D02*
X92533333Y-98808390D01*
X92533333Y-98808390D02*
X92533333Y-98951247D01*
X92533333Y-98951247D02*
X92485714Y-99141723D01*
X92485714Y-99141723D02*
X92438095Y-99236961D01*
X92438095Y-99236961D02*
X92342857Y-99332200D01*
X92342857Y-99332200D02*
X92200000Y-99379819D01*
X92200000Y-99379819D02*
X91961905Y-99379819D01*
X93485714Y-99379819D02*
X92914286Y-99379819D01*
X93200000Y-99379819D02*
X93200000Y-98379819D01*
X93200000Y-98379819D02*
X93104762Y-98522676D01*
X93104762Y-98522676D02*
X93009524Y-98617914D01*
X93009524Y-98617914D02*
X92914286Y-98665533D01*
X86744819Y-104137857D02*
X86744819Y-104614047D01*
X86744819Y-104614047D02*
X85744819Y-104614047D01*
X86221009Y-103804523D02*
X86221009Y-103471190D01*
X86744819Y-103328333D02*
X86744819Y-103804523D01*
X86744819Y-103804523D02*
X85744819Y-103804523D01*
X85744819Y-103804523D02*
X85744819Y-103328333D01*
X86744819Y-102899761D02*
X85744819Y-102899761D01*
X85744819Y-102899761D02*
X85744819Y-102661666D01*
X85744819Y-102661666D02*
X85792438Y-102518809D01*
X85792438Y-102518809D02*
X85887676Y-102423571D01*
X85887676Y-102423571D02*
X85982914Y-102375952D01*
X85982914Y-102375952D02*
X86173390Y-102328333D01*
X86173390Y-102328333D02*
X86316247Y-102328333D01*
X86316247Y-102328333D02*
X86506723Y-102375952D01*
X86506723Y-102375952D02*
X86601961Y-102423571D01*
X86601961Y-102423571D02*
X86697200Y-102518809D01*
X86697200Y-102518809D02*
X86744819Y-102661666D01*
X86744819Y-102661666D02*
X86744819Y-102899761D01*
X119433333Y-109964819D02*
X119100000Y-109488628D01*
X118861905Y-109964819D02*
X118861905Y-108964819D01*
X118861905Y-108964819D02*
X119242857Y-108964819D01*
X119242857Y-108964819D02*
X119338095Y-109012438D01*
X119338095Y-109012438D02*
X119385714Y-109060057D01*
X119385714Y-109060057D02*
X119433333Y-109155295D01*
X119433333Y-109155295D02*
X119433333Y-109298152D01*
X119433333Y-109298152D02*
X119385714Y-109393390D01*
X119385714Y-109393390D02*
X119338095Y-109441009D01*
X119338095Y-109441009D02*
X119242857Y-109488628D01*
X119242857Y-109488628D02*
X118861905Y-109488628D01*
X120385714Y-109964819D02*
X119814286Y-109964819D01*
X120100000Y-109964819D02*
X120100000Y-108964819D01*
X120100000Y-108964819D02*
X120004762Y-109107676D01*
X120004762Y-109107676D02*
X119909524Y-109202914D01*
X119909524Y-109202914D02*
X119814286Y-109250533D01*
X130066667Y-99607200D02*
X130209524Y-99654819D01*
X130209524Y-99654819D02*
X130447619Y-99654819D01*
X130447619Y-99654819D02*
X130542857Y-99607200D01*
X130542857Y-99607200D02*
X130590476Y-99559580D01*
X130590476Y-99559580D02*
X130638095Y-99464342D01*
X130638095Y-99464342D02*
X130638095Y-99369104D01*
X130638095Y-99369104D02*
X130590476Y-99273866D01*
X130590476Y-99273866D02*
X130542857Y-99226247D01*
X130542857Y-99226247D02*
X130447619Y-99178628D01*
X130447619Y-99178628D02*
X130257143Y-99131009D01*
X130257143Y-99131009D02*
X130161905Y-99083390D01*
X130161905Y-99083390D02*
X130114286Y-99035771D01*
X130114286Y-99035771D02*
X130066667Y-98940533D01*
X130066667Y-98940533D02*
X130066667Y-98845295D01*
X130066667Y-98845295D02*
X130114286Y-98750057D01*
X130114286Y-98750057D02*
X130161905Y-98702438D01*
X130161905Y-98702438D02*
X130257143Y-98654819D01*
X130257143Y-98654819D02*
X130495238Y-98654819D01*
X130495238Y-98654819D02*
X130638095Y-98702438D01*
X130971429Y-98654819D02*
X131209524Y-99654819D01*
X131209524Y-99654819D02*
X131400000Y-98940533D01*
X131400000Y-98940533D02*
X131590476Y-99654819D01*
X131590476Y-99654819D02*
X131828572Y-98654819D01*
X132733333Y-99654819D02*
X132161905Y-99654819D01*
X132447619Y-99654819D02*
X132447619Y-98654819D01*
X132447619Y-98654819D02*
X132352381Y-98797676D01*
X132352381Y-98797676D02*
X132257143Y-98892914D01*
X132257143Y-98892914D02*
X132161905Y-98940533D01*
X157714285Y-95811009D02*
X157857142Y-95858628D01*
X157857142Y-95858628D02*
X157904761Y-95906247D01*
X157904761Y-95906247D02*
X157952380Y-96001485D01*
X157952380Y-96001485D02*
X157952380Y-96144342D01*
X157952380Y-96144342D02*
X157904761Y-96239580D01*
X157904761Y-96239580D02*
X157857142Y-96287200D01*
X157857142Y-96287200D02*
X157761904Y-96334819D01*
X157761904Y-96334819D02*
X157380952Y-96334819D01*
X157380952Y-96334819D02*
X157380952Y-95334819D01*
X157380952Y-95334819D02*
X157714285Y-95334819D01*
X157714285Y-95334819D02*
X157809523Y-95382438D01*
X157809523Y-95382438D02*
X157857142Y-95430057D01*
X157857142Y-95430057D02*
X157904761Y-95525295D01*
X157904761Y-95525295D02*
X157904761Y-95620533D01*
X157904761Y-95620533D02*
X157857142Y-95715771D01*
X157857142Y-95715771D02*
X157809523Y-95763390D01*
X157809523Y-95763390D02*
X157714285Y-95811009D01*
X157714285Y-95811009D02*
X157380952Y-95811009D01*
X158238095Y-95334819D02*
X158809523Y-95334819D01*
X158523809Y-96334819D02*
X158523809Y-95334819D01*
X159666666Y-96334819D02*
X159095238Y-96334819D01*
X159380952Y-96334819D02*
X159380952Y-95334819D01*
X159380952Y-95334819D02*
X159285714Y-95477676D01*
X159285714Y-95477676D02*
X159190476Y-95572914D01*
X159190476Y-95572914D02*
X159095238Y-95620533D01*
X156407739Y-115658549D02*
X156360120Y-115706169D01*
X156360120Y-115706169D02*
X156217263Y-115753788D01*
X156217263Y-115753788D02*
X156122025Y-115753788D01*
X156122025Y-115753788D02*
X155979168Y-115706169D01*
X155979168Y-115706169D02*
X155883930Y-115610930D01*
X155883930Y-115610930D02*
X155836311Y-115515692D01*
X155836311Y-115515692D02*
X155788692Y-115325216D01*
X155788692Y-115325216D02*
X155788692Y-115182359D01*
X155788692Y-115182359D02*
X155836311Y-114991883D01*
X155836311Y-114991883D02*
X155883930Y-114896645D01*
X155883930Y-114896645D02*
X155979168Y-114801407D01*
X155979168Y-114801407D02*
X156122025Y-114753788D01*
X156122025Y-114753788D02*
X156217263Y-114753788D01*
X156217263Y-114753788D02*
X156360120Y-114801407D01*
X156360120Y-114801407D02*
X156407739Y-114849026D01*
X157407739Y-115753788D02*
X157074406Y-115277597D01*
X156836311Y-115753788D02*
X156836311Y-114753788D01*
X156836311Y-114753788D02*
X157217263Y-114753788D01*
X157217263Y-114753788D02*
X157312501Y-114801407D01*
X157312501Y-114801407D02*
X157360120Y-114849026D01*
X157360120Y-114849026D02*
X157407739Y-114944264D01*
X157407739Y-114944264D02*
X157407739Y-115087121D01*
X157407739Y-115087121D02*
X157360120Y-115182359D01*
X157360120Y-115182359D02*
X157312501Y-115229978D01*
X157312501Y-115229978D02*
X157217263Y-115277597D01*
X157217263Y-115277597D02*
X156836311Y-115277597D01*
X157788692Y-114849026D02*
X157836311Y-114801407D01*
X157836311Y-114801407D02*
X157931549Y-114753788D01*
X157931549Y-114753788D02*
X158169644Y-114753788D01*
X158169644Y-114753788D02*
X158264882Y-114801407D01*
X158264882Y-114801407D02*
X158312501Y-114849026D01*
X158312501Y-114849026D02*
X158360120Y-114944264D01*
X158360120Y-114944264D02*
X158360120Y-115039502D01*
X158360120Y-115039502D02*
X158312501Y-115182359D01*
X158312501Y-115182359D02*
X157741073Y-115753788D01*
X157741073Y-115753788D02*
X158360120Y-115753788D01*
X158979168Y-114753788D02*
X159074406Y-114753788D01*
X159074406Y-114753788D02*
X159169644Y-114801407D01*
X159169644Y-114801407D02*
X159217263Y-114849026D01*
X159217263Y-114849026D02*
X159264882Y-114944264D01*
X159264882Y-114944264D02*
X159312501Y-115134740D01*
X159312501Y-115134740D02*
X159312501Y-115372835D01*
X159312501Y-115372835D02*
X159264882Y-115563311D01*
X159264882Y-115563311D02*
X159217263Y-115658549D01*
X159217263Y-115658549D02*
X159169644Y-115706169D01*
X159169644Y-115706169D02*
X159074406Y-115753788D01*
X159074406Y-115753788D02*
X158979168Y-115753788D01*
X158979168Y-115753788D02*
X158883930Y-115706169D01*
X158883930Y-115706169D02*
X158836311Y-115658549D01*
X158836311Y-115658549D02*
X158788692Y-115563311D01*
X158788692Y-115563311D02*
X158741073Y-115372835D01*
X158741073Y-115372835D02*
X158741073Y-115134740D01*
X158741073Y-115134740D02*
X158788692Y-114944264D01*
X158788692Y-114944264D02*
X158836311Y-114849026D01*
X158836311Y-114849026D02*
X158883930Y-114801407D01*
X158883930Y-114801407D02*
X158979168Y-114753788D01*
X159645835Y-114753788D02*
X160264882Y-114753788D01*
X160264882Y-114753788D02*
X159931549Y-115134740D01*
X159931549Y-115134740D02*
X160074406Y-115134740D01*
X160074406Y-115134740D02*
X160169644Y-115182359D01*
X160169644Y-115182359D02*
X160217263Y-115229978D01*
X160217263Y-115229978D02*
X160264882Y-115325216D01*
X160264882Y-115325216D02*
X160264882Y-115563311D01*
X160264882Y-115563311D02*
X160217263Y-115658549D01*
X160217263Y-115658549D02*
X160169644Y-115706169D01*
X160169644Y-115706169D02*
X160074406Y-115753788D01*
X160074406Y-115753788D02*
X159788692Y-115753788D01*
X159788692Y-115753788D02*
X159693454Y-115706169D01*
X159693454Y-115706169D02*
X159645835Y-115658549D01*
X160645835Y-114849026D02*
X160693454Y-114801407D01*
X160693454Y-114801407D02*
X160788692Y-114753788D01*
X160788692Y-114753788D02*
X161026787Y-114753788D01*
X161026787Y-114753788D02*
X161122025Y-114801407D01*
X161122025Y-114801407D02*
X161169644Y-114849026D01*
X161169644Y-114849026D02*
X161217263Y-114944264D01*
X161217263Y-114944264D02*
X161217263Y-115039502D01*
X161217263Y-115039502D02*
X161169644Y-115182359D01*
X161169644Y-115182359D02*
X160598216Y-115753788D01*
X160598216Y-115753788D02*
X161217263Y-115753788D01*
D12*
%TO.C,D1*%
X92750000Y-103495000D02*
G75*
G02*
X87750000Y-103495000I-2500000J0D01*
G01*
X87750000Y-103495000D02*
G75*
G02*
X92750000Y-103495000I2500000J0D01*
G01*
X91794830Y-100935000D02*
G75*
G02*
X90250048Y-106485000I-1544830J-2560000D01*
G01*
X90249952Y-106485000D02*
G75*
G02*
X88705170Y-100935000I48J2990000D01*
G01*
X91795000Y-100935000D02*
X88705000Y-100935000D01*
%TO.C,R1*%
X119500000Y-106370000D02*
X119500000Y-105420000D01*
X118580000Y-105420000D02*
X120420000Y-105420000D01*
X120420000Y-105420000D02*
X120420000Y-101580000D01*
X118580000Y-101580000D02*
X118580000Y-105420000D01*
X120420000Y-101580000D02*
X118580000Y-101580000D01*
X119500000Y-100630000D02*
X119500000Y-101580000D01*
%TO.C,SW1*%
X132789214Y-103500000D02*
G75*
G02*
X129960786Y-103500000I-1414214J0D01*
G01*
X129960786Y-103500000D02*
G75*
G02*
X132789214Y-103500000I1414214J0D01*
G01*
X134495000Y-102450000D02*
X134495000Y-104650000D01*
X129325000Y-100380000D02*
X133725000Y-100380000D01*
X128725000Y-106620000D02*
X133925000Y-106620000D01*
X128255000Y-104650000D02*
X128255000Y-102450000D01*
%TO.C,BT1*%
X147808000Y-99890000D02*
G75*
G02*
X150654629Y-95388211I10692020J-3610012D01*
G01*
X150654629Y-111611789D02*
G75*
G02*
X147808000Y-107110000I7845371J8111789D01*
G01*
X166345371Y-95388211D02*
G75*
G02*
X169192000Y-99890000I-7845366J-8111785D01*
G01*
X169192000Y-107110000D02*
G75*
G02*
X166345372Y-111611790I-10692020J3610010D01*
G01*
X144190000Y-99890000D02*
X147808000Y-99890000D01*
X144190000Y-101600000D02*
X144190000Y-99890000D01*
X144190000Y-105400000D02*
X144190000Y-107110000D01*
X147808000Y-107110000D02*
X144190000Y-107110000D01*
X150652700Y-95390000D02*
X154640000Y-95390000D01*
X156840000Y-97590000D02*
X154640000Y-95390000D01*
X156840000Y-97590000D02*
X160160000Y-97590000D01*
X160160000Y-97590000D02*
X162360000Y-95390000D01*
X162360000Y-95390000D02*
X166347300Y-95390000D01*
X166347300Y-111610000D02*
X150652700Y-111610000D01*
X169192000Y-99890000D02*
X172810000Y-99890000D01*
X172810000Y-101600000D02*
X172810000Y-99890000D01*
X172810000Y-105400000D02*
X172810000Y-107110000D01*
X172810000Y-107110000D02*
X169192000Y-107110000D01*
%TD*%
D13*
X90275000Y-97000000D02*
X145007191Y-97003463D01*
X90250000Y-111550043D02*
G75*
G02*
X90275000Y-97000000I0J7275043D01*
G01*
X175500000Y-98000000D02*
X174500000Y-98000000D01*
X175500000Y-108500000D02*
X175500000Y-98000000D01*
X174500000Y-108500000D02*
X175500000Y-108500000D01*
X172428779Y-98000000D02*
X174500000Y-98000000D01*
X172501874Y-108500000D02*
X174500000Y-108500000D01*
X172501874Y-108500000D02*
G75*
G02*
X146000001Y-111550000I-14001874J5000000D01*
G01*
X145007191Y-97003462D02*
G75*
G02*
X172428780Y-98000000I13492809J-6496538D01*
G01*
X90250000Y-111550000D02*
X146000000Y-111550000D01*
X108662278Y-103500000D02*
G75*
G02*
X102337722Y-103500000I-3162278J0D01*
G01*
X102337722Y-103500000D02*
G75*
G02*
X108662278Y-103500000I3162278J0D01*
G01*
M02*
