%TF.GenerationSoftware,KiCad,Pcbnew,9.0.1*%
%TF.CreationDate,2025-06-02T10:32:26+09:00*%
%TF.ProjectId,Project 1 LED Torch,50726f6a-6563-4742-9031-204c45442054,1*%
%TF.SameCoordinates,Original*%
%TF.FileFunction,Copper,L1,Top*%
%TF.FilePolarity,Positive*%
%FSLAX46Y46*%
G04 Gerber Fmt 4.6, Leading zero omitted, Abs format (unit mm)*
G04 Created by KiCad (PCBNEW 9.0.1) date 2025-06-02 10:32:26*
%MOMM*%
%LPD*%
G01*
G04 APERTURE LIST*
%TA.AperFunction,ComponentPad*%
%ADD10C,1.800000*%
%TD*%
%TA.AperFunction,ComponentPad*%
%ADD11R,1.800000X1.800000*%
%TD*%
%TA.AperFunction,ComponentPad*%
%ADD12O,1.400000X1.400000*%
%TD*%
%TA.AperFunction,ComponentPad*%
%ADD13C,1.400000*%
%TD*%
%TA.AperFunction,ComponentPad*%
%ADD14C,1.700000*%
%TD*%
%TA.AperFunction,ComponentPad*%
%ADD15R,1.700000X1.700000*%
%TD*%
%TA.AperFunction,SMDPad,CuDef*%
%ADD16R,2.540000X3.510000*%
%TD*%
%TA.AperFunction,Conductor*%
%ADD17C,0.200000*%
%TD*%
%TA.AperFunction,Profile*%
%ADD18C,0.050000*%
%TD*%
G04 APERTURE END LIST*
D10*
%TO.P,D1,2,A*%
%TO.N,/LED_Anode*%
X90250000Y-104765000D03*
D11*
%TO.P,D1,1,K*%
%TO.N,/LED_Cathode*%
X90250000Y-102225000D03*
%TD*%
D12*
%TO.P,R1,2*%
%TO.N,Net-(SW1A-A)*%
X119500000Y-99690000D03*
D13*
%TO.P,R1,1*%
%TO.N,/LED_Anode*%
X119500000Y-107310000D03*
%TD*%
D14*
%TO.P,SW1,2,B*%
%TO.N,/BAT_Pos*%
X134625000Y-105750000D03*
X128125000Y-105750000D03*
%TO.P,SW1,1,A*%
%TO.N,Net-(SW1A-A)*%
X134625000Y-101250000D03*
D15*
X128125000Y-101250000D03*
%TD*%
D16*
%TO.P,BT1,2,-*%
%TO.N,/LED_Cathode*%
X143820000Y-103500000D03*
%TO.P,BT1,1,+*%
%TO.N,/BAT_Pos*%
X173180000Y-103500000D03*
%TD*%
D17*
%TO.N,/BAT_Pos*%
X173180000Y-105720000D02*
X173180000Y-103500000D01*
X168650000Y-110250000D02*
X173180000Y-105720000D01*
X134625000Y-107475000D02*
X137400000Y-110250000D01*
X134625000Y-105750000D02*
X134625000Y-107475000D01*
X137400000Y-110250000D02*
X168650000Y-110250000D01*
%TO.N,/LED_Anode*%
X90983000Y-109233000D02*
X117767000Y-109233000D01*
X90250000Y-108500000D02*
X90250000Y-105540000D01*
X90983000Y-109233000D02*
X90250000Y-108500000D01*
X117767000Y-109233000D02*
X119500000Y-107500000D01*
%TO.N,Net-(SW1A-A)*%
X128125000Y-101250000D02*
X134625000Y-101250000D01*
%TO.N,/BAT_Pos*%
X128125000Y-105750000D02*
X134625000Y-105750000D01*
%TO.N,/LED_Cathode*%
X121450000Y-103500000D02*
X143820000Y-103500000D01*
X121350000Y-103400000D02*
X121450000Y-103500000D01*
X112700000Y-103400000D02*
X121350000Y-103400000D01*
X108900000Y-99600000D02*
X112700000Y-103400000D01*
X99200000Y-99600000D02*
X108900000Y-99600000D01*
X95800000Y-103000000D02*
X99200000Y-99600000D01*
X90250000Y-103000000D02*
X95800000Y-103000000D01*
%TO.N,Net-(SW1A-A)*%
X126755000Y-99880000D02*
X128125000Y-101250000D01*
X119500000Y-99880000D02*
X126755000Y-99880000D01*
%TD*%
D18*
X90275000Y-97000000D02*
X145007191Y-97003463D01*
X90250000Y-111550043D02*
G75*
G02*
X90275000Y-97000000I0J7275043D01*
G01*
X175500000Y-98000000D02*
X174500000Y-98000000D01*
X175500000Y-108500000D02*
X175500000Y-98000000D01*
X174500000Y-108500000D02*
X175500000Y-108500000D01*
X172428779Y-98000000D02*
X174500000Y-98000000D01*
X172501874Y-108500000D02*
X174500000Y-108500000D01*
X172501874Y-108500000D02*
G75*
G02*
X146000001Y-111550000I-14001874J5000000D01*
G01*
X145007191Y-97003462D02*
G75*
G02*
X172428780Y-98000000I13492809J-6496538D01*
G01*
X90250000Y-111550000D02*
X146000000Y-111550000D01*
X108662278Y-103500000D02*
G75*
G02*
X102337722Y-103500000I-3162278J0D01*
G01*
X102337722Y-103500000D02*
G75*
G02*
X108662278Y-103500000I3162278J0D01*
G01*
M02*
