%TF.GenerationSoftware,KiCad,Pcbnew,9.0.1*%
%TF.CreationDate,2025-06-02T10:33:23+09:00*%
%TF.ProjectId,Project 1 LED Torch,50726f6a-6563-4742-9031-204c45442054,1*%
%TF.SameCoordinates,Original*%
%TF.FileFunction,Drillmap*%
%TF.FilePolarity,Positive*%
%FSLAX45Y45*%
G04 Gerber Fmt 4.5, Leading zero omitted, Abs format (unit mm)*
G04 Created by KiCad (PCBNEW 9.0.1) date 2025-06-02 10:33:23*
%MOMM*%
%LPD*%
G01*
G04 APERTURE LIST*
%ADD10C,0.050000*%
%ADD11C,0.200000*%
G04 APERTURE END LIST*
D10*
X9027500Y-9700000D02*
X14500719Y-9700346D01*
X9025000Y-11155004D02*
G75*
G02*
X9027500Y-9700000I0J727504D01*
G01*
X17550000Y-9800000D02*
X17450000Y-9800000D01*
X17550000Y-10850000D02*
X17550000Y-9800000D01*
X17450000Y-10850000D02*
X17550000Y-10850000D01*
X17242878Y-9800000D02*
X17450000Y-9800000D01*
X17250187Y-10850000D02*
X17450000Y-10850000D01*
X17250187Y-10850000D02*
G75*
G02*
X14600000Y-11155000I-1400187J500000D01*
G01*
X14500719Y-9700346D02*
G75*
G02*
X17242878Y-9800000I1349281J-649654D01*
G01*
X9025000Y-11155000D02*
X14600000Y-11155000D01*
X10866228Y-10350000D02*
G75*
G02*
X10233772Y-10350000I-316228J0D01*
G01*
X10233772Y-10350000D02*
G75*
G02*
X10866228Y-10350000I316228J0D01*
G01*
D11*
X8555773Y-12150767D02*
X8555773Y-11950767D01*
X8555773Y-11950767D02*
X8603392Y-11950767D01*
X8603392Y-11950767D02*
X8631963Y-11960291D01*
X8631963Y-11960291D02*
X8651011Y-11979339D01*
X8651011Y-11979339D02*
X8660534Y-11998386D01*
X8660534Y-11998386D02*
X8670058Y-12036481D01*
X8670058Y-12036481D02*
X8670058Y-12065053D01*
X8670058Y-12065053D02*
X8660534Y-12103148D01*
X8660534Y-12103148D02*
X8651011Y-12122196D01*
X8651011Y-12122196D02*
X8631963Y-12141243D01*
X8631963Y-12141243D02*
X8603392Y-12150767D01*
X8603392Y-12150767D02*
X8555773Y-12150767D01*
X8755773Y-12150767D02*
X8755773Y-12017434D01*
X8755773Y-12055529D02*
X8765296Y-12036481D01*
X8765296Y-12036481D02*
X8774820Y-12026958D01*
X8774820Y-12026958D02*
X8793868Y-12017434D01*
X8793868Y-12017434D02*
X8812915Y-12017434D01*
X8879582Y-12150767D02*
X8879582Y-12017434D01*
X8879582Y-11950767D02*
X8870058Y-11960291D01*
X8870058Y-11960291D02*
X8879582Y-11969815D01*
X8879582Y-11969815D02*
X8889106Y-11960291D01*
X8889106Y-11960291D02*
X8879582Y-11950767D01*
X8879582Y-11950767D02*
X8879582Y-11969815D01*
X9003392Y-12150767D02*
X8984344Y-12141243D01*
X8984344Y-12141243D02*
X8974820Y-12122196D01*
X8974820Y-12122196D02*
X8974820Y-11950767D01*
X9108153Y-12150767D02*
X9089106Y-12141243D01*
X9089106Y-12141243D02*
X9079582Y-12122196D01*
X9079582Y-12122196D02*
X9079582Y-11950767D01*
X9336725Y-12150767D02*
X9336725Y-11950767D01*
X9336725Y-11950767D02*
X9403392Y-12093624D01*
X9403392Y-12093624D02*
X9470058Y-11950767D01*
X9470058Y-11950767D02*
X9470058Y-12150767D01*
X9651011Y-12150767D02*
X9651011Y-12046005D01*
X9651011Y-12046005D02*
X9641487Y-12026958D01*
X9641487Y-12026958D02*
X9622439Y-12017434D01*
X9622439Y-12017434D02*
X9584344Y-12017434D01*
X9584344Y-12017434D02*
X9565296Y-12026958D01*
X9651011Y-12141243D02*
X9631963Y-12150767D01*
X9631963Y-12150767D02*
X9584344Y-12150767D01*
X9584344Y-12150767D02*
X9565296Y-12141243D01*
X9565296Y-12141243D02*
X9555773Y-12122196D01*
X9555773Y-12122196D02*
X9555773Y-12103148D01*
X9555773Y-12103148D02*
X9565296Y-12084100D01*
X9565296Y-12084100D02*
X9584344Y-12074577D01*
X9584344Y-12074577D02*
X9631963Y-12074577D01*
X9631963Y-12074577D02*
X9651011Y-12065053D01*
X9746249Y-12017434D02*
X9746249Y-12217434D01*
X9746249Y-12026958D02*
X9765296Y-12017434D01*
X9765296Y-12017434D02*
X9803392Y-12017434D01*
X9803392Y-12017434D02*
X9822439Y-12026958D01*
X9822439Y-12026958D02*
X9831963Y-12036481D01*
X9831963Y-12036481D02*
X9841487Y-12055529D01*
X9841487Y-12055529D02*
X9841487Y-12112672D01*
X9841487Y-12112672D02*
X9831963Y-12131719D01*
X9831963Y-12131719D02*
X9822439Y-12141243D01*
X9822439Y-12141243D02*
X9803392Y-12150767D01*
X9803392Y-12150767D02*
X9765296Y-12150767D01*
X9765296Y-12150767D02*
X9746249Y-12141243D01*
X9927201Y-12131719D02*
X9936725Y-12141243D01*
X9936725Y-12141243D02*
X9927201Y-12150767D01*
X9927201Y-12150767D02*
X9917677Y-12141243D01*
X9917677Y-12141243D02*
X9927201Y-12131719D01*
X9927201Y-12131719D02*
X9927201Y-12150767D01*
X9927201Y-12026958D02*
X9936725Y-12036481D01*
X9936725Y-12036481D02*
X9927201Y-12046005D01*
X9927201Y-12046005D02*
X9917677Y-12036481D01*
X9917677Y-12036481D02*
X9927201Y-12026958D01*
X9927201Y-12026958D02*
X9927201Y-12046005D01*
M02*
