%TF.GenerationSoftware,KiCad,Pcbnew,9.0.1*%
%TF.CreationDate,2025-06-02T10:32:27+09:00*%
%TF.ProjectId,Project 1 LED Torch,50726f6a-6563-4742-9031-204c45442054,1*%
%TF.SameCoordinates,Original*%
%TF.FileFunction,Legend,Bot*%
%TF.FilePolarity,Positive*%
%FSLAX46Y46*%
G04 Gerber Fmt 4.6, Leading zero omitted, Abs format (unit mm)*
G04 Created by KiCad (PCBNEW 9.0.1) date 2025-06-02 10:32:27*
%MOMM*%
%LPD*%
G01*
G04 APERTURE LIST*
%ADD10C,0.100000*%
%ADD11C,0.010000*%
%TA.AperFunction,Profile*%
%ADD12C,0.050000*%
%TD*%
G04 APERTURE END LIST*
D10*
X162438972Y-108291598D02*
X162105639Y-109291598D01*
X162105639Y-109291598D02*
X161772306Y-108291598D01*
X161058020Y-109243979D02*
X161153258Y-109291598D01*
X161153258Y-109291598D02*
X161343734Y-109291598D01*
X161343734Y-109291598D02*
X161438972Y-109243979D01*
X161438972Y-109243979D02*
X161486591Y-109148740D01*
X161486591Y-109148740D02*
X161486591Y-108767788D01*
X161486591Y-108767788D02*
X161438972Y-108672550D01*
X161438972Y-108672550D02*
X161343734Y-108624931D01*
X161343734Y-108624931D02*
X161153258Y-108624931D01*
X161153258Y-108624931D02*
X161058020Y-108672550D01*
X161058020Y-108672550D02*
X161010401Y-108767788D01*
X161010401Y-108767788D02*
X161010401Y-108863026D01*
X161010401Y-108863026D02*
X161486591Y-108958264D01*
X160581829Y-109291598D02*
X160581829Y-108624931D01*
X160581829Y-108815407D02*
X160534210Y-108720169D01*
X160534210Y-108720169D02*
X160486591Y-108672550D01*
X160486591Y-108672550D02*
X160391353Y-108624931D01*
X160391353Y-108624931D02*
X160296115Y-108624931D01*
X160010400Y-109243979D02*
X159915162Y-109291598D01*
X159915162Y-109291598D02*
X159724686Y-109291598D01*
X159724686Y-109291598D02*
X159629448Y-109243979D01*
X159629448Y-109243979D02*
X159581829Y-109148740D01*
X159581829Y-109148740D02*
X159581829Y-109101121D01*
X159581829Y-109101121D02*
X159629448Y-109005883D01*
X159629448Y-109005883D02*
X159724686Y-108958264D01*
X159724686Y-108958264D02*
X159867543Y-108958264D01*
X159867543Y-108958264D02*
X159962781Y-108910645D01*
X159962781Y-108910645D02*
X160010400Y-108815407D01*
X160010400Y-108815407D02*
X160010400Y-108767788D01*
X160010400Y-108767788D02*
X159962781Y-108672550D01*
X159962781Y-108672550D02*
X159867543Y-108624931D01*
X159867543Y-108624931D02*
X159724686Y-108624931D01*
X159724686Y-108624931D02*
X159629448Y-108672550D01*
X159153257Y-109291598D02*
X159153257Y-108624931D01*
X159153257Y-108291598D02*
X159200876Y-108339217D01*
X159200876Y-108339217D02*
X159153257Y-108386836D01*
X159153257Y-108386836D02*
X159105638Y-108339217D01*
X159105638Y-108339217D02*
X159153257Y-108291598D01*
X159153257Y-108291598D02*
X159153257Y-108386836D01*
X158534210Y-109291598D02*
X158629448Y-109243979D01*
X158629448Y-109243979D02*
X158677067Y-109196359D01*
X158677067Y-109196359D02*
X158724686Y-109101121D01*
X158724686Y-109101121D02*
X158724686Y-108815407D01*
X158724686Y-108815407D02*
X158677067Y-108720169D01*
X158677067Y-108720169D02*
X158629448Y-108672550D01*
X158629448Y-108672550D02*
X158534210Y-108624931D01*
X158534210Y-108624931D02*
X158391353Y-108624931D01*
X158391353Y-108624931D02*
X158296115Y-108672550D01*
X158296115Y-108672550D02*
X158248496Y-108720169D01*
X158248496Y-108720169D02*
X158200877Y-108815407D01*
X158200877Y-108815407D02*
X158200877Y-109101121D01*
X158200877Y-109101121D02*
X158248496Y-109196359D01*
X158248496Y-109196359D02*
X158296115Y-109243979D01*
X158296115Y-109243979D02*
X158391353Y-109291598D01*
X158391353Y-109291598D02*
X158534210Y-109291598D01*
X157772305Y-108624931D02*
X157772305Y-109291598D01*
X157772305Y-108720169D02*
X157724686Y-108672550D01*
X157724686Y-108672550D02*
X157629448Y-108624931D01*
X157629448Y-108624931D02*
X157486591Y-108624931D01*
X157486591Y-108624931D02*
X157391353Y-108672550D01*
X157391353Y-108672550D02*
X157343734Y-108767788D01*
X157343734Y-108767788D02*
X157343734Y-109291598D01*
X155581829Y-109291598D02*
X156153257Y-109291598D01*
X155867543Y-109291598D02*
X155867543Y-108291598D01*
X155867543Y-108291598D02*
X155962781Y-108434455D01*
X155962781Y-108434455D02*
X156058019Y-108529693D01*
X156058019Y-108529693D02*
X156153257Y-108577312D01*
X155153257Y-109196359D02*
X155105638Y-109243979D01*
X155105638Y-109243979D02*
X155153257Y-109291598D01*
X155153257Y-109291598D02*
X155200876Y-109243979D01*
X155200876Y-109243979D02*
X155153257Y-109196359D01*
X155153257Y-109196359D02*
X155153257Y-109291598D01*
X154486591Y-108291598D02*
X154391353Y-108291598D01*
X154391353Y-108291598D02*
X154296115Y-108339217D01*
X154296115Y-108339217D02*
X154248496Y-108386836D01*
X154248496Y-108386836D02*
X154200877Y-108482074D01*
X154200877Y-108482074D02*
X154153258Y-108672550D01*
X154153258Y-108672550D02*
X154153258Y-108910645D01*
X154153258Y-108910645D02*
X154200877Y-109101121D01*
X154200877Y-109101121D02*
X154248496Y-109196359D01*
X154248496Y-109196359D02*
X154296115Y-109243979D01*
X154296115Y-109243979D02*
X154391353Y-109291598D01*
X154391353Y-109291598D02*
X154486591Y-109291598D01*
X154486591Y-109291598D02*
X154581829Y-109243979D01*
X154581829Y-109243979D02*
X154629448Y-109196359D01*
X154629448Y-109196359D02*
X154677067Y-109101121D01*
X154677067Y-109101121D02*
X154724686Y-108910645D01*
X154724686Y-108910645D02*
X154724686Y-108672550D01*
X154724686Y-108672550D02*
X154677067Y-108482074D01*
X154677067Y-108482074D02*
X154629448Y-108386836D01*
X154629448Y-108386836D02*
X154581829Y-108339217D01*
X154581829Y-108339217D02*
X154486591Y-108291598D01*
D11*
%TO.C,REF\u002A\u002A*%
X164775614Y-101599082D02*
X164776059Y-101730301D01*
X164776362Y-101877506D01*
X164776548Y-102041639D01*
X164776642Y-102223642D01*
X164776671Y-102424455D01*
X164776661Y-102645022D01*
X164776636Y-102886282D01*
X164776622Y-103149179D01*
X164776622Y-103191330D01*
X164776646Y-103451958D01*
X164776685Y-103691086D01*
X164776708Y-103909650D01*
X164776687Y-104108585D01*
X164776593Y-104288825D01*
X164776395Y-104451305D01*
X164776063Y-104596960D01*
X164775569Y-104726724D01*
X164774883Y-104841533D01*
X164773976Y-104942320D01*
X164772817Y-105030020D01*
X164771378Y-105105569D01*
X164769629Y-105169901D01*
X164767540Y-105223951D01*
X164765083Y-105268653D01*
X164762227Y-105304942D01*
X164758943Y-105333753D01*
X164755202Y-105356021D01*
X164750974Y-105372680D01*
X164746229Y-105384665D01*
X164740939Y-105392911D01*
X164735073Y-105398352D01*
X164728602Y-105401924D01*
X164721497Y-105404560D01*
X164713728Y-105407196D01*
X164705266Y-105410767D01*
X164700908Y-105412435D01*
X164692395Y-105414401D01*
X164679694Y-105416201D01*
X164661885Y-105417845D01*
X164638049Y-105419337D01*
X164607266Y-105420687D01*
X164568617Y-105421901D01*
X164521182Y-105422987D01*
X164464043Y-105423951D01*
X164396279Y-105424801D01*
X164316971Y-105425543D01*
X164225199Y-105426187D01*
X164120044Y-105426737D01*
X164000587Y-105427203D01*
X163865908Y-105427590D01*
X163715088Y-105427906D01*
X163547206Y-105428159D01*
X163361345Y-105428356D01*
X163156583Y-105428503D01*
X162932002Y-105428608D01*
X162686682Y-105428679D01*
X162419704Y-105428722D01*
X162381321Y-105428727D01*
X162115922Y-105428770D01*
X161872050Y-105428815D01*
X161648783Y-105428838D01*
X161445196Y-105428814D01*
X161260367Y-105428720D01*
X161093373Y-105428533D01*
X160943290Y-105428229D01*
X160809196Y-105427784D01*
X160690166Y-105427175D01*
X160585279Y-105426379D01*
X160493610Y-105425370D01*
X160414237Y-105424127D01*
X160346237Y-105422625D01*
X160288686Y-105420841D01*
X160240662Y-105418751D01*
X160201240Y-105416332D01*
X160169499Y-105413560D01*
X160144514Y-105410411D01*
X160125364Y-105406862D01*
X160111123Y-105402888D01*
X160100871Y-105398468D01*
X160093682Y-105393576D01*
X160088635Y-105388190D01*
X160084805Y-105382286D01*
X160081271Y-105375839D01*
X160077108Y-105368827D01*
X160076025Y-105366977D01*
X160073813Y-105361470D01*
X160071786Y-105353158D01*
X160069938Y-105341099D01*
X160068261Y-105324353D01*
X160066745Y-105301977D01*
X160065383Y-105273030D01*
X160064167Y-105236570D01*
X160063089Y-105191657D01*
X160062140Y-105137347D01*
X160061312Y-105072700D01*
X160060597Y-104996774D01*
X160059987Y-104908628D01*
X160059942Y-104899783D01*
X160351378Y-104899783D01*
X160355260Y-104901055D01*
X160378520Y-104903081D01*
X160420874Y-104904916D01*
X160480132Y-104906517D01*
X160554107Y-104907839D01*
X160640610Y-104908838D01*
X160737452Y-104909470D01*
X160842445Y-104909690D01*
X161540651Y-104909690D01*
X162695090Y-104909690D01*
X162694456Y-104833490D01*
X162695574Y-104791450D01*
X162701304Y-104755624D01*
X162713890Y-104718062D01*
X162735568Y-104669867D01*
X162738789Y-104663187D01*
X162764188Y-104613649D01*
X162790996Y-104565659D01*
X162813917Y-104528756D01*
X162818485Y-104522124D01*
X162840516Y-104490883D01*
X162872693Y-104445944D01*
X162913457Y-104389437D01*
X162961245Y-104323494D01*
X163014498Y-104250247D01*
X163071655Y-104171826D01*
X163131155Y-104090362D01*
X163191437Y-104007988D01*
X163250940Y-103926834D01*
X163308105Y-103849032D01*
X163361370Y-103776713D01*
X163409174Y-103712008D01*
X163449957Y-103657049D01*
X163482158Y-103613966D01*
X163504216Y-103584892D01*
X163514571Y-103571957D01*
X163519044Y-103567641D01*
X163523236Y-103565602D01*
X163526643Y-103568216D01*
X163529325Y-103577276D01*
X163531341Y-103594575D01*
X163532748Y-103621904D01*
X163533605Y-103661055D01*
X163533970Y-103713823D01*
X163533903Y-103781997D01*
X163533460Y-103867372D01*
X163532702Y-103971739D01*
X163531685Y-104096890D01*
X163531308Y-104141590D01*
X163530169Y-104262685D01*
X163528972Y-104363978D01*
X163527636Y-104447552D01*
X163526077Y-104515494D01*
X163524215Y-104569889D01*
X163521966Y-104612822D01*
X163519248Y-104646379D01*
X163515979Y-104672645D01*
X163512078Y-104693706D01*
X163507461Y-104711647D01*
X163499192Y-104738060D01*
X163475583Y-104800062D01*
X163449685Y-104852863D01*
X163424535Y-104889935D01*
X163423339Y-104891365D01*
X163421168Y-104895714D01*
X163423328Y-104899316D01*
X163431644Y-104902241D01*
X163447940Y-104904559D01*
X163474041Y-104906341D01*
X163511771Y-104907657D01*
X163562956Y-104908576D01*
X163629420Y-104909168D01*
X163712987Y-104909505D01*
X163815483Y-104909655D01*
X163938732Y-104909690D01*
X164470296Y-104909690D01*
X164431523Y-104852073D01*
X164425432Y-104843183D01*
X164414976Y-104828359D01*
X164405579Y-104814712D01*
X164397183Y-104801055D01*
X164389733Y-104786201D01*
X164383173Y-104768960D01*
X164377446Y-104748145D01*
X164372495Y-104722570D01*
X164368266Y-104691045D01*
X164364701Y-104652383D01*
X164361744Y-104605397D01*
X164359340Y-104548898D01*
X164357431Y-104481699D01*
X164355962Y-104402612D01*
X164354876Y-104310450D01*
X164354118Y-104204024D01*
X164353630Y-104082147D01*
X164353358Y-103943631D01*
X164353243Y-103787289D01*
X164353231Y-103611932D01*
X164353265Y-103416372D01*
X164353289Y-103199423D01*
X164353280Y-103076803D01*
X164353243Y-102871737D01*
X164353227Y-102687406D01*
X164353288Y-102522624D01*
X164353484Y-102376206D01*
X164353870Y-102246964D01*
X164354505Y-102133712D01*
X164355444Y-102035265D01*
X164356745Y-101950434D01*
X164358464Y-101878034D01*
X164360659Y-101816879D01*
X164363385Y-101765782D01*
X164366701Y-101723557D01*
X164370662Y-101689017D01*
X164375325Y-101660976D01*
X164380747Y-101638248D01*
X164386986Y-101619646D01*
X164394097Y-101603983D01*
X164402138Y-101590074D01*
X164411166Y-101576731D01*
X164421236Y-101562769D01*
X164432407Y-101547001D01*
X164472197Y-101489157D01*
X163412314Y-101489157D01*
X163450311Y-101552256D01*
X163464993Y-101577295D01*
X163479531Y-101604876D01*
X163491627Y-101632990D01*
X163501532Y-101663841D01*
X163509494Y-101699634D01*
X163515761Y-101742573D01*
X163520582Y-101794864D01*
X163524206Y-101858709D01*
X163526881Y-101936315D01*
X163528857Y-102029884D01*
X163530382Y-102141623D01*
X163531704Y-102273735D01*
X163532613Y-102393724D01*
X163533020Y-102510353D01*
X163532767Y-102605821D01*
X163531857Y-102679846D01*
X163530293Y-102732145D01*
X163528079Y-102762439D01*
X163525220Y-102770446D01*
X163522161Y-102767148D01*
X163504006Y-102745698D01*
X163474275Y-102709179D01*
X163434639Y-102659732D01*
X163386771Y-102599497D01*
X163332343Y-102530617D01*
X163273027Y-102455233D01*
X163210495Y-102375486D01*
X163146421Y-102293518D01*
X163082475Y-102211470D01*
X163020331Y-102131484D01*
X162961661Y-102055701D01*
X162908137Y-101986263D01*
X162861430Y-101925311D01*
X162823214Y-101874986D01*
X162795161Y-101837430D01*
X162778943Y-101814785D01*
X162733635Y-101742502D01*
X162693661Y-101662753D01*
X162672130Y-101594478D01*
X162668827Y-101537134D01*
X162674116Y-101489157D01*
X161542356Y-101489407D01*
X161581867Y-101520012D01*
X161591248Y-101527379D01*
X161654183Y-101581728D01*
X161722997Y-101649549D01*
X161799596Y-101732806D01*
X161885888Y-101833468D01*
X161903052Y-101854137D01*
X161943833Y-101903699D01*
X161993588Y-101964616D01*
X162050955Y-102035188D01*
X162114569Y-102113714D01*
X162183069Y-102198494D01*
X162255090Y-102287827D01*
X162329270Y-102380012D01*
X162344517Y-102398992D01*
X162404246Y-102473350D01*
X162478653Y-102566138D01*
X162551131Y-102656678D01*
X162620314Y-102743268D01*
X162684841Y-102824208D01*
X162743347Y-102897796D01*
X162794470Y-102962334D01*
X162836847Y-103016119D01*
X162869115Y-103057452D01*
X162889910Y-103084632D01*
X162897869Y-103095958D01*
X162896111Y-103100061D01*
X162883230Y-103120624D01*
X162858885Y-103156851D01*
X162824247Y-103207114D01*
X162780486Y-103269782D01*
X162728775Y-103343226D01*
X162670284Y-103425817D01*
X162606184Y-103515926D01*
X162537646Y-103611921D01*
X162465843Y-103712175D01*
X162391944Y-103815058D01*
X162317121Y-103918940D01*
X162242545Y-104022191D01*
X162169387Y-104123182D01*
X162098819Y-104220284D01*
X162032011Y-104311867D01*
X161970135Y-104396301D01*
X161914361Y-104471957D01*
X161865862Y-104537206D01*
X161825807Y-104590418D01*
X161795369Y-104629963D01*
X161774944Y-104655316D01*
X161728899Y-104709585D01*
X161678612Y-104766065D01*
X161631815Y-104815959D01*
X161540651Y-104909690D01*
X160842445Y-104909690D01*
X160911356Y-104909639D01*
X161009607Y-104909381D01*
X161099030Y-104908927D01*
X161177333Y-104908300D01*
X161242223Y-104907525D01*
X161291411Y-104906625D01*
X161322604Y-104905624D01*
X161333511Y-104904547D01*
X161332322Y-104901327D01*
X161322176Y-104883742D01*
X161305040Y-104857448D01*
X161296540Y-104844981D01*
X161287329Y-104830912D01*
X161279233Y-104816641D01*
X161272185Y-104800769D01*
X161266117Y-104781899D01*
X161260961Y-104758631D01*
X161256651Y-104729568D01*
X161253119Y-104693311D01*
X161250297Y-104648460D01*
X161248118Y-104593618D01*
X161246514Y-104527387D01*
X161245419Y-104448367D01*
X161244765Y-104355161D01*
X161244484Y-104246369D01*
X161244509Y-104120593D01*
X161244772Y-103976435D01*
X161245206Y-103812497D01*
X161245745Y-103627379D01*
X161246279Y-103448522D01*
X161246805Y-103289664D01*
X161247350Y-103150606D01*
X161247945Y-103029955D01*
X161248619Y-102926318D01*
X161249403Y-102838301D01*
X161250326Y-102764513D01*
X161251419Y-102703559D01*
X161252712Y-102654047D01*
X161254235Y-102614583D01*
X161256019Y-102583774D01*
X161258092Y-102560228D01*
X161260486Y-102542550D01*
X161263230Y-102529349D01*
X161266356Y-102519230D01*
X161269892Y-102510801D01*
X161273791Y-102502665D01*
X161293438Y-102465834D01*
X161312225Y-102435681D01*
X161313272Y-102434198D01*
X161327602Y-102411949D01*
X161333511Y-102398992D01*
X161332504Y-102398539D01*
X161315305Y-102397093D01*
X161278656Y-102395770D01*
X161224962Y-102394606D01*
X161156630Y-102393637D01*
X161076064Y-102392901D01*
X160985670Y-102392432D01*
X160887853Y-102392268D01*
X160442195Y-102392268D01*
X160439120Y-103569135D01*
X160436045Y-104746001D01*
X160409407Y-104804912D01*
X160397485Y-104829473D01*
X160380246Y-104859724D01*
X160367074Y-104876850D01*
X160359076Y-104884881D01*
X160351378Y-104899783D01*
X160059942Y-104899783D01*
X160059474Y-104807319D01*
X160059050Y-104691907D01*
X160058706Y-104561450D01*
X160058434Y-104415006D01*
X160058227Y-104251634D01*
X160058076Y-104070391D01*
X160057972Y-103870338D01*
X160057908Y-103650531D01*
X160057876Y-103410029D01*
X160057867Y-103147892D01*
X160057867Y-100956321D01*
X160096249Y-100917939D01*
X160123355Y-100894201D01*
X160150253Y-100882401D01*
X160186560Y-100879557D01*
X160238489Y-100879557D01*
X160238489Y-100967496D01*
X160240427Y-101017392D01*
X160259199Y-101127813D01*
X160296217Y-101229277D01*
X160349369Y-101320442D01*
X160416546Y-101399963D01*
X160495638Y-101466495D01*
X160584534Y-101518696D01*
X160681125Y-101555220D01*
X160783300Y-101574724D01*
X160888950Y-101575863D01*
X160995964Y-101557295D01*
X161102232Y-101517674D01*
X161199219Y-101459806D01*
X161284293Y-101384974D01*
X161353015Y-101296905D01*
X161403918Y-101197906D01*
X161435535Y-101090283D01*
X161446400Y-100976344D01*
X161446400Y-100879557D01*
X163066753Y-100879557D01*
X163277897Y-100879570D01*
X163482020Y-100879620D01*
X163665686Y-100879720D01*
X163829991Y-100879882D01*
X163976029Y-100880119D01*
X164104894Y-100880443D01*
X164217683Y-100880865D01*
X164315488Y-100881399D01*
X164399404Y-100882057D01*
X164470527Y-100882851D01*
X164529950Y-100883794D01*
X164578768Y-100884898D01*
X164618077Y-100886174D01*
X164648969Y-100887637D01*
X164672541Y-100889297D01*
X164689886Y-100891168D01*
X164702099Y-100893262D01*
X164710275Y-100895590D01*
X164715508Y-100898166D01*
X164721504Y-100901735D01*
X164728279Y-100905268D01*
X164734478Y-100908778D01*
X164740126Y-100913208D01*
X164745247Y-100919498D01*
X164749869Y-100928591D01*
X164754015Y-100941429D01*
X164757713Y-100958952D01*
X164760987Y-100982103D01*
X164763863Y-101011824D01*
X164766367Y-101049055D01*
X164768524Y-101094739D01*
X164770360Y-101149817D01*
X164771900Y-101215231D01*
X164773170Y-101291923D01*
X164774195Y-101380834D01*
X164775001Y-101482907D01*
X164775034Y-101489157D01*
X164775614Y-101599082D01*
G36*
X164775614Y-101599082D02*
G01*
X164776059Y-101730301D01*
X164776362Y-101877506D01*
X164776548Y-102041639D01*
X164776642Y-102223642D01*
X164776671Y-102424455D01*
X164776661Y-102645022D01*
X164776636Y-102886282D01*
X164776622Y-103149179D01*
X164776622Y-103191330D01*
X164776646Y-103451958D01*
X164776685Y-103691086D01*
X164776708Y-103909650D01*
X164776687Y-104108585D01*
X164776593Y-104288825D01*
X164776395Y-104451305D01*
X164776063Y-104596960D01*
X164775569Y-104726724D01*
X164774883Y-104841533D01*
X164773976Y-104942320D01*
X164772817Y-105030020D01*
X164771378Y-105105569D01*
X164769629Y-105169901D01*
X164767540Y-105223951D01*
X164765083Y-105268653D01*
X164762227Y-105304942D01*
X164758943Y-105333753D01*
X164755202Y-105356021D01*
X164750974Y-105372680D01*
X164746229Y-105384665D01*
X164740939Y-105392911D01*
X164735073Y-105398352D01*
X164728602Y-105401924D01*
X164721497Y-105404560D01*
X164713728Y-105407196D01*
X164705266Y-105410767D01*
X164700908Y-105412435D01*
X164692395Y-105414401D01*
X164679694Y-105416201D01*
X164661885Y-105417845D01*
X164638049Y-105419337D01*
X164607266Y-105420687D01*
X164568617Y-105421901D01*
X164521182Y-105422987D01*
X164464043Y-105423951D01*
X164396279Y-105424801D01*
X164316971Y-105425543D01*
X164225199Y-105426187D01*
X164120044Y-105426737D01*
X164000587Y-105427203D01*
X163865908Y-105427590D01*
X163715088Y-105427906D01*
X163547206Y-105428159D01*
X163361345Y-105428356D01*
X163156583Y-105428503D01*
X162932002Y-105428608D01*
X162686682Y-105428679D01*
X162419704Y-105428722D01*
X162381321Y-105428727D01*
X162115922Y-105428770D01*
X161872050Y-105428815D01*
X161648783Y-105428838D01*
X161445196Y-105428814D01*
X161260367Y-105428720D01*
X161093373Y-105428533D01*
X160943290Y-105428229D01*
X160809196Y-105427784D01*
X160690166Y-105427175D01*
X160585279Y-105426379D01*
X160493610Y-105425370D01*
X160414237Y-105424127D01*
X160346237Y-105422625D01*
X160288686Y-105420841D01*
X160240662Y-105418751D01*
X160201240Y-105416332D01*
X160169499Y-105413560D01*
X160144514Y-105410411D01*
X160125364Y-105406862D01*
X160111123Y-105402888D01*
X160100871Y-105398468D01*
X160093682Y-105393576D01*
X160088635Y-105388190D01*
X160084805Y-105382286D01*
X160081271Y-105375839D01*
X160077108Y-105368827D01*
X160076025Y-105366977D01*
X160073813Y-105361470D01*
X160071786Y-105353158D01*
X160069938Y-105341099D01*
X160068261Y-105324353D01*
X160066745Y-105301977D01*
X160065383Y-105273030D01*
X160064167Y-105236570D01*
X160063089Y-105191657D01*
X160062140Y-105137347D01*
X160061312Y-105072700D01*
X160060597Y-104996774D01*
X160059987Y-104908628D01*
X160059942Y-104899783D01*
X160351378Y-104899783D01*
X160355260Y-104901055D01*
X160378520Y-104903081D01*
X160420874Y-104904916D01*
X160480132Y-104906517D01*
X160554107Y-104907839D01*
X160640610Y-104908838D01*
X160737452Y-104909470D01*
X160842445Y-104909690D01*
X161540651Y-104909690D01*
X162695090Y-104909690D01*
X162694456Y-104833490D01*
X162695574Y-104791450D01*
X162701304Y-104755624D01*
X162713890Y-104718062D01*
X162735568Y-104669867D01*
X162738789Y-104663187D01*
X162764188Y-104613649D01*
X162790996Y-104565659D01*
X162813917Y-104528756D01*
X162818485Y-104522124D01*
X162840516Y-104490883D01*
X162872693Y-104445944D01*
X162913457Y-104389437D01*
X162961245Y-104323494D01*
X163014498Y-104250247D01*
X163071655Y-104171826D01*
X163131155Y-104090362D01*
X163191437Y-104007988D01*
X163250940Y-103926834D01*
X163308105Y-103849032D01*
X163361370Y-103776713D01*
X163409174Y-103712008D01*
X163449957Y-103657049D01*
X163482158Y-103613966D01*
X163504216Y-103584892D01*
X163514571Y-103571957D01*
X163519044Y-103567641D01*
X163523236Y-103565602D01*
X163526643Y-103568216D01*
X163529325Y-103577276D01*
X163531341Y-103594575D01*
X163532748Y-103621904D01*
X163533605Y-103661055D01*
X163533970Y-103713823D01*
X163533903Y-103781997D01*
X163533460Y-103867372D01*
X163532702Y-103971739D01*
X163531685Y-104096890D01*
X163531308Y-104141590D01*
X163530169Y-104262685D01*
X163528972Y-104363978D01*
X163527636Y-104447552D01*
X163526077Y-104515494D01*
X163524215Y-104569889D01*
X163521966Y-104612822D01*
X163519248Y-104646379D01*
X163515979Y-104672645D01*
X163512078Y-104693706D01*
X163507461Y-104711647D01*
X163499192Y-104738060D01*
X163475583Y-104800062D01*
X163449685Y-104852863D01*
X163424535Y-104889935D01*
X163423339Y-104891365D01*
X163421168Y-104895714D01*
X163423328Y-104899316D01*
X163431644Y-104902241D01*
X163447940Y-104904559D01*
X163474041Y-104906341D01*
X163511771Y-104907657D01*
X163562956Y-104908576D01*
X163629420Y-104909168D01*
X163712987Y-104909505D01*
X163815483Y-104909655D01*
X163938732Y-104909690D01*
X164470296Y-104909690D01*
X164431523Y-104852073D01*
X164425432Y-104843183D01*
X164414976Y-104828359D01*
X164405579Y-104814712D01*
X164397183Y-104801055D01*
X164389733Y-104786201D01*
X164383173Y-104768960D01*
X164377446Y-104748145D01*
X164372495Y-104722570D01*
X164368266Y-104691045D01*
X164364701Y-104652383D01*
X164361744Y-104605397D01*
X164359340Y-104548898D01*
X164357431Y-104481699D01*
X164355962Y-104402612D01*
X164354876Y-104310450D01*
X164354118Y-104204024D01*
X164353630Y-104082147D01*
X164353358Y-103943631D01*
X164353243Y-103787289D01*
X164353231Y-103611932D01*
X164353265Y-103416372D01*
X164353289Y-103199423D01*
X164353280Y-103076803D01*
X164353243Y-102871737D01*
X164353227Y-102687406D01*
X164353288Y-102522624D01*
X164353484Y-102376206D01*
X164353870Y-102246964D01*
X164354505Y-102133712D01*
X164355444Y-102035265D01*
X164356745Y-101950434D01*
X164358464Y-101878034D01*
X164360659Y-101816879D01*
X164363385Y-101765782D01*
X164366701Y-101723557D01*
X164370662Y-101689017D01*
X164375325Y-101660976D01*
X164380747Y-101638248D01*
X164386986Y-101619646D01*
X164394097Y-101603983D01*
X164402138Y-101590074D01*
X164411166Y-101576731D01*
X164421236Y-101562769D01*
X164432407Y-101547001D01*
X164472197Y-101489157D01*
X163412314Y-101489157D01*
X163450311Y-101552256D01*
X163464993Y-101577295D01*
X163479531Y-101604876D01*
X163491627Y-101632990D01*
X163501532Y-101663841D01*
X163509494Y-101699634D01*
X163515761Y-101742573D01*
X163520582Y-101794864D01*
X163524206Y-101858709D01*
X163526881Y-101936315D01*
X163528857Y-102029884D01*
X163530382Y-102141623D01*
X163531704Y-102273735D01*
X163532613Y-102393724D01*
X163533020Y-102510353D01*
X163532767Y-102605821D01*
X163531857Y-102679846D01*
X163530293Y-102732145D01*
X163528079Y-102762439D01*
X163525220Y-102770446D01*
X163522161Y-102767148D01*
X163504006Y-102745698D01*
X163474275Y-102709179D01*
X163434639Y-102659732D01*
X163386771Y-102599497D01*
X163332343Y-102530617D01*
X163273027Y-102455233D01*
X163210495Y-102375486D01*
X163146421Y-102293518D01*
X163082475Y-102211470D01*
X163020331Y-102131484D01*
X162961661Y-102055701D01*
X162908137Y-101986263D01*
X162861430Y-101925311D01*
X162823214Y-101874986D01*
X162795161Y-101837430D01*
X162778943Y-101814785D01*
X162733635Y-101742502D01*
X162693661Y-101662753D01*
X162672130Y-101594478D01*
X162668827Y-101537134D01*
X162674116Y-101489157D01*
X161542356Y-101489407D01*
X161581867Y-101520012D01*
X161591248Y-101527379D01*
X161654183Y-101581728D01*
X161722997Y-101649549D01*
X161799596Y-101732806D01*
X161885888Y-101833468D01*
X161903052Y-101854137D01*
X161943833Y-101903699D01*
X161993588Y-101964616D01*
X162050955Y-102035188D01*
X162114569Y-102113714D01*
X162183069Y-102198494D01*
X162255090Y-102287827D01*
X162329270Y-102380012D01*
X162344517Y-102398992D01*
X162404246Y-102473350D01*
X162478653Y-102566138D01*
X162551131Y-102656678D01*
X162620314Y-102743268D01*
X162684841Y-102824208D01*
X162743347Y-102897796D01*
X162794470Y-102962334D01*
X162836847Y-103016119D01*
X162869115Y-103057452D01*
X162889910Y-103084632D01*
X162897869Y-103095958D01*
X162896111Y-103100061D01*
X162883230Y-103120624D01*
X162858885Y-103156851D01*
X162824247Y-103207114D01*
X162780486Y-103269782D01*
X162728775Y-103343226D01*
X162670284Y-103425817D01*
X162606184Y-103515926D01*
X162537646Y-103611921D01*
X162465843Y-103712175D01*
X162391944Y-103815058D01*
X162317121Y-103918940D01*
X162242545Y-104022191D01*
X162169387Y-104123182D01*
X162098819Y-104220284D01*
X162032011Y-104311867D01*
X161970135Y-104396301D01*
X161914361Y-104471957D01*
X161865862Y-104537206D01*
X161825807Y-104590418D01*
X161795369Y-104629963D01*
X161774944Y-104655316D01*
X161728899Y-104709585D01*
X161678612Y-104766065D01*
X161631815Y-104815959D01*
X161540651Y-104909690D01*
X160842445Y-104909690D01*
X160911356Y-104909639D01*
X161009607Y-104909381D01*
X161099030Y-104908927D01*
X161177333Y-104908300D01*
X161242223Y-104907525D01*
X161291411Y-104906625D01*
X161322604Y-104905624D01*
X161333511Y-104904547D01*
X161332322Y-104901327D01*
X161322176Y-104883742D01*
X161305040Y-104857448D01*
X161296540Y-104844981D01*
X161287329Y-104830912D01*
X161279233Y-104816641D01*
X161272185Y-104800769D01*
X161266117Y-104781899D01*
X161260961Y-104758631D01*
X161256651Y-104729568D01*
X161253119Y-104693311D01*
X161250297Y-104648460D01*
X161248118Y-104593618D01*
X161246514Y-104527387D01*
X161245419Y-104448367D01*
X161244765Y-104355161D01*
X161244484Y-104246369D01*
X161244509Y-104120593D01*
X161244772Y-103976435D01*
X161245206Y-103812497D01*
X161245745Y-103627379D01*
X161246279Y-103448522D01*
X161246805Y-103289664D01*
X161247350Y-103150606D01*
X161247945Y-103029955D01*
X161248619Y-102926318D01*
X161249403Y-102838301D01*
X161250326Y-102764513D01*
X161251419Y-102703559D01*
X161252712Y-102654047D01*
X161254235Y-102614583D01*
X161256019Y-102583774D01*
X161258092Y-102560228D01*
X161260486Y-102542550D01*
X161263230Y-102529349D01*
X161266356Y-102519230D01*
X161269892Y-102510801D01*
X161273791Y-102502665D01*
X161293438Y-102465834D01*
X161312225Y-102435681D01*
X161313272Y-102434198D01*
X161327602Y-102411949D01*
X161333511Y-102398992D01*
X161332504Y-102398539D01*
X161315305Y-102397093D01*
X161278656Y-102395770D01*
X161224962Y-102394606D01*
X161156630Y-102393637D01*
X161076064Y-102392901D01*
X160985670Y-102392432D01*
X160887853Y-102392268D01*
X160442195Y-102392268D01*
X160439120Y-103569135D01*
X160436045Y-104746001D01*
X160409407Y-104804912D01*
X160397485Y-104829473D01*
X160380246Y-104859724D01*
X160367074Y-104876850D01*
X160359076Y-104884881D01*
X160351378Y-104899783D01*
X160059942Y-104899783D01*
X160059474Y-104807319D01*
X160059050Y-104691907D01*
X160058706Y-104561450D01*
X160058434Y-104415006D01*
X160058227Y-104251634D01*
X160058076Y-104070391D01*
X160057972Y-103870338D01*
X160057908Y-103650531D01*
X160057876Y-103410029D01*
X160057867Y-103147892D01*
X160057867Y-100956321D01*
X160096249Y-100917939D01*
X160123355Y-100894201D01*
X160150253Y-100882401D01*
X160186560Y-100879557D01*
X160238489Y-100879557D01*
X160238489Y-100967496D01*
X160240427Y-101017392D01*
X160259199Y-101127813D01*
X160296217Y-101229277D01*
X160349369Y-101320442D01*
X160416546Y-101399963D01*
X160495638Y-101466495D01*
X160584534Y-101518696D01*
X160681125Y-101555220D01*
X160783300Y-101574724D01*
X160888950Y-101575863D01*
X160995964Y-101557295D01*
X161102232Y-101517674D01*
X161199219Y-101459806D01*
X161284293Y-101384974D01*
X161353015Y-101296905D01*
X161403918Y-101197906D01*
X161435535Y-101090283D01*
X161446400Y-100976344D01*
X161446400Y-100879557D01*
X163066753Y-100879557D01*
X163277897Y-100879570D01*
X163482020Y-100879620D01*
X163665686Y-100879720D01*
X163829991Y-100879882D01*
X163976029Y-100880119D01*
X164104894Y-100880443D01*
X164217683Y-100880865D01*
X164315488Y-100881399D01*
X164399404Y-100882057D01*
X164470527Y-100882851D01*
X164529950Y-100883794D01*
X164578768Y-100884898D01*
X164618077Y-100886174D01*
X164648969Y-100887637D01*
X164672541Y-100889297D01*
X164689886Y-100891168D01*
X164702099Y-100893262D01*
X164710275Y-100895590D01*
X164715508Y-100898166D01*
X164721504Y-100901735D01*
X164728279Y-100905268D01*
X164734478Y-100908778D01*
X164740126Y-100913208D01*
X164745247Y-100919498D01*
X164749869Y-100928591D01*
X164754015Y-100941429D01*
X164757713Y-100958952D01*
X164760987Y-100982103D01*
X164763863Y-101011824D01*
X164766367Y-101049055D01*
X164768524Y-101094739D01*
X164770360Y-101149817D01*
X164771900Y-101215231D01*
X164773170Y-101291923D01*
X164774195Y-101380834D01*
X164775001Y-101482907D01*
X164775034Y-101489157D01*
X164775614Y-101599082D01*
G37*
X157227755Y-104130757D02*
X157227261Y-104164653D01*
X157223632Y-104239492D01*
X157216022Y-104301691D01*
X157203688Y-104358274D01*
X157159313Y-104484366D01*
X157096400Y-104598969D01*
X157016238Y-104699858D01*
X156919740Y-104786214D01*
X156807822Y-104857222D01*
X156681397Y-104912066D01*
X156541378Y-104949928D01*
X156505149Y-104955641D01*
X156426155Y-104961603D01*
X156337841Y-104961936D01*
X156248075Y-104956949D01*
X156164722Y-104946956D01*
X156095651Y-104932268D01*
X156009187Y-104902039D01*
X155899286Y-104847347D01*
X155801956Y-104779833D01*
X155739867Y-104728846D01*
X155736605Y-104824912D01*
X155733343Y-104920979D01*
X155310450Y-104920979D01*
X155299543Y-104920976D01*
X155205056Y-104920670D01*
X155118331Y-104919906D01*
X155041837Y-104918741D01*
X154978043Y-104917232D01*
X154929418Y-104915437D01*
X154898433Y-104913411D01*
X154887556Y-104911212D01*
X154887578Y-104910753D01*
X154894614Y-104895200D01*
X154910434Y-104872361D01*
X154914734Y-104866928D01*
X154925777Y-104852896D01*
X154935311Y-104839476D01*
X154943461Y-104825012D01*
X154950352Y-104807846D01*
X154956111Y-104786324D01*
X154960862Y-104758788D01*
X154964731Y-104723582D01*
X154967844Y-104679050D01*
X154970325Y-104623536D01*
X154972300Y-104555383D01*
X154973894Y-104472935D01*
X154975234Y-104374536D01*
X154976444Y-104258529D01*
X154977649Y-104123258D01*
X154978595Y-104011876D01*
X155779378Y-104011876D01*
X155779378Y-104207752D01*
X155824048Y-104264263D01*
X155836785Y-104279502D01*
X155883604Y-104322134D01*
X155944255Y-104357962D01*
X155954897Y-104363140D01*
X155993676Y-104380035D01*
X156028692Y-104390199D01*
X156068722Y-104395615D01*
X156122541Y-104398268D01*
X156140648Y-104398673D01*
X156216011Y-104395830D01*
X156276743Y-104383910D01*
X156328452Y-104361327D01*
X156376746Y-104326501D01*
X156381803Y-104322088D01*
X156430272Y-104266450D01*
X156458459Y-104202623D01*
X156467752Y-104127572D01*
X156460520Y-104055983D01*
X156435796Y-103992935D01*
X156391249Y-103935048D01*
X156336319Y-103888098D01*
X156263894Y-103848251D01*
X156177340Y-103820553D01*
X156074670Y-103804386D01*
X155953894Y-103799132D01*
X155945007Y-103799147D01*
X155889660Y-103799945D01*
X155842736Y-103801778D01*
X155808953Y-103804401D01*
X155793028Y-103807564D01*
X155788943Y-103814031D01*
X155784572Y-103836165D01*
X155781604Y-103875278D01*
X155779914Y-103933229D01*
X155779378Y-104011876D01*
X154978595Y-104011876D01*
X154978975Y-103967068D01*
X154980228Y-103824302D01*
X154981651Y-103679232D01*
X154983176Y-103553317D01*
X154984933Y-103444726D01*
X154987051Y-103351624D01*
X154989660Y-103272181D01*
X154992890Y-103204563D01*
X154996869Y-103146939D01*
X155001728Y-103097475D01*
X155007597Y-103054340D01*
X155014604Y-103015700D01*
X155022880Y-102979724D01*
X155032554Y-102944579D01*
X155043756Y-102908432D01*
X155056616Y-102869451D01*
X155072090Y-102826381D01*
X155114994Y-102734161D01*
X155168735Y-102654389D01*
X155237576Y-102580255D01*
X155315185Y-102516695D01*
X155419761Y-102455015D01*
X155539244Y-102407492D01*
X155674508Y-102373857D01*
X155826426Y-102353842D01*
X155995872Y-102347179D01*
X156053890Y-102347577D01*
X156119398Y-102349625D01*
X156180693Y-102353994D01*
X156242097Y-102361325D01*
X156307932Y-102372259D01*
X156382520Y-102387437D01*
X156470184Y-102407499D01*
X156575245Y-102433087D01*
X156603806Y-102440110D01*
X156679054Y-102458066D01*
X156749388Y-102474110D01*
X156810567Y-102487318D01*
X156858354Y-102496764D01*
X156888511Y-102501521D01*
X156916783Y-102505200D01*
X156943060Y-102510477D01*
X156953059Y-102515232D01*
X156949952Y-102524071D01*
X156939194Y-102551362D01*
X156921864Y-102594196D01*
X156899126Y-102649715D01*
X156872147Y-102715062D01*
X156842090Y-102787379D01*
X156835493Y-102803169D01*
X156796907Y-102893774D01*
X156765768Y-102963507D01*
X156741917Y-103012695D01*
X156725198Y-103041664D01*
X156715454Y-103050742D01*
X156707766Y-103048695D01*
X156681415Y-103039050D01*
X156642982Y-103023480D01*
X156597822Y-103004105D01*
X156503293Y-102966104D01*
X156366480Y-102925070D01*
X156225289Y-102899902D01*
X156187314Y-102895901D01*
X156084059Y-102893737D01*
X155996952Y-102906912D01*
X155925129Y-102936046D01*
X155867731Y-102981756D01*
X155823896Y-103044662D01*
X155792762Y-103125382D01*
X155773470Y-103224535D01*
X155766050Y-103283514D01*
X155927936Y-103276735D01*
X156054495Y-103275103D01*
X156205951Y-103281484D01*
X156354396Y-103296067D01*
X156490578Y-103318172D01*
X156555245Y-103333111D01*
X156687490Y-103376031D01*
X156809762Y-103432630D01*
X156919685Y-103501307D01*
X157014883Y-103580460D01*
X157092980Y-103668486D01*
X157151599Y-103763783D01*
X157175595Y-103816154D01*
X157201232Y-103886880D01*
X157217478Y-103958102D01*
X157225822Y-104037002D01*
X157227690Y-104127572D01*
X157227755Y-104130757D01*
G36*
X157227755Y-104130757D02*
G01*
X157227261Y-104164653D01*
X157223632Y-104239492D01*
X157216022Y-104301691D01*
X157203688Y-104358274D01*
X157159313Y-104484366D01*
X157096400Y-104598969D01*
X157016238Y-104699858D01*
X156919740Y-104786214D01*
X156807822Y-104857222D01*
X156681397Y-104912066D01*
X156541378Y-104949928D01*
X156505149Y-104955641D01*
X156426155Y-104961603D01*
X156337841Y-104961936D01*
X156248075Y-104956949D01*
X156164722Y-104946956D01*
X156095651Y-104932268D01*
X156009187Y-104902039D01*
X155899286Y-104847347D01*
X155801956Y-104779833D01*
X155739867Y-104728846D01*
X155736605Y-104824912D01*
X155733343Y-104920979D01*
X155310450Y-104920979D01*
X155299543Y-104920976D01*
X155205056Y-104920670D01*
X155118331Y-104919906D01*
X155041837Y-104918741D01*
X154978043Y-104917232D01*
X154929418Y-104915437D01*
X154898433Y-104913411D01*
X154887556Y-104911212D01*
X154887578Y-104910753D01*
X154894614Y-104895200D01*
X154910434Y-104872361D01*
X154914734Y-104866928D01*
X154925777Y-104852896D01*
X154935311Y-104839476D01*
X154943461Y-104825012D01*
X154950352Y-104807846D01*
X154956111Y-104786324D01*
X154960862Y-104758788D01*
X154964731Y-104723582D01*
X154967844Y-104679050D01*
X154970325Y-104623536D01*
X154972300Y-104555383D01*
X154973894Y-104472935D01*
X154975234Y-104374536D01*
X154976444Y-104258529D01*
X154977649Y-104123258D01*
X154978595Y-104011876D01*
X155779378Y-104011876D01*
X155779378Y-104207752D01*
X155824048Y-104264263D01*
X155836785Y-104279502D01*
X155883604Y-104322134D01*
X155944255Y-104357962D01*
X155954897Y-104363140D01*
X155993676Y-104380035D01*
X156028692Y-104390199D01*
X156068722Y-104395615D01*
X156122541Y-104398268D01*
X156140648Y-104398673D01*
X156216011Y-104395830D01*
X156276743Y-104383910D01*
X156328452Y-104361327D01*
X156376746Y-104326501D01*
X156381803Y-104322088D01*
X156430272Y-104266450D01*
X156458459Y-104202623D01*
X156467752Y-104127572D01*
X156460520Y-104055983D01*
X156435796Y-103992935D01*
X156391249Y-103935048D01*
X156336319Y-103888098D01*
X156263894Y-103848251D01*
X156177340Y-103820553D01*
X156074670Y-103804386D01*
X155953894Y-103799132D01*
X155945007Y-103799147D01*
X155889660Y-103799945D01*
X155842736Y-103801778D01*
X155808953Y-103804401D01*
X155793028Y-103807564D01*
X155788943Y-103814031D01*
X155784572Y-103836165D01*
X155781604Y-103875278D01*
X155779914Y-103933229D01*
X155779378Y-104011876D01*
X154978595Y-104011876D01*
X154978975Y-103967068D01*
X154980228Y-103824302D01*
X154981651Y-103679232D01*
X154983176Y-103553317D01*
X154984933Y-103444726D01*
X154987051Y-103351624D01*
X154989660Y-103272181D01*
X154992890Y-103204563D01*
X154996869Y-103146939D01*
X155001728Y-103097475D01*
X155007597Y-103054340D01*
X155014604Y-103015700D01*
X155022880Y-102979724D01*
X155032554Y-102944579D01*
X155043756Y-102908432D01*
X155056616Y-102869451D01*
X155072090Y-102826381D01*
X155114994Y-102734161D01*
X155168735Y-102654389D01*
X155237576Y-102580255D01*
X155315185Y-102516695D01*
X155419761Y-102455015D01*
X155539244Y-102407492D01*
X155674508Y-102373857D01*
X155826426Y-102353842D01*
X155995872Y-102347179D01*
X156053890Y-102347577D01*
X156119398Y-102349625D01*
X156180693Y-102353994D01*
X156242097Y-102361325D01*
X156307932Y-102372259D01*
X156382520Y-102387437D01*
X156470184Y-102407499D01*
X156575245Y-102433087D01*
X156603806Y-102440110D01*
X156679054Y-102458066D01*
X156749388Y-102474110D01*
X156810567Y-102487318D01*
X156858354Y-102496764D01*
X156888511Y-102501521D01*
X156916783Y-102505200D01*
X156943060Y-102510477D01*
X156953059Y-102515232D01*
X156949952Y-102524071D01*
X156939194Y-102551362D01*
X156921864Y-102594196D01*
X156899126Y-102649715D01*
X156872147Y-102715062D01*
X156842090Y-102787379D01*
X156835493Y-102803169D01*
X156796907Y-102893774D01*
X156765768Y-102963507D01*
X156741917Y-103012695D01*
X156725198Y-103041664D01*
X156715454Y-103050742D01*
X156707766Y-103048695D01*
X156681415Y-103039050D01*
X156642982Y-103023480D01*
X156597822Y-103004105D01*
X156503293Y-102966104D01*
X156366480Y-102925070D01*
X156225289Y-102899902D01*
X156187314Y-102895901D01*
X156084059Y-102893737D01*
X155996952Y-102906912D01*
X155925129Y-102936046D01*
X155867731Y-102981756D01*
X155823896Y-103044662D01*
X155792762Y-103125382D01*
X155773470Y-103224535D01*
X155766050Y-103283514D01*
X155927936Y-103276735D01*
X156054495Y-103275103D01*
X156205951Y-103281484D01*
X156354396Y-103296067D01*
X156490578Y-103318172D01*
X156555245Y-103333111D01*
X156687490Y-103376031D01*
X156809762Y-103432630D01*
X156919685Y-103501307D01*
X157014883Y-103580460D01*
X157092980Y-103668486D01*
X157151599Y-103763783D01*
X157175595Y-103816154D01*
X157201232Y-103886880D01*
X157217478Y-103958102D01*
X157225822Y-104037002D01*
X157227690Y-104127572D01*
X157227755Y-104130757D01*
G37*
X154685994Y-103730001D02*
X154685268Y-103807448D01*
X154676689Y-103958884D01*
X154657833Y-104095573D01*
X154627837Y-104221566D01*
X154585836Y-104340915D01*
X154530969Y-104457671D01*
X154464167Y-104568469D01*
X154373363Y-104682029D01*
X154269708Y-104777501D01*
X154153887Y-104854363D01*
X154026586Y-104912087D01*
X153888489Y-104950148D01*
X153850793Y-104955956D01*
X153771752Y-104961686D01*
X153683629Y-104961873D01*
X153594236Y-104956829D01*
X153511384Y-104946868D01*
X153442887Y-104932302D01*
X153412035Y-104922654D01*
X153334730Y-104892413D01*
X153257679Y-104854907D01*
X153188200Y-104813904D01*
X153133615Y-104773169D01*
X153110916Y-104753795D01*
X153088201Y-104735952D01*
X153076779Y-104729068D01*
X153075537Y-104730714D01*
X153072728Y-104748495D01*
X153070776Y-104781660D01*
X153070045Y-104825023D01*
X153070045Y-104920979D01*
X152211896Y-104920979D01*
X152246161Y-104860264D01*
X152251355Y-104851158D01*
X152259715Y-104836539D01*
X152267288Y-104822463D01*
X152274112Y-104807830D01*
X152280227Y-104791539D01*
X152285673Y-104772488D01*
X152290487Y-104749576D01*
X152294708Y-104721703D01*
X152298377Y-104687768D01*
X152301531Y-104646669D01*
X152304211Y-104597305D01*
X152306454Y-104538576D01*
X152308299Y-104469380D01*
X152309787Y-104388616D01*
X152310955Y-104295184D01*
X152311844Y-104187982D01*
X152312491Y-104065910D01*
X152312936Y-103927866D01*
X152313218Y-103772749D01*
X152313375Y-103599458D01*
X152313448Y-103406893D01*
X152313474Y-103193952D01*
X152313485Y-103057820D01*
X153115200Y-103057820D01*
X153115200Y-104208011D01*
X153185756Y-104254379D01*
X153226417Y-104278081D01*
X153280546Y-104303929D01*
X153329689Y-104322119D01*
X153393165Y-104337841D01*
X153489331Y-104348831D01*
X153573900Y-104340655D01*
X153647219Y-104313095D01*
X153709637Y-104265932D01*
X153761502Y-104198948D01*
X153803160Y-104111923D01*
X153834962Y-104004640D01*
X153837545Y-103992299D01*
X153846000Y-103931062D01*
X153851663Y-103853982D01*
X153854576Y-103766292D01*
X153854783Y-103673224D01*
X153852330Y-103580010D01*
X153847261Y-103491884D01*
X153839619Y-103414078D01*
X153829448Y-103351823D01*
X153828167Y-103345956D01*
X153799126Y-103235411D01*
X153764610Y-103144865D01*
X153723456Y-103072243D01*
X153674499Y-103015471D01*
X153616574Y-102972474D01*
X153584620Y-102956905D01*
X153511784Y-102938012D01*
X153430443Y-102934755D01*
X153345319Y-102946679D01*
X153261133Y-102973330D01*
X153182608Y-103014252D01*
X153115200Y-103057820D01*
X152313485Y-103057820D01*
X152313493Y-102959535D01*
X152313689Y-101274668D01*
X153219017Y-101274668D01*
X153194585Y-101311357D01*
X153188318Y-101320937D01*
X153162208Y-101367271D01*
X153144469Y-101414392D01*
X153132908Y-101469541D01*
X153125331Y-101539957D01*
X153124839Y-101546940D01*
X153123062Y-101584931D01*
X153121444Y-101638866D01*
X153119999Y-101705993D01*
X153118740Y-101783561D01*
X153117680Y-101868818D01*
X153116829Y-101959014D01*
X153116203Y-102051397D01*
X153115812Y-102143215D01*
X153115670Y-102231717D01*
X153115790Y-102314152D01*
X153116183Y-102387769D01*
X153116862Y-102449816D01*
X153117841Y-102497541D01*
X153119132Y-102528194D01*
X153120747Y-102539023D01*
X153128957Y-102534623D01*
X153150647Y-102519652D01*
X153180014Y-102497738D01*
X153228879Y-102463526D01*
X153317125Y-102417004D01*
X153415916Y-102383336D01*
X153528510Y-102361521D01*
X153658164Y-102350555D01*
X153750670Y-102349509D01*
X153872011Y-102359304D01*
X153982099Y-102383464D01*
X154085389Y-102423075D01*
X154186338Y-102479222D01*
X154231503Y-102510173D01*
X154336911Y-102601405D01*
X154428538Y-102710396D01*
X154506332Y-102837016D01*
X154570241Y-102981135D01*
X154620214Y-103142622D01*
X154656198Y-103321349D01*
X154678143Y-103517185D01*
X154683900Y-103673224D01*
X154685994Y-103730001D01*
G36*
X154685994Y-103730001D02*
G01*
X154685268Y-103807448D01*
X154676689Y-103958884D01*
X154657833Y-104095573D01*
X154627837Y-104221566D01*
X154585836Y-104340915D01*
X154530969Y-104457671D01*
X154464167Y-104568469D01*
X154373363Y-104682029D01*
X154269708Y-104777501D01*
X154153887Y-104854363D01*
X154026586Y-104912087D01*
X153888489Y-104950148D01*
X153850793Y-104955956D01*
X153771752Y-104961686D01*
X153683629Y-104961873D01*
X153594236Y-104956829D01*
X153511384Y-104946868D01*
X153442887Y-104932302D01*
X153412035Y-104922654D01*
X153334730Y-104892413D01*
X153257679Y-104854907D01*
X153188200Y-104813904D01*
X153133615Y-104773169D01*
X153110916Y-104753795D01*
X153088201Y-104735952D01*
X153076779Y-104729068D01*
X153075537Y-104730714D01*
X153072728Y-104748495D01*
X153070776Y-104781660D01*
X153070045Y-104825023D01*
X153070045Y-104920979D01*
X152211896Y-104920979D01*
X152246161Y-104860264D01*
X152251355Y-104851158D01*
X152259715Y-104836539D01*
X152267288Y-104822463D01*
X152274112Y-104807830D01*
X152280227Y-104791539D01*
X152285673Y-104772488D01*
X152290487Y-104749576D01*
X152294708Y-104721703D01*
X152298377Y-104687768D01*
X152301531Y-104646669D01*
X152304211Y-104597305D01*
X152306454Y-104538576D01*
X152308299Y-104469380D01*
X152309787Y-104388616D01*
X152310955Y-104295184D01*
X152311844Y-104187982D01*
X152312491Y-104065910D01*
X152312936Y-103927866D01*
X152313218Y-103772749D01*
X152313375Y-103599458D01*
X152313448Y-103406893D01*
X152313474Y-103193952D01*
X152313485Y-103057820D01*
X153115200Y-103057820D01*
X153115200Y-104208011D01*
X153185756Y-104254379D01*
X153226417Y-104278081D01*
X153280546Y-104303929D01*
X153329689Y-104322119D01*
X153393165Y-104337841D01*
X153489331Y-104348831D01*
X153573900Y-104340655D01*
X153647219Y-104313095D01*
X153709637Y-104265932D01*
X153761502Y-104198948D01*
X153803160Y-104111923D01*
X153834962Y-104004640D01*
X153837545Y-103992299D01*
X153846000Y-103931062D01*
X153851663Y-103853982D01*
X153854576Y-103766292D01*
X153854783Y-103673224D01*
X153852330Y-103580010D01*
X153847261Y-103491884D01*
X153839619Y-103414078D01*
X153829448Y-103351823D01*
X153828167Y-103345956D01*
X153799126Y-103235411D01*
X153764610Y-103144865D01*
X153723456Y-103072243D01*
X153674499Y-103015471D01*
X153616574Y-102972474D01*
X153584620Y-102956905D01*
X153511784Y-102938012D01*
X153430443Y-102934755D01*
X153345319Y-102946679D01*
X153261133Y-102973330D01*
X153182608Y-103014252D01*
X153115200Y-103057820D01*
X152313485Y-103057820D01*
X152313493Y-102959535D01*
X152313689Y-101274668D01*
X153219017Y-101274668D01*
X153194585Y-101311357D01*
X153188318Y-101320937D01*
X153162208Y-101367271D01*
X153144469Y-101414392D01*
X153132908Y-101469541D01*
X153125331Y-101539957D01*
X153124839Y-101546940D01*
X153123062Y-101584931D01*
X153121444Y-101638866D01*
X153119999Y-101705993D01*
X153118740Y-101783561D01*
X153117680Y-101868818D01*
X153116829Y-101959014D01*
X153116203Y-102051397D01*
X153115812Y-102143215D01*
X153115670Y-102231717D01*
X153115790Y-102314152D01*
X153116183Y-102387769D01*
X153116862Y-102449816D01*
X153117841Y-102497541D01*
X153119132Y-102528194D01*
X153120747Y-102539023D01*
X153128957Y-102534623D01*
X153150647Y-102519652D01*
X153180014Y-102497738D01*
X153228879Y-102463526D01*
X153317125Y-102417004D01*
X153415916Y-102383336D01*
X153528510Y-102361521D01*
X153658164Y-102350555D01*
X153750670Y-102349509D01*
X153872011Y-102359304D01*
X153982099Y-102383464D01*
X154085389Y-102423075D01*
X154186338Y-102479222D01*
X154231503Y-102510173D01*
X154336911Y-102601405D01*
X154428538Y-102710396D01*
X154506332Y-102837016D01*
X154570241Y-102981135D01*
X154620214Y-103142622D01*
X154656198Y-103321349D01*
X154678143Y-103517185D01*
X154683900Y-103673224D01*
X154685994Y-103730001D01*
G37*
X158488711Y-101449323D02*
X158584268Y-101466813D01*
X158748558Y-101511854D01*
X158902589Y-101574946D01*
X159048509Y-101657205D01*
X159188466Y-101759747D01*
X159324608Y-101883689D01*
X159368473Y-101928951D01*
X159480758Y-102061155D01*
X159573972Y-102199122D01*
X159650719Y-102347040D01*
X159713603Y-102509093D01*
X159717420Y-102520681D01*
X159767507Y-102706682D01*
X159800899Y-102902811D01*
X159817584Y-103104858D01*
X159817551Y-103308615D01*
X159800791Y-103509871D01*
X159767292Y-103704418D01*
X159717044Y-103888046D01*
X159673190Y-104005343D01*
X159595348Y-104168241D01*
X159501828Y-104322156D01*
X159394822Y-104463961D01*
X159276519Y-104590529D01*
X159149111Y-104698731D01*
X159071606Y-104751410D01*
X158944725Y-104821040D01*
X158807243Y-104879758D01*
X158665716Y-104924877D01*
X158526702Y-104953712D01*
X158512597Y-104955396D01*
X158469153Y-104958724D01*
X158411723Y-104961565D01*
X158346122Y-104963663D01*
X158278167Y-104964758D01*
X158151378Y-104962430D01*
X158003673Y-104949426D01*
X157865779Y-104924423D01*
X157732014Y-104886608D01*
X157708562Y-104878179D01*
X157660612Y-104858698D01*
X157604140Y-104833763D01*
X157542379Y-104805012D01*
X157478563Y-104774080D01*
X157415926Y-104742605D01*
X157357703Y-104712224D01*
X157307127Y-104684573D01*
X157267433Y-104661289D01*
X157241854Y-104644008D01*
X157233625Y-104634369D01*
X157235076Y-104631274D01*
X157246250Y-104611369D01*
X157267134Y-104575710D01*
X157296265Y-104526749D01*
X157332181Y-104466936D01*
X157373420Y-104398723D01*
X157418517Y-104324561D01*
X157599785Y-104027298D01*
X157646315Y-104071829D01*
X157737723Y-104150155D01*
X157851334Y-104224729D01*
X157969122Y-104278764D01*
X158089559Y-104311580D01*
X158211117Y-104322501D01*
X158252585Y-104321158D01*
X158370080Y-104302902D01*
X158480089Y-104263907D01*
X158581430Y-104204960D01*
X158672921Y-104126847D01*
X158753380Y-104030354D01*
X158821627Y-103916268D01*
X158837908Y-103882014D01*
X158883982Y-103758530D01*
X158919106Y-103620208D01*
X158943197Y-103470851D01*
X158956173Y-103314263D01*
X158957949Y-103154246D01*
X158948443Y-102994604D01*
X158927572Y-102839140D01*
X158895252Y-102691656D01*
X158851399Y-102555957D01*
X158813982Y-102469366D01*
X158749185Y-102355978D01*
X158673772Y-102262360D01*
X158587418Y-102188249D01*
X158489795Y-102133384D01*
X158380577Y-102097502D01*
X158259439Y-102080341D01*
X158190038Y-102079170D01*
X158067168Y-102093431D01*
X157951664Y-102128531D01*
X157844953Y-102183972D01*
X157748464Y-102259254D01*
X157732720Y-102273730D01*
X157702150Y-102300252D01*
X157679809Y-102317428D01*
X157669691Y-102322077D01*
X157667706Y-102319887D01*
X157653241Y-102301011D01*
X157629400Y-102267687D01*
X157598029Y-102222670D01*
X157560974Y-102168715D01*
X157520083Y-102108575D01*
X157477202Y-102045008D01*
X157434178Y-101980766D01*
X157392857Y-101918605D01*
X157355086Y-101861281D01*
X157322712Y-101811547D01*
X157297582Y-101772158D01*
X157281542Y-101745870D01*
X157276439Y-101735437D01*
X157281050Y-101731231D01*
X157300267Y-101726223D01*
X157309838Y-101723676D01*
X157337809Y-101712539D01*
X157379448Y-101694092D01*
X157430995Y-101670015D01*
X157488690Y-101641989D01*
X157499957Y-101636444D01*
X157677687Y-101557179D01*
X157847490Y-101497675D01*
X158011430Y-101457535D01*
X158171571Y-101436361D01*
X158329977Y-101433756D01*
X158488711Y-101449323D01*
G36*
X158488711Y-101449323D02*
G01*
X158584268Y-101466813D01*
X158748558Y-101511854D01*
X158902589Y-101574946D01*
X159048509Y-101657205D01*
X159188466Y-101759747D01*
X159324608Y-101883689D01*
X159368473Y-101928951D01*
X159480758Y-102061155D01*
X159573972Y-102199122D01*
X159650719Y-102347040D01*
X159713603Y-102509093D01*
X159717420Y-102520681D01*
X159767507Y-102706682D01*
X159800899Y-102902811D01*
X159817584Y-103104858D01*
X159817551Y-103308615D01*
X159800791Y-103509871D01*
X159767292Y-103704418D01*
X159717044Y-103888046D01*
X159673190Y-104005343D01*
X159595348Y-104168241D01*
X159501828Y-104322156D01*
X159394822Y-104463961D01*
X159276519Y-104590529D01*
X159149111Y-104698731D01*
X159071606Y-104751410D01*
X158944725Y-104821040D01*
X158807243Y-104879758D01*
X158665716Y-104924877D01*
X158526702Y-104953712D01*
X158512597Y-104955396D01*
X158469153Y-104958724D01*
X158411723Y-104961565D01*
X158346122Y-104963663D01*
X158278167Y-104964758D01*
X158151378Y-104962430D01*
X158003673Y-104949426D01*
X157865779Y-104924423D01*
X157732014Y-104886608D01*
X157708562Y-104878179D01*
X157660612Y-104858698D01*
X157604140Y-104833763D01*
X157542379Y-104805012D01*
X157478563Y-104774080D01*
X157415926Y-104742605D01*
X157357703Y-104712224D01*
X157307127Y-104684573D01*
X157267433Y-104661289D01*
X157241854Y-104644008D01*
X157233625Y-104634369D01*
X157235076Y-104631274D01*
X157246250Y-104611369D01*
X157267134Y-104575710D01*
X157296265Y-104526749D01*
X157332181Y-104466936D01*
X157373420Y-104398723D01*
X157418517Y-104324561D01*
X157599785Y-104027298D01*
X157646315Y-104071829D01*
X157737723Y-104150155D01*
X157851334Y-104224729D01*
X157969122Y-104278764D01*
X158089559Y-104311580D01*
X158211117Y-104322501D01*
X158252585Y-104321158D01*
X158370080Y-104302902D01*
X158480089Y-104263907D01*
X158581430Y-104204960D01*
X158672921Y-104126847D01*
X158753380Y-104030354D01*
X158821627Y-103916268D01*
X158837908Y-103882014D01*
X158883982Y-103758530D01*
X158919106Y-103620208D01*
X158943197Y-103470851D01*
X158956173Y-103314263D01*
X158957949Y-103154246D01*
X158948443Y-102994604D01*
X158927572Y-102839140D01*
X158895252Y-102691656D01*
X158851399Y-102555957D01*
X158813982Y-102469366D01*
X158749185Y-102355978D01*
X158673772Y-102262360D01*
X158587418Y-102188249D01*
X158489795Y-102133384D01*
X158380577Y-102097502D01*
X158259439Y-102080341D01*
X158190038Y-102079170D01*
X158067168Y-102093431D01*
X157951664Y-102128531D01*
X157844953Y-102183972D01*
X157748464Y-102259254D01*
X157732720Y-102273730D01*
X157702150Y-102300252D01*
X157679809Y-102317428D01*
X157669691Y-102322077D01*
X157667706Y-102319887D01*
X157653241Y-102301011D01*
X157629400Y-102267687D01*
X157598029Y-102222670D01*
X157560974Y-102168715D01*
X157520083Y-102108575D01*
X157477202Y-102045008D01*
X157434178Y-101980766D01*
X157392857Y-101918605D01*
X157355086Y-101861281D01*
X157322712Y-101811547D01*
X157297582Y-101772158D01*
X157281542Y-101745870D01*
X157276439Y-101735437D01*
X157281050Y-101731231D01*
X157300267Y-101726223D01*
X157309838Y-101723676D01*
X157337809Y-101712539D01*
X157379448Y-101694092D01*
X157430995Y-101670015D01*
X157488690Y-101641989D01*
X157499957Y-101636444D01*
X157677687Y-101557179D01*
X157847490Y-101497675D01*
X158011430Y-101457535D01*
X158171571Y-101436361D01*
X158329977Y-101433756D01*
X158488711Y-101449323D01*
G37*
X162340853Y-105757226D02*
X162407100Y-105762656D01*
X162462400Y-105772254D01*
X162513283Y-105787115D01*
X162584595Y-105820248D01*
X162635752Y-105862930D01*
X162666575Y-105914995D01*
X162676889Y-105976273D01*
X162675952Y-106007522D01*
X162670160Y-106032319D01*
X162655353Y-106053989D01*
X162627380Y-106081339D01*
X162619402Y-106088668D01*
X162595692Y-106109571D01*
X162573298Y-106126541D01*
X162549265Y-106140495D01*
X162520637Y-106152346D01*
X162484460Y-106163010D01*
X162437780Y-106173401D01*
X162377641Y-106184436D01*
X162301090Y-106197028D01*
X162205171Y-106212094D01*
X162186808Y-106215128D01*
X162124478Y-106228748D01*
X162079260Y-106244482D01*
X162052976Y-106261553D01*
X162047447Y-106279187D01*
X162050068Y-106283458D01*
X162068000Y-106298523D01*
X162096126Y-106315157D01*
X162108926Y-106321147D01*
X162130224Y-106328340D01*
X162156610Y-106333117D01*
X162192454Y-106335936D01*
X162242128Y-106337254D01*
X162310000Y-106337527D01*
X162327785Y-106337454D01*
X162395406Y-106336343D01*
X162460345Y-106334118D01*
X162515970Y-106331052D01*
X162555651Y-106327417D01*
X162591162Y-106323349D01*
X162620415Y-106322566D01*
X162639315Y-106327166D01*
X162654429Y-106337841D01*
X162658085Y-106341434D01*
X162674427Y-106373208D01*
X162673107Y-106408862D01*
X162654150Y-106439480D01*
X162633780Y-106451086D01*
X162597796Y-106463781D01*
X162555372Y-106473831D01*
X162551922Y-106474430D01*
X162509252Y-106479646D01*
X162451866Y-106484020D01*
X162386849Y-106487108D01*
X162321289Y-106488467D01*
X162305057Y-106488508D01*
X162206744Y-106486031D01*
X162126692Y-106478025D01*
X162061513Y-106463493D01*
X162007817Y-106441439D01*
X161962216Y-106410866D01*
X161921323Y-106370776D01*
X161901202Y-106344549D01*
X161889576Y-106315002D01*
X161886667Y-106275285D01*
X161886808Y-106263316D01*
X161890681Y-106230635D01*
X161903065Y-106204109D01*
X161928230Y-106173261D01*
X161949442Y-106151121D01*
X161975838Y-106128575D01*
X162005555Y-106110207D01*
X162041785Y-106094951D01*
X162087717Y-106081739D01*
X162146544Y-106069504D01*
X162221456Y-106057179D01*
X162315645Y-106043696D01*
X162360957Y-106036686D01*
X162428911Y-106022127D01*
X162478047Y-106005627D01*
X162507614Y-105987729D01*
X162516864Y-105968975D01*
X162505048Y-105949905D01*
X162471416Y-105931061D01*
X162468370Y-105929847D01*
X162422011Y-105917769D01*
X162359361Y-105909569D01*
X162285927Y-105905409D01*
X162207217Y-105905451D01*
X162128739Y-105909859D01*
X162056000Y-105918795D01*
X162052073Y-105919444D01*
X162003257Y-105927151D01*
X161971005Y-105930763D01*
X161950008Y-105930166D01*
X161934954Y-105925244D01*
X161920534Y-105915886D01*
X161919364Y-105915015D01*
X161894847Y-105884641D01*
X161890054Y-105849140D01*
X161905860Y-105814559D01*
X161910406Y-105810103D01*
X161940020Y-105794963D01*
X161987002Y-105781840D01*
X162047306Y-105771040D01*
X162116888Y-105762871D01*
X162191703Y-105757641D01*
X162267706Y-105755657D01*
X162340853Y-105757226D01*
G36*
X162340853Y-105757226D02*
G01*
X162407100Y-105762656D01*
X162462400Y-105772254D01*
X162513283Y-105787115D01*
X162584595Y-105820248D01*
X162635752Y-105862930D01*
X162666575Y-105914995D01*
X162676889Y-105976273D01*
X162675952Y-106007522D01*
X162670160Y-106032319D01*
X162655353Y-106053989D01*
X162627380Y-106081339D01*
X162619402Y-106088668D01*
X162595692Y-106109571D01*
X162573298Y-106126541D01*
X162549265Y-106140495D01*
X162520637Y-106152346D01*
X162484460Y-106163010D01*
X162437780Y-106173401D01*
X162377641Y-106184436D01*
X162301090Y-106197028D01*
X162205171Y-106212094D01*
X162186808Y-106215128D01*
X162124478Y-106228748D01*
X162079260Y-106244482D01*
X162052976Y-106261553D01*
X162047447Y-106279187D01*
X162050068Y-106283458D01*
X162068000Y-106298523D01*
X162096126Y-106315157D01*
X162108926Y-106321147D01*
X162130224Y-106328340D01*
X162156610Y-106333117D01*
X162192454Y-106335936D01*
X162242128Y-106337254D01*
X162310000Y-106337527D01*
X162327785Y-106337454D01*
X162395406Y-106336343D01*
X162460345Y-106334118D01*
X162515970Y-106331052D01*
X162555651Y-106327417D01*
X162591162Y-106323349D01*
X162620415Y-106322566D01*
X162639315Y-106327166D01*
X162654429Y-106337841D01*
X162658085Y-106341434D01*
X162674427Y-106373208D01*
X162673107Y-106408862D01*
X162654150Y-106439480D01*
X162633780Y-106451086D01*
X162597796Y-106463781D01*
X162555372Y-106473831D01*
X162551922Y-106474430D01*
X162509252Y-106479646D01*
X162451866Y-106484020D01*
X162386849Y-106487108D01*
X162321289Y-106488467D01*
X162305057Y-106488508D01*
X162206744Y-106486031D01*
X162126692Y-106478025D01*
X162061513Y-106463493D01*
X162007817Y-106441439D01*
X161962216Y-106410866D01*
X161921323Y-106370776D01*
X161901202Y-106344549D01*
X161889576Y-106315002D01*
X161886667Y-106275285D01*
X161886808Y-106263316D01*
X161890681Y-106230635D01*
X161903065Y-106204109D01*
X161928230Y-106173261D01*
X161949442Y-106151121D01*
X161975838Y-106128575D01*
X162005555Y-106110207D01*
X162041785Y-106094951D01*
X162087717Y-106081739D01*
X162146544Y-106069504D01*
X162221456Y-106057179D01*
X162315645Y-106043696D01*
X162360957Y-106036686D01*
X162428911Y-106022127D01*
X162478047Y-106005627D01*
X162507614Y-105987729D01*
X162516864Y-105968975D01*
X162505048Y-105949905D01*
X162471416Y-105931061D01*
X162468370Y-105929847D01*
X162422011Y-105917769D01*
X162359361Y-105909569D01*
X162285927Y-105905409D01*
X162207217Y-105905451D01*
X162128739Y-105909859D01*
X162056000Y-105918795D01*
X162052073Y-105919444D01*
X162003257Y-105927151D01*
X161971005Y-105930763D01*
X161950008Y-105930166D01*
X161934954Y-105925244D01*
X161920534Y-105915886D01*
X161919364Y-105915015D01*
X161894847Y-105884641D01*
X161890054Y-105849140D01*
X161905860Y-105814559D01*
X161910406Y-105810103D01*
X161940020Y-105794963D01*
X161987002Y-105781840D01*
X162047306Y-105771040D01*
X162116888Y-105762871D01*
X162191703Y-105757641D01*
X162267706Y-105755657D01*
X162340853Y-105757226D01*
G37*
X154789702Y-105765768D02*
X154807663Y-105784279D01*
X154828263Y-105815361D01*
X154853095Y-105861046D01*
X154883750Y-105923368D01*
X154921820Y-106004361D01*
X154936454Y-106035744D01*
X154966203Y-106098928D01*
X154992297Y-106153534D01*
X155013292Y-106196580D01*
X155027739Y-106225083D01*
X155034191Y-106236060D01*
X155035550Y-106235479D01*
X155045542Y-106221532D01*
X155062833Y-106191994D01*
X155085430Y-106150377D01*
X155111338Y-106100193D01*
X155127311Y-106068704D01*
X155156261Y-106013351D01*
X155178749Y-105974334D01*
X155196965Y-105948856D01*
X155213096Y-105934121D01*
X155229330Y-105927332D01*
X155247857Y-105925690D01*
X155258360Y-105926165D01*
X155274476Y-105930372D01*
X155289790Y-105941236D01*
X155306388Y-105961509D01*
X155326357Y-105993944D01*
X155351783Y-106041294D01*
X155384752Y-106106312D01*
X155394485Y-106125567D01*
X155418943Y-106172236D01*
X155439178Y-106208399D01*
X155453311Y-106230787D01*
X155459460Y-106236135D01*
X155460827Y-106232863D01*
X155470202Y-106211954D01*
X155487062Y-106175015D01*
X155509979Y-106125164D01*
X155537520Y-106065516D01*
X155568255Y-105999188D01*
X155594970Y-105941967D01*
X155624593Y-105879978D01*
X155647664Y-105834239D01*
X155665643Y-105802198D01*
X155679990Y-105781304D01*
X155692166Y-105769008D01*
X155703632Y-105762756D01*
X155713042Y-105759864D01*
X155738147Y-105759715D01*
X155765290Y-105775058D01*
X155766590Y-105776043D01*
X155788674Y-105798678D01*
X155799723Y-105820903D01*
X155799769Y-105821543D01*
X155795228Y-105839205D01*
X155782364Y-105873771D01*
X155762605Y-105922116D01*
X155737381Y-105981115D01*
X155708119Y-106047645D01*
X155676250Y-106118581D01*
X155643201Y-106190797D01*
X155610401Y-106261170D01*
X155579280Y-106326575D01*
X155551265Y-106383887D01*
X155527786Y-106429982D01*
X155510272Y-106461736D01*
X155500151Y-106476023D01*
X155465743Y-106489392D01*
X155424046Y-106483031D01*
X155418681Y-106478334D01*
X155402852Y-106456183D01*
X155380650Y-106419422D01*
X155354233Y-106371705D01*
X155325760Y-106316683D01*
X155245986Y-106157440D01*
X155172799Y-106304032D01*
X155163103Y-106323322D01*
X155136125Y-106375670D01*
X155112096Y-106420460D01*
X155093332Y-106453444D01*
X155082146Y-106470379D01*
X155081000Y-106471622D01*
X155052879Y-106486909D01*
X155017817Y-106488592D01*
X154986776Y-106476023D01*
X154984350Y-106473174D01*
X154972090Y-106452549D01*
X154952352Y-106414998D01*
X154926448Y-106363170D01*
X154895685Y-106299713D01*
X154861375Y-106227275D01*
X154824825Y-106148506D01*
X154804585Y-106104383D01*
X154767812Y-106023655D01*
X154739355Y-105959977D01*
X154718331Y-105911042D01*
X154703854Y-105874547D01*
X154695039Y-105848185D01*
X154691004Y-105829651D01*
X154690862Y-105816642D01*
X154693730Y-105806851D01*
X154708387Y-105785968D01*
X154734990Y-105765667D01*
X154735745Y-105765325D01*
X154755335Y-105758324D01*
X154772790Y-105757794D01*
X154789702Y-105765768D01*
G36*
X154789702Y-105765768D02*
G01*
X154807663Y-105784279D01*
X154828263Y-105815361D01*
X154853095Y-105861046D01*
X154883750Y-105923368D01*
X154921820Y-106004361D01*
X154936454Y-106035744D01*
X154966203Y-106098928D01*
X154992297Y-106153534D01*
X155013292Y-106196580D01*
X155027739Y-106225083D01*
X155034191Y-106236060D01*
X155035550Y-106235479D01*
X155045542Y-106221532D01*
X155062833Y-106191994D01*
X155085430Y-106150377D01*
X155111338Y-106100193D01*
X155127311Y-106068704D01*
X155156261Y-106013351D01*
X155178749Y-105974334D01*
X155196965Y-105948856D01*
X155213096Y-105934121D01*
X155229330Y-105927332D01*
X155247857Y-105925690D01*
X155258360Y-105926165D01*
X155274476Y-105930372D01*
X155289790Y-105941236D01*
X155306388Y-105961509D01*
X155326357Y-105993944D01*
X155351783Y-106041294D01*
X155384752Y-106106312D01*
X155394485Y-106125567D01*
X155418943Y-106172236D01*
X155439178Y-106208399D01*
X155453311Y-106230787D01*
X155459460Y-106236135D01*
X155460827Y-106232863D01*
X155470202Y-106211954D01*
X155487062Y-106175015D01*
X155509979Y-106125164D01*
X155537520Y-106065516D01*
X155568255Y-105999188D01*
X155594970Y-105941967D01*
X155624593Y-105879978D01*
X155647664Y-105834239D01*
X155665643Y-105802198D01*
X155679990Y-105781304D01*
X155692166Y-105769008D01*
X155703632Y-105762756D01*
X155713042Y-105759864D01*
X155738147Y-105759715D01*
X155765290Y-105775058D01*
X155766590Y-105776043D01*
X155788674Y-105798678D01*
X155799723Y-105820903D01*
X155799769Y-105821543D01*
X155795228Y-105839205D01*
X155782364Y-105873771D01*
X155762605Y-105922116D01*
X155737381Y-105981115D01*
X155708119Y-106047645D01*
X155676250Y-106118581D01*
X155643201Y-106190797D01*
X155610401Y-106261170D01*
X155579280Y-106326575D01*
X155551265Y-106383887D01*
X155527786Y-106429982D01*
X155510272Y-106461736D01*
X155500151Y-106476023D01*
X155465743Y-106489392D01*
X155424046Y-106483031D01*
X155418681Y-106478334D01*
X155402852Y-106456183D01*
X155380650Y-106419422D01*
X155354233Y-106371705D01*
X155325760Y-106316683D01*
X155245986Y-106157440D01*
X155172799Y-106304032D01*
X155163103Y-106323322D01*
X155136125Y-106375670D01*
X155112096Y-106420460D01*
X155093332Y-106453444D01*
X155082146Y-106470379D01*
X155081000Y-106471622D01*
X155052879Y-106486909D01*
X155017817Y-106488592D01*
X154986776Y-106476023D01*
X154984350Y-106473174D01*
X154972090Y-106452549D01*
X154952352Y-106414998D01*
X154926448Y-106363170D01*
X154895685Y-106299713D01*
X154861375Y-106227275D01*
X154824825Y-106148506D01*
X154804585Y-106104383D01*
X154767812Y-106023655D01*
X154739355Y-105959977D01*
X154718331Y-105911042D01*
X154703854Y-105874547D01*
X154695039Y-105848185D01*
X154691004Y-105829651D01*
X154690862Y-105816642D01*
X154693730Y-105806851D01*
X154708387Y-105785968D01*
X154734990Y-105765667D01*
X154735745Y-105765325D01*
X154755335Y-105758324D01*
X154772790Y-105757794D01*
X154789702Y-105765768D01*
G37*
X163356734Y-105756373D02*
X163433831Y-105756565D01*
X163492777Y-105757150D01*
X163536364Y-105758341D01*
X163567383Y-105760354D01*
X163588625Y-105763402D01*
X163602882Y-105767699D01*
X163612945Y-105773462D01*
X163621606Y-105780902D01*
X163623391Y-105782583D01*
X163630635Y-105790122D01*
X163636277Y-105799140D01*
X163640517Y-105812274D01*
X163643556Y-105832162D01*
X163645594Y-105861441D01*
X163646830Y-105902748D01*
X163647465Y-105958721D01*
X163647700Y-106031997D01*
X163647734Y-106125213D01*
X163647697Y-106198003D01*
X163647448Y-106276179D01*
X163646812Y-106336393D01*
X163645615Y-106381272D01*
X163643684Y-106413442D01*
X163640846Y-106435529D01*
X163636927Y-106450160D01*
X163631755Y-106459960D01*
X163625156Y-106467557D01*
X163621822Y-106470734D01*
X163613300Y-106476844D01*
X163601298Y-106481519D01*
X163583087Y-106484949D01*
X163555940Y-106487326D01*
X163517129Y-106488842D01*
X163463924Y-106489688D01*
X163393598Y-106490055D01*
X163303422Y-106490135D01*
X163261314Y-106490123D01*
X163180167Y-106489941D01*
X163117675Y-106489388D01*
X163071109Y-106488272D01*
X163037741Y-106486403D01*
X163014844Y-106483588D01*
X162999688Y-106479636D01*
X162989546Y-106474356D01*
X162981689Y-106467557D01*
X162966963Y-106445957D01*
X162959111Y-106416757D01*
X162964610Y-106392850D01*
X162981689Y-106365957D01*
X162986668Y-106361349D01*
X162996443Y-106355062D01*
X163010559Y-106350436D01*
X163032054Y-106347220D01*
X163063968Y-106345160D01*
X163109342Y-106344002D01*
X163171213Y-106343492D01*
X163252622Y-106343379D01*
X163500978Y-106343379D01*
X163500978Y-106185335D01*
X163339801Y-106185335D01*
X163303983Y-106185189D01*
X163238359Y-106183466D01*
X163191118Y-106179031D01*
X163159383Y-106170927D01*
X163140277Y-106158196D01*
X163130923Y-106139882D01*
X163128445Y-106115028D01*
X163129242Y-106094772D01*
X163134494Y-106072946D01*
X163147288Y-106057594D01*
X163170628Y-106047599D01*
X163207517Y-106041843D01*
X163260959Y-106039209D01*
X163333958Y-106038579D01*
X163502105Y-106038579D01*
X163498719Y-105973668D01*
X163495334Y-105908757D01*
X163247617Y-105905708D01*
X163185026Y-105904829D01*
X163116565Y-105903385D01*
X163065661Y-105901454D01*
X163029408Y-105898804D01*
X163004901Y-105895200D01*
X162989235Y-105890411D01*
X162979506Y-105884203D01*
X162973491Y-105877800D01*
X162960482Y-105846118D01*
X162964043Y-105810432D01*
X162983818Y-105779374D01*
X162987069Y-105776451D01*
X162996049Y-105770100D01*
X163008153Y-105765247D01*
X163026159Y-105761693D01*
X163052847Y-105759236D01*
X163090997Y-105757675D01*
X163143386Y-105756808D01*
X163212794Y-105756436D01*
X163302001Y-105756357D01*
X163356734Y-105756373D01*
G36*
X163356734Y-105756373D02*
G01*
X163433831Y-105756565D01*
X163492777Y-105757150D01*
X163536364Y-105758341D01*
X163567383Y-105760354D01*
X163588625Y-105763402D01*
X163602882Y-105767699D01*
X163612945Y-105773462D01*
X163621606Y-105780902D01*
X163623391Y-105782583D01*
X163630635Y-105790122D01*
X163636277Y-105799140D01*
X163640517Y-105812274D01*
X163643556Y-105832162D01*
X163645594Y-105861441D01*
X163646830Y-105902748D01*
X163647465Y-105958721D01*
X163647700Y-106031997D01*
X163647734Y-106125213D01*
X163647697Y-106198003D01*
X163647448Y-106276179D01*
X163646812Y-106336393D01*
X163645615Y-106381272D01*
X163643684Y-106413442D01*
X163640846Y-106435529D01*
X163636927Y-106450160D01*
X163631755Y-106459960D01*
X163625156Y-106467557D01*
X163621822Y-106470734D01*
X163613300Y-106476844D01*
X163601298Y-106481519D01*
X163583087Y-106484949D01*
X163555940Y-106487326D01*
X163517129Y-106488842D01*
X163463924Y-106489688D01*
X163393598Y-106490055D01*
X163303422Y-106490135D01*
X163261314Y-106490123D01*
X163180167Y-106489941D01*
X163117675Y-106489388D01*
X163071109Y-106488272D01*
X163037741Y-106486403D01*
X163014844Y-106483588D01*
X162999688Y-106479636D01*
X162989546Y-106474356D01*
X162981689Y-106467557D01*
X162966963Y-106445957D01*
X162959111Y-106416757D01*
X162964610Y-106392850D01*
X162981689Y-106365957D01*
X162986668Y-106361349D01*
X162996443Y-106355062D01*
X163010559Y-106350436D01*
X163032054Y-106347220D01*
X163063968Y-106345160D01*
X163109342Y-106344002D01*
X163171213Y-106343492D01*
X163252622Y-106343379D01*
X163500978Y-106343379D01*
X163500978Y-106185335D01*
X163339801Y-106185335D01*
X163303983Y-106185189D01*
X163238359Y-106183466D01*
X163191118Y-106179031D01*
X163159383Y-106170927D01*
X163140277Y-106158196D01*
X163130923Y-106139882D01*
X163128445Y-106115028D01*
X163129242Y-106094772D01*
X163134494Y-106072946D01*
X163147288Y-106057594D01*
X163170628Y-106047599D01*
X163207517Y-106041843D01*
X163260959Y-106039209D01*
X163333958Y-106038579D01*
X163502105Y-106038579D01*
X163498719Y-105973668D01*
X163495334Y-105908757D01*
X163247617Y-105905708D01*
X163185026Y-105904829D01*
X163116565Y-105903385D01*
X163065661Y-105901454D01*
X163029408Y-105898804D01*
X163004901Y-105895200D01*
X162989235Y-105890411D01*
X162979506Y-105884203D01*
X162973491Y-105877800D01*
X162960482Y-105846118D01*
X162964043Y-105810432D01*
X162983818Y-105779374D01*
X162987069Y-105776451D01*
X162996049Y-105770100D01*
X163008153Y-105765247D01*
X163026159Y-105761693D01*
X163052847Y-105759236D01*
X163090997Y-105757675D01*
X163143386Y-105756808D01*
X163212794Y-105756436D01*
X163302001Y-105756357D01*
X163356734Y-105756373D01*
G37*
X158679803Y-105786101D02*
X158684752Y-105792785D01*
X158690596Y-105803356D01*
X158695057Y-105817443D01*
X158698321Y-105837768D01*
X158700574Y-105867055D01*
X158702002Y-105908027D01*
X158702792Y-105963407D01*
X158703129Y-106035918D01*
X158703200Y-106128284D01*
X158703171Y-106194201D01*
X158702939Y-106272518D01*
X158702319Y-106332786D01*
X158701126Y-106377683D01*
X158699179Y-106409892D01*
X158696294Y-106432090D01*
X158692288Y-106446959D01*
X158686979Y-106457179D01*
X158680183Y-106465428D01*
X158675668Y-106470085D01*
X158667438Y-106476572D01*
X158656078Y-106481484D01*
X158638810Y-106485039D01*
X158612855Y-106487457D01*
X158575436Y-106488957D01*
X158523773Y-106489757D01*
X158455089Y-106490077D01*
X158366606Y-106490135D01*
X158346931Y-106490128D01*
X158259906Y-106489862D01*
X158192254Y-106489096D01*
X158141299Y-106487682D01*
X158104367Y-106485470D01*
X158078783Y-106482312D01*
X158061871Y-106478059D01*
X158050957Y-106472561D01*
X158040464Y-106462575D01*
X158027203Y-106431458D01*
X158028386Y-106395570D01*
X158044550Y-106364023D01*
X158046739Y-106361747D01*
X158055427Y-106355479D01*
X158068769Y-106350813D01*
X158089752Y-106347517D01*
X158121363Y-106345358D01*
X158166590Y-106344104D01*
X158228420Y-106343521D01*
X158309839Y-106343379D01*
X158556445Y-106343379D01*
X158556445Y-106185335D01*
X158394006Y-106185335D01*
X158358338Y-106185254D01*
X158302568Y-106184457D01*
X158263430Y-106182452D01*
X158236976Y-106178811D01*
X158219259Y-106173102D01*
X158206329Y-106164897D01*
X158202686Y-106161713D01*
X158184278Y-106130738D01*
X158183644Y-106094402D01*
X158201183Y-106060783D01*
X158201245Y-106060714D01*
X158210916Y-106052088D01*
X158224209Y-106046032D01*
X158244917Y-106042101D01*
X158276828Y-106039846D01*
X158323734Y-106038821D01*
X158389424Y-106038579D01*
X158557571Y-106038579D01*
X158554186Y-105973668D01*
X158550800Y-105908757D01*
X158308723Y-105905704D01*
X158283707Y-105905376D01*
X158202087Y-105903896D01*
X158139768Y-105901512D01*
X158094154Y-105897517D01*
X158062652Y-105891203D01*
X158042667Y-105881864D01*
X158031604Y-105868793D01*
X158026869Y-105851282D01*
X158025867Y-105828625D01*
X158025873Y-105826260D01*
X158027027Y-105806229D01*
X158031824Y-105790436D01*
X158042632Y-105778380D01*
X158061817Y-105769557D01*
X158091745Y-105763465D01*
X158134783Y-105759601D01*
X158193299Y-105757464D01*
X158269657Y-105756550D01*
X158366226Y-105756357D01*
X158656406Y-105756357D01*
X158679803Y-105786101D01*
G36*
X158679803Y-105786101D02*
G01*
X158684752Y-105792785D01*
X158690596Y-105803356D01*
X158695057Y-105817443D01*
X158698321Y-105837768D01*
X158700574Y-105867055D01*
X158702002Y-105908027D01*
X158702792Y-105963407D01*
X158703129Y-106035918D01*
X158703200Y-106128284D01*
X158703171Y-106194201D01*
X158702939Y-106272518D01*
X158702319Y-106332786D01*
X158701126Y-106377683D01*
X158699179Y-106409892D01*
X158696294Y-106432090D01*
X158692288Y-106446959D01*
X158686979Y-106457179D01*
X158680183Y-106465428D01*
X158675668Y-106470085D01*
X158667438Y-106476572D01*
X158656078Y-106481484D01*
X158638810Y-106485039D01*
X158612855Y-106487457D01*
X158575436Y-106488957D01*
X158523773Y-106489757D01*
X158455089Y-106490077D01*
X158366606Y-106490135D01*
X158346931Y-106490128D01*
X158259906Y-106489862D01*
X158192254Y-106489096D01*
X158141299Y-106487682D01*
X158104367Y-106485470D01*
X158078783Y-106482312D01*
X158061871Y-106478059D01*
X158050957Y-106472561D01*
X158040464Y-106462575D01*
X158027203Y-106431458D01*
X158028386Y-106395570D01*
X158044550Y-106364023D01*
X158046739Y-106361747D01*
X158055427Y-106355479D01*
X158068769Y-106350813D01*
X158089752Y-106347517D01*
X158121363Y-106345358D01*
X158166590Y-106344104D01*
X158228420Y-106343521D01*
X158309839Y-106343379D01*
X158556445Y-106343379D01*
X158556445Y-106185335D01*
X158394006Y-106185335D01*
X158358338Y-106185254D01*
X158302568Y-106184457D01*
X158263430Y-106182452D01*
X158236976Y-106178811D01*
X158219259Y-106173102D01*
X158206329Y-106164897D01*
X158202686Y-106161713D01*
X158184278Y-106130738D01*
X158183644Y-106094402D01*
X158201183Y-106060783D01*
X158201245Y-106060714D01*
X158210916Y-106052088D01*
X158224209Y-106046032D01*
X158244917Y-106042101D01*
X158276828Y-106039846D01*
X158323734Y-106038821D01*
X158389424Y-106038579D01*
X158557571Y-106038579D01*
X158554186Y-105973668D01*
X158550800Y-105908757D01*
X158308723Y-105905704D01*
X158283707Y-105905376D01*
X158202087Y-105903896D01*
X158139768Y-105901512D01*
X158094154Y-105897517D01*
X158062652Y-105891203D01*
X158042667Y-105881864D01*
X158031604Y-105868793D01*
X158026869Y-105851282D01*
X158025867Y-105828625D01*
X158025873Y-105826260D01*
X158027027Y-105806229D01*
X158031824Y-105790436D01*
X158042632Y-105778380D01*
X158061817Y-105769557D01*
X158091745Y-105763465D01*
X158134783Y-105759601D01*
X158193299Y-105757464D01*
X158269657Y-105756550D01*
X158366226Y-105756357D01*
X158656406Y-105756357D01*
X158679803Y-105786101D01*
G37*
X160629150Y-105761469D02*
X160735157Y-105777784D01*
X160828969Y-105805835D01*
X160907765Y-105844742D01*
X160968719Y-105893624D01*
X160994789Y-105926485D01*
X161024297Y-105975684D01*
X161049568Y-106029542D01*
X161067218Y-106080709D01*
X161073858Y-106121834D01*
X161072298Y-106141549D01*
X161059357Y-106192882D01*
X161036194Y-106249408D01*
X161006302Y-106303325D01*
X160973173Y-106346829D01*
X160962977Y-106357177D01*
X160895892Y-106408952D01*
X160815766Y-106448844D01*
X160729556Y-106473246D01*
X160674592Y-106481358D01*
X160581139Y-106487963D01*
X160491358Y-106485876D01*
X160408869Y-106475630D01*
X160337286Y-106457760D01*
X160280228Y-106432798D01*
X160241311Y-106401278D01*
X160239936Y-106399302D01*
X160232848Y-106374076D01*
X160228609Y-106326825D01*
X160227200Y-106257361D01*
X160228060Y-106195128D01*
X160232780Y-106147746D01*
X160244470Y-106115643D01*
X160266239Y-106096090D01*
X160301198Y-106086360D01*
X160352456Y-106083723D01*
X160423123Y-106085451D01*
X160471743Y-106088463D01*
X160521939Y-106096656D01*
X160554433Y-106110709D01*
X160571892Y-106131944D01*
X160576983Y-106161684D01*
X160576877Y-106166226D01*
X160568175Y-106201020D01*
X160544165Y-106224437D01*
X160502900Y-106237637D01*
X160442431Y-106241779D01*
X160373956Y-106241779D01*
X160373956Y-106280131D01*
X160374006Y-106289266D01*
X160376227Y-106306517D01*
X160385494Y-106316811D01*
X160406875Y-106323749D01*
X160445436Y-106330931D01*
X160450910Y-106331865D01*
X160547860Y-106341768D01*
X160637852Y-106338849D01*
X160718760Y-106324119D01*
X160788459Y-106298589D01*
X160844824Y-106263268D01*
X160885729Y-106219169D01*
X160909051Y-106167302D01*
X160912663Y-106108678D01*
X160907145Y-106079784D01*
X160880461Y-106023894D01*
X160834273Y-105978235D01*
X160769291Y-105943398D01*
X160686229Y-105919980D01*
X160661555Y-105915531D01*
X160572226Y-105905032D01*
X160492419Y-105906261D01*
X160414326Y-105919196D01*
X160379183Y-105925986D01*
X160333745Y-105927003D01*
X160302430Y-105914472D01*
X160282277Y-105887685D01*
X160275893Y-105859438D01*
X160285379Y-105828214D01*
X160294708Y-105814789D01*
X160328943Y-105791257D01*
X160381565Y-105773385D01*
X160450081Y-105761889D01*
X160532000Y-105757482D01*
X160629150Y-105761469D01*
G36*
X160629150Y-105761469D02*
G01*
X160735157Y-105777784D01*
X160828969Y-105805835D01*
X160907765Y-105844742D01*
X160968719Y-105893624D01*
X160994789Y-105926485D01*
X161024297Y-105975684D01*
X161049568Y-106029542D01*
X161067218Y-106080709D01*
X161073858Y-106121834D01*
X161072298Y-106141549D01*
X161059357Y-106192882D01*
X161036194Y-106249408D01*
X161006302Y-106303325D01*
X160973173Y-106346829D01*
X160962977Y-106357177D01*
X160895892Y-106408952D01*
X160815766Y-106448844D01*
X160729556Y-106473246D01*
X160674592Y-106481358D01*
X160581139Y-106487963D01*
X160491358Y-106485876D01*
X160408869Y-106475630D01*
X160337286Y-106457760D01*
X160280228Y-106432798D01*
X160241311Y-106401278D01*
X160239936Y-106399302D01*
X160232848Y-106374076D01*
X160228609Y-106326825D01*
X160227200Y-106257361D01*
X160228060Y-106195128D01*
X160232780Y-106147746D01*
X160244470Y-106115643D01*
X160266239Y-106096090D01*
X160301198Y-106086360D01*
X160352456Y-106083723D01*
X160423123Y-106085451D01*
X160471743Y-106088463D01*
X160521939Y-106096656D01*
X160554433Y-106110709D01*
X160571892Y-106131944D01*
X160576983Y-106161684D01*
X160576877Y-106166226D01*
X160568175Y-106201020D01*
X160544165Y-106224437D01*
X160502900Y-106237637D01*
X160442431Y-106241779D01*
X160373956Y-106241779D01*
X160373956Y-106280131D01*
X160374006Y-106289266D01*
X160376227Y-106306517D01*
X160385494Y-106316811D01*
X160406875Y-106323749D01*
X160445436Y-106330931D01*
X160450910Y-106331865D01*
X160547860Y-106341768D01*
X160637852Y-106338849D01*
X160718760Y-106324119D01*
X160788459Y-106298589D01*
X160844824Y-106263268D01*
X160885729Y-106219169D01*
X160909051Y-106167302D01*
X160912663Y-106108678D01*
X160907145Y-106079784D01*
X160880461Y-106023894D01*
X160834273Y-105978235D01*
X160769291Y-105943398D01*
X160686229Y-105919980D01*
X160661555Y-105915531D01*
X160572226Y-105905032D01*
X160492419Y-105906261D01*
X160414326Y-105919196D01*
X160379183Y-105925986D01*
X160333745Y-105927003D01*
X160302430Y-105914472D01*
X160282277Y-105887685D01*
X160275893Y-105859438D01*
X160285379Y-105828214D01*
X160294708Y-105814789D01*
X160328943Y-105791257D01*
X160381565Y-105773385D01*
X160450081Y-105761889D01*
X160532000Y-105757482D01*
X160629150Y-105761469D01*
G37*
X159831893Y-105755182D02*
X159843301Y-105761319D01*
X159853850Y-105771981D01*
X159865136Y-105786101D01*
X159869589Y-105792062D01*
X159875588Y-105802558D01*
X159880167Y-105816383D01*
X159883519Y-105836288D01*
X159885833Y-105865022D01*
X159887301Y-105905335D01*
X159888113Y-105959977D01*
X159888460Y-106031697D01*
X159888534Y-106123246D01*
X159888511Y-106181776D01*
X159888292Y-106260863D01*
X159887683Y-106321806D01*
X159886492Y-106367352D01*
X159884529Y-106400253D01*
X159881603Y-106423258D01*
X159877523Y-106439116D01*
X159872097Y-106450576D01*
X159865136Y-106460390D01*
X159834708Y-106484783D01*
X159799765Y-106487662D01*
X159762784Y-106468572D01*
X159758600Y-106465097D01*
X159750424Y-106456569D01*
X159744364Y-106445018D01*
X159739981Y-106427186D01*
X159736839Y-106399814D01*
X159734502Y-106359644D01*
X159732531Y-106303418D01*
X159730489Y-106227879D01*
X159724845Y-106008748D01*
X159459556Y-106249389D01*
X159385722Y-106316165D01*
X159320542Y-106374281D01*
X159268348Y-106419239D01*
X159227273Y-106452161D01*
X159195455Y-106474169D01*
X159171026Y-106486384D01*
X159152124Y-106489929D01*
X159136883Y-106485926D01*
X159123439Y-106475497D01*
X159109927Y-106459764D01*
X159103682Y-106451281D01*
X159098050Y-106440703D01*
X159093839Y-106426545D01*
X159090887Y-106406093D01*
X159089032Y-106376632D01*
X159088113Y-106335451D01*
X159087968Y-106279834D01*
X159088435Y-106207069D01*
X159089352Y-106114441D01*
X159092667Y-105799489D01*
X159119318Y-105777923D01*
X159145383Y-105761731D01*
X159178241Y-105758960D01*
X159212772Y-105777913D01*
X159217084Y-105781498D01*
X159225216Y-105790027D01*
X159231245Y-105801619D01*
X159235606Y-105819525D01*
X159238734Y-105846996D01*
X159241063Y-105887284D01*
X159243029Y-105943641D01*
X159245067Y-106019319D01*
X159250711Y-106239168D01*
X159431334Y-106075374D01*
X159518072Y-105996741D01*
X159593843Y-105928348D01*
X159655980Y-105872998D01*
X159706078Y-105829628D01*
X159745735Y-105797171D01*
X159776548Y-105774563D01*
X159800114Y-105760738D01*
X159818030Y-105754633D01*
X159831893Y-105755182D01*
G36*
X159831893Y-105755182D02*
G01*
X159843301Y-105761319D01*
X159853850Y-105771981D01*
X159865136Y-105786101D01*
X159869589Y-105792062D01*
X159875588Y-105802558D01*
X159880167Y-105816383D01*
X159883519Y-105836288D01*
X159885833Y-105865022D01*
X159887301Y-105905335D01*
X159888113Y-105959977D01*
X159888460Y-106031697D01*
X159888534Y-106123246D01*
X159888511Y-106181776D01*
X159888292Y-106260863D01*
X159887683Y-106321806D01*
X159886492Y-106367352D01*
X159884529Y-106400253D01*
X159881603Y-106423258D01*
X159877523Y-106439116D01*
X159872097Y-106450576D01*
X159865136Y-106460390D01*
X159834708Y-106484783D01*
X159799765Y-106487662D01*
X159762784Y-106468572D01*
X159758600Y-106465097D01*
X159750424Y-106456569D01*
X159744364Y-106445018D01*
X159739981Y-106427186D01*
X159736839Y-106399814D01*
X159734502Y-106359644D01*
X159732531Y-106303418D01*
X159730489Y-106227879D01*
X159724845Y-106008748D01*
X159459556Y-106249389D01*
X159385722Y-106316165D01*
X159320542Y-106374281D01*
X159268348Y-106419239D01*
X159227273Y-106452161D01*
X159195455Y-106474169D01*
X159171026Y-106486384D01*
X159152124Y-106489929D01*
X159136883Y-106485926D01*
X159123439Y-106475497D01*
X159109927Y-106459764D01*
X159103682Y-106451281D01*
X159098050Y-106440703D01*
X159093839Y-106426545D01*
X159090887Y-106406093D01*
X159089032Y-106376632D01*
X159088113Y-106335451D01*
X159087968Y-106279834D01*
X159088435Y-106207069D01*
X159089352Y-106114441D01*
X159092667Y-105799489D01*
X159119318Y-105777923D01*
X159145383Y-105761731D01*
X159178241Y-105758960D01*
X159212772Y-105777913D01*
X159217084Y-105781498D01*
X159225216Y-105790027D01*
X159231245Y-105801619D01*
X159235606Y-105819525D01*
X159238734Y-105846996D01*
X159241063Y-105887284D01*
X159243029Y-105943641D01*
X159245067Y-106019319D01*
X159250711Y-106239168D01*
X159431334Y-106075374D01*
X159518072Y-105996741D01*
X159593843Y-105928348D01*
X159655980Y-105872998D01*
X159706078Y-105829628D01*
X159745735Y-105797171D01*
X159776548Y-105774563D01*
X159800114Y-105760738D01*
X159818030Y-105754633D01*
X159831893Y-105755182D01*
G37*
X164776817Y-105941717D02*
X164776870Y-106022331D01*
X164776622Y-106123246D01*
X164776583Y-106198907D01*
X164776328Y-106276816D01*
X164775684Y-106336826D01*
X164774480Y-106381554D01*
X164772543Y-106413616D01*
X164769703Y-106435630D01*
X164765788Y-106450214D01*
X164760626Y-106459984D01*
X164754045Y-106467557D01*
X164747077Y-106473791D01*
X164734079Y-106481091D01*
X164714931Y-106485844D01*
X164685528Y-106488582D01*
X164641762Y-106489835D01*
X164579528Y-106490135D01*
X164530582Y-106489759D01*
X164423722Y-106485331D01*
X164334494Y-106475243D01*
X164259696Y-106458655D01*
X164196125Y-106434725D01*
X164140579Y-106402611D01*
X164089854Y-106361472D01*
X164083866Y-106355620D01*
X164046999Y-106307111D01*
X164015899Y-106246303D01*
X163994417Y-106182059D01*
X163989136Y-106143316D01*
X164136353Y-106143316D01*
X164154635Y-106194251D01*
X164184305Y-106240168D01*
X164231002Y-106282577D01*
X164292392Y-106312380D01*
X164371538Y-106331516D01*
X164373028Y-106331754D01*
X164421999Y-106337546D01*
X164480693Y-106341686D01*
X164536734Y-106343294D01*
X164629867Y-106343379D01*
X164629867Y-105903112D01*
X164553667Y-105903098D01*
X164550639Y-105903107D01*
X164499519Y-105905072D01*
X164439416Y-105909797D01*
X164382708Y-105916325D01*
X164332750Y-105925621D01*
X164257998Y-105951890D01*
X164200489Y-105991189D01*
X164158988Y-106044223D01*
X164137771Y-106095490D01*
X164136353Y-106143316D01*
X163989136Y-106143316D01*
X163986400Y-106123246D01*
X163987679Y-106102029D01*
X163999991Y-106044613D01*
X164022520Y-105984703D01*
X164051750Y-105930653D01*
X164084167Y-105890822D01*
X164103708Y-105873800D01*
X164158420Y-105834612D01*
X164218723Y-105804483D01*
X164287919Y-105782522D01*
X164369311Y-105767840D01*
X164466200Y-105759549D01*
X164581889Y-105756757D01*
X164621371Y-105756356D01*
X164667082Y-105755943D01*
X164702883Y-105757747D01*
X164729974Y-105764029D01*
X164749556Y-105777049D01*
X164762830Y-105799068D01*
X164770998Y-105832345D01*
X164775260Y-105879141D01*
X164775857Y-105903112D01*
X164776817Y-105941717D01*
G36*
X164776817Y-105941717D02*
G01*
X164776870Y-106022331D01*
X164776622Y-106123246D01*
X164776583Y-106198907D01*
X164776328Y-106276816D01*
X164775684Y-106336826D01*
X164774480Y-106381554D01*
X164772543Y-106413616D01*
X164769703Y-106435630D01*
X164765788Y-106450214D01*
X164760626Y-106459984D01*
X164754045Y-106467557D01*
X164747077Y-106473791D01*
X164734079Y-106481091D01*
X164714931Y-106485844D01*
X164685528Y-106488582D01*
X164641762Y-106489835D01*
X164579528Y-106490135D01*
X164530582Y-106489759D01*
X164423722Y-106485331D01*
X164334494Y-106475243D01*
X164259696Y-106458655D01*
X164196125Y-106434725D01*
X164140579Y-106402611D01*
X164089854Y-106361472D01*
X164083866Y-106355620D01*
X164046999Y-106307111D01*
X164015899Y-106246303D01*
X163994417Y-106182059D01*
X163989136Y-106143316D01*
X164136353Y-106143316D01*
X164154635Y-106194251D01*
X164184305Y-106240168D01*
X164231002Y-106282577D01*
X164292392Y-106312380D01*
X164371538Y-106331516D01*
X164373028Y-106331754D01*
X164421999Y-106337546D01*
X164480693Y-106341686D01*
X164536734Y-106343294D01*
X164629867Y-106343379D01*
X164629867Y-105903112D01*
X164553667Y-105903098D01*
X164550639Y-105903107D01*
X164499519Y-105905072D01*
X164439416Y-105909797D01*
X164382708Y-105916325D01*
X164332750Y-105925621D01*
X164257998Y-105951890D01*
X164200489Y-105991189D01*
X164158988Y-106044223D01*
X164137771Y-106095490D01*
X164136353Y-106143316D01*
X163989136Y-106143316D01*
X163986400Y-106123246D01*
X163987679Y-106102029D01*
X163999991Y-106044613D01*
X164022520Y-105984703D01*
X164051750Y-105930653D01*
X164084167Y-105890822D01*
X164103708Y-105873800D01*
X164158420Y-105834612D01*
X164218723Y-105804483D01*
X164287919Y-105782522D01*
X164369311Y-105767840D01*
X164466200Y-105759549D01*
X164581889Y-105756757D01*
X164621371Y-105756356D01*
X164667082Y-105755943D01*
X164702883Y-105757747D01*
X164729974Y-105764029D01*
X164749556Y-105777049D01*
X164762830Y-105799068D01*
X164770998Y-105832345D01*
X164775260Y-105879141D01*
X164775857Y-105903112D01*
X164776817Y-105941717D01*
G37*
X157685133Y-106367686D02*
X157683163Y-106400465D01*
X157680235Y-106423385D01*
X157676158Y-106439187D01*
X157670743Y-106450609D01*
X157663803Y-106460390D01*
X157640406Y-106490135D01*
X157474714Y-106489541D01*
X157439918Y-106489243D01*
X157341435Y-106485812D01*
X157260473Y-106478129D01*
X157193379Y-106465572D01*
X157136496Y-106447517D01*
X157086169Y-106423342D01*
X157082810Y-106421425D01*
X157024998Y-106384707D01*
X156982644Y-106347741D01*
X156949828Y-106304256D01*
X156920628Y-106247979D01*
X156916346Y-106238363D01*
X156893769Y-106175177D01*
X156888034Y-106129623D01*
X157037279Y-106129623D01*
X157042892Y-106154351D01*
X157048618Y-106170229D01*
X157081548Y-106230137D01*
X157128886Y-106275890D01*
X157192652Y-106309026D01*
X157274861Y-106331080D01*
X157277655Y-106331582D01*
X157323940Y-106337545D01*
X157380336Y-106341773D01*
X157435274Y-106343379D01*
X157529156Y-106343379D01*
X157529156Y-105903112D01*
X157441667Y-105903560D01*
X157374747Y-105906036D01*
X157282349Y-105917288D01*
X157203034Y-105936827D01*
X157141060Y-105963801D01*
X157110120Y-105984530D01*
X157082000Y-106014296D01*
X157058660Y-106056724D01*
X157051533Y-106072690D01*
X157039709Y-106105192D01*
X157037279Y-106129623D01*
X156888034Y-106129623D01*
X156886797Y-106119799D01*
X156895399Y-106064773D01*
X156919541Y-106002641D01*
X156920337Y-106000948D01*
X156960788Y-105931526D01*
X157011473Y-105874928D01*
X157074198Y-105830360D01*
X157150774Y-105797031D01*
X157243009Y-105774151D01*
X157352712Y-105760926D01*
X157481691Y-105756565D01*
X157485263Y-105756560D01*
X157545283Y-105756700D01*
X157587214Y-105757736D01*
X157615328Y-105760330D01*
X157633897Y-105765143D01*
X157647194Y-105772834D01*
X157659491Y-105784066D01*
X157687200Y-105811775D01*
X157687200Y-106121210D01*
X157687175Y-106182816D01*
X157686950Y-106261601D01*
X157686332Y-106322311D01*
X157685775Y-106343379D01*
X157685133Y-106367686D01*
G36*
X157685133Y-106367686D02*
G01*
X157683163Y-106400465D01*
X157680235Y-106423385D01*
X157676158Y-106439187D01*
X157670743Y-106450609D01*
X157663803Y-106460390D01*
X157640406Y-106490135D01*
X157474714Y-106489541D01*
X157439918Y-106489243D01*
X157341435Y-106485812D01*
X157260473Y-106478129D01*
X157193379Y-106465572D01*
X157136496Y-106447517D01*
X157086169Y-106423342D01*
X157082810Y-106421425D01*
X157024998Y-106384707D01*
X156982644Y-106347741D01*
X156949828Y-106304256D01*
X156920628Y-106247979D01*
X156916346Y-106238363D01*
X156893769Y-106175177D01*
X156888034Y-106129623D01*
X157037279Y-106129623D01*
X157042892Y-106154351D01*
X157048618Y-106170229D01*
X157081548Y-106230137D01*
X157128886Y-106275890D01*
X157192652Y-106309026D01*
X157274861Y-106331080D01*
X157277655Y-106331582D01*
X157323940Y-106337545D01*
X157380336Y-106341773D01*
X157435274Y-106343379D01*
X157529156Y-106343379D01*
X157529156Y-105903112D01*
X157441667Y-105903560D01*
X157374747Y-105906036D01*
X157282349Y-105917288D01*
X157203034Y-105936827D01*
X157141060Y-105963801D01*
X157110120Y-105984530D01*
X157082000Y-106014296D01*
X157058660Y-106056724D01*
X157051533Y-106072690D01*
X157039709Y-106105192D01*
X157037279Y-106129623D01*
X156888034Y-106129623D01*
X156886797Y-106119799D01*
X156895399Y-106064773D01*
X156919541Y-106002641D01*
X156920337Y-106000948D01*
X156960788Y-105931526D01*
X157011473Y-105874928D01*
X157074198Y-105830360D01*
X157150774Y-105797031D01*
X157243009Y-105774151D01*
X157352712Y-105760926D01*
X157481691Y-105756565D01*
X157485263Y-105756560D01*
X157545283Y-105756700D01*
X157587214Y-105757736D01*
X157615328Y-105760330D01*
X157633897Y-105765143D01*
X157647194Y-105772834D01*
X157659491Y-105784066D01*
X157687200Y-105811775D01*
X157687200Y-106121210D01*
X157687175Y-106182816D01*
X157686950Y-106261601D01*
X157686332Y-106322311D01*
X157685775Y-106343379D01*
X157685133Y-106367686D01*
G37*
X152979734Y-105778935D02*
X152985366Y-105785125D01*
X152990456Y-105793331D01*
X152994543Y-105805107D01*
X152997721Y-105822566D01*
X153000087Y-105847820D01*
X153001738Y-105882980D01*
X153002769Y-105930159D01*
X153003277Y-105991467D01*
X153003359Y-106069017D01*
X153003109Y-106164921D01*
X153002625Y-106281290D01*
X153002557Y-106295465D01*
X153001971Y-106357227D01*
X153000648Y-106400910D01*
X152998103Y-106430291D01*
X152993848Y-106449145D01*
X152987396Y-106461249D01*
X152978262Y-106470379D01*
X152944804Y-106487796D01*
X152909856Y-106484894D01*
X152878953Y-106460390D01*
X152869944Y-106447187D01*
X152862492Y-106428651D01*
X152858124Y-106402623D01*
X152856069Y-106364077D01*
X152855556Y-106307990D01*
X152855556Y-106185335D01*
X152358845Y-106185335D01*
X152358845Y-106320161D01*
X152358772Y-106355952D01*
X152358009Y-106402282D01*
X152355833Y-106432816D01*
X152351536Y-106451847D01*
X152344412Y-106463664D01*
X152333755Y-106472561D01*
X152301504Y-106487631D01*
X152266217Y-106484963D01*
X152235486Y-106460390D01*
X152230831Y-106454135D01*
X152224895Y-106443611D01*
X152220364Y-106429681D01*
X152217048Y-106409607D01*
X152214759Y-106380650D01*
X152213308Y-106340070D01*
X152212505Y-106285130D01*
X152212162Y-106213089D01*
X152212089Y-106121210D01*
X152212089Y-105811775D01*
X152239798Y-105784066D01*
X152271177Y-105761823D01*
X152304406Y-105759134D01*
X152336267Y-105778935D01*
X152344553Y-105788705D01*
X152351965Y-105804597D01*
X152356302Y-105828565D01*
X152358338Y-105865438D01*
X152358845Y-105920046D01*
X152358845Y-106038579D01*
X152855556Y-106038579D01*
X152855556Y-105923066D01*
X152855994Y-105871368D01*
X152857958Y-105836844D01*
X152862474Y-105814268D01*
X152870567Y-105798416D01*
X152883265Y-105784066D01*
X152914643Y-105761823D01*
X152947872Y-105759134D01*
X152979734Y-105778935D01*
G36*
X152979734Y-105778935D02*
G01*
X152985366Y-105785125D01*
X152990456Y-105793331D01*
X152994543Y-105805107D01*
X152997721Y-105822566D01*
X153000087Y-105847820D01*
X153001738Y-105882980D01*
X153002769Y-105930159D01*
X153003277Y-105991467D01*
X153003359Y-106069017D01*
X153003109Y-106164921D01*
X153002625Y-106281290D01*
X153002557Y-106295465D01*
X153001971Y-106357227D01*
X153000648Y-106400910D01*
X152998103Y-106430291D01*
X152993848Y-106449145D01*
X152987396Y-106461249D01*
X152978262Y-106470379D01*
X152944804Y-106487796D01*
X152909856Y-106484894D01*
X152878953Y-106460390D01*
X152869944Y-106447187D01*
X152862492Y-106428651D01*
X152858124Y-106402623D01*
X152856069Y-106364077D01*
X152855556Y-106307990D01*
X152855556Y-106185335D01*
X152358845Y-106185335D01*
X152358845Y-106320161D01*
X152358772Y-106355952D01*
X152358009Y-106402282D01*
X152355833Y-106432816D01*
X152351536Y-106451847D01*
X152344412Y-106463664D01*
X152333755Y-106472561D01*
X152301504Y-106487631D01*
X152266217Y-106484963D01*
X152235486Y-106460390D01*
X152230831Y-106454135D01*
X152224895Y-106443611D01*
X152220364Y-106429681D01*
X152217048Y-106409607D01*
X152214759Y-106380650D01*
X152213308Y-106340070D01*
X152212505Y-106285130D01*
X152212162Y-106213089D01*
X152212089Y-106121210D01*
X152212089Y-105811775D01*
X152239798Y-105784066D01*
X152271177Y-105761823D01*
X152304406Y-105759134D01*
X152336267Y-105778935D01*
X152344553Y-105788705D01*
X152351965Y-105804597D01*
X152356302Y-105828565D01*
X152358338Y-105865438D01*
X152358845Y-105920046D01*
X152358845Y-106038579D01*
X152855556Y-106038579D01*
X152855556Y-105923066D01*
X152855994Y-105871368D01*
X152857958Y-105836844D01*
X152862474Y-105814268D01*
X152870567Y-105798416D01*
X152883265Y-105784066D01*
X152914643Y-105761823D01*
X152947872Y-105759134D01*
X152979734Y-105778935D01*
G37*
X153655767Y-105756358D02*
X153749890Y-105756448D01*
X153824405Y-105756788D01*
X153881811Y-105757529D01*
X153924611Y-105758825D01*
X153955304Y-105760827D01*
X153976391Y-105763686D01*
X153990373Y-105767556D01*
X153999750Y-105772588D01*
X154007022Y-105778935D01*
X154025828Y-105811652D01*
X154027275Y-105849229D01*
X154010917Y-105882468D01*
X154009557Y-105883921D01*
X153998354Y-105892282D01*
X153981252Y-105897837D01*
X153954082Y-105901130D01*
X153912678Y-105902708D01*
X153852873Y-105903112D01*
X153713511Y-105903112D01*
X153713511Y-106166879D01*
X153713436Y-106242707D01*
X153713028Y-106309373D01*
X153712046Y-106359157D01*
X153710250Y-106395074D01*
X153707399Y-106420140D01*
X153703253Y-106437371D01*
X153697571Y-106449782D01*
X153690114Y-106460390D01*
X153687824Y-106463196D01*
X153656646Y-106485838D01*
X153622266Y-106487402D01*
X153589334Y-106467557D01*
X153582355Y-106459481D01*
X153576883Y-106448883D01*
X153572863Y-106433039D01*
X153570072Y-106409063D01*
X153568288Y-106374064D01*
X153567289Y-106325154D01*
X153566852Y-106259444D01*
X153566756Y-106174046D01*
X153566756Y-105903112D01*
X153420820Y-105903112D01*
X153409720Y-105903111D01*
X153353202Y-105902886D01*
X153314358Y-105901747D01*
X153288965Y-105898947D01*
X153272804Y-105893740D01*
X153261652Y-105885379D01*
X153251289Y-105873116D01*
X153235441Y-105842428D01*
X153238543Y-105808648D01*
X153264187Y-105776112D01*
X153269129Y-105772395D01*
X153279338Y-105767559D01*
X153294764Y-105763796D01*
X153317886Y-105760973D01*
X153351183Y-105758960D01*
X153397137Y-105757623D01*
X153458228Y-105756832D01*
X153536935Y-105756453D01*
X153635740Y-105756357D01*
X153655767Y-105756358D01*
G36*
X153655767Y-105756358D02*
G01*
X153749890Y-105756448D01*
X153824405Y-105756788D01*
X153881811Y-105757529D01*
X153924611Y-105758825D01*
X153955304Y-105760827D01*
X153976391Y-105763686D01*
X153990373Y-105767556D01*
X153999750Y-105772588D01*
X154007022Y-105778935D01*
X154025828Y-105811652D01*
X154027275Y-105849229D01*
X154010917Y-105882468D01*
X154009557Y-105883921D01*
X153998354Y-105892282D01*
X153981252Y-105897837D01*
X153954082Y-105901130D01*
X153912678Y-105902708D01*
X153852873Y-105903112D01*
X153713511Y-105903112D01*
X153713511Y-106166879D01*
X153713436Y-106242707D01*
X153713028Y-106309373D01*
X153712046Y-106359157D01*
X153710250Y-106395074D01*
X153707399Y-106420140D01*
X153703253Y-106437371D01*
X153697571Y-106449782D01*
X153690114Y-106460390D01*
X153687824Y-106463196D01*
X153656646Y-106485838D01*
X153622266Y-106487402D01*
X153589334Y-106467557D01*
X153582355Y-106459481D01*
X153576883Y-106448883D01*
X153572863Y-106433039D01*
X153570072Y-106409063D01*
X153568288Y-106374064D01*
X153567289Y-106325154D01*
X153566852Y-106259444D01*
X153566756Y-106174046D01*
X153566756Y-105903112D01*
X153420820Y-105903112D01*
X153409720Y-105903111D01*
X153353202Y-105902886D01*
X153314358Y-105901747D01*
X153288965Y-105898947D01*
X153272804Y-105893740D01*
X153261652Y-105885379D01*
X153251289Y-105873116D01*
X153235441Y-105842428D01*
X153238543Y-105808648D01*
X153264187Y-105776112D01*
X153269129Y-105772395D01*
X153279338Y-105767559D01*
X153294764Y-105763796D01*
X153317886Y-105760973D01*
X153351183Y-105758960D01*
X153397137Y-105757623D01*
X153458228Y-105756832D01*
X153536935Y-105756453D01*
X153635740Y-105756357D01*
X153655767Y-105756358D01*
G37*
X160954562Y-100520140D02*
X161037313Y-100547343D01*
X161112406Y-100592774D01*
X161184298Y-100658592D01*
X161222846Y-100702857D01*
X161262256Y-100761251D01*
X161287446Y-100821876D01*
X161300861Y-100891155D01*
X161304948Y-100975512D01*
X161304669Y-101021597D01*
X161302460Y-101062740D01*
X161296894Y-101094872D01*
X161286586Y-101125412D01*
X161270148Y-101161779D01*
X161256200Y-101189018D01*
X161197665Y-101274719D01*
X161125619Y-101343907D01*
X161041947Y-101395031D01*
X160948531Y-101426540D01*
X160915434Y-101433515D01*
X160874960Y-101440384D01*
X160841999Y-101442209D01*
X160807698Y-101439237D01*
X160763200Y-101431716D01*
X160711934Y-101419292D01*
X160621434Y-101381402D01*
X160542345Y-101327126D01*
X160476528Y-101259060D01*
X160425840Y-101179801D01*
X160392140Y-101091944D01*
X160377286Y-100998085D01*
X160383136Y-100900820D01*
X160409399Y-100804510D01*
X160454418Y-100715784D01*
X160515373Y-100640709D01*
X160590184Y-100580931D01*
X160676768Y-100538099D01*
X160773043Y-100513861D01*
X160876928Y-100509866D01*
X160954562Y-100520140D01*
G36*
X160954562Y-100520140D02*
G01*
X161037313Y-100547343D01*
X161112406Y-100592774D01*
X161184298Y-100658592D01*
X161222846Y-100702857D01*
X161262256Y-100761251D01*
X161287446Y-100821876D01*
X161300861Y-100891155D01*
X161304948Y-100975512D01*
X161304669Y-101021597D01*
X161302460Y-101062740D01*
X161296894Y-101094872D01*
X161286586Y-101125412D01*
X161270148Y-101161779D01*
X161256200Y-101189018D01*
X161197665Y-101274719D01*
X161125619Y-101343907D01*
X161041947Y-101395031D01*
X160948531Y-101426540D01*
X160915434Y-101433515D01*
X160874960Y-101440384D01*
X160841999Y-101442209D01*
X160807698Y-101439237D01*
X160763200Y-101431716D01*
X160711934Y-101419292D01*
X160621434Y-101381402D01*
X160542345Y-101327126D01*
X160476528Y-101259060D01*
X160425840Y-101179801D01*
X160392140Y-101091944D01*
X160377286Y-100998085D01*
X160383136Y-100900820D01*
X160409399Y-100804510D01*
X160454418Y-100715784D01*
X160515373Y-100640709D01*
X160590184Y-100580931D01*
X160676768Y-100538099D01*
X160773043Y-100513861D01*
X160876928Y-100509866D01*
X160954562Y-100520140D01*
G37*
X161486137Y-105760753D02*
X161520291Y-105784066D01*
X161548000Y-105811775D01*
X161548000Y-106124827D01*
X161547959Y-106208857D01*
X161547701Y-106283079D01*
X161547030Y-106339831D01*
X161545752Y-106381802D01*
X161543673Y-106411679D01*
X161540599Y-106432151D01*
X161536334Y-106445904D01*
X161530684Y-106455627D01*
X161523455Y-106464007D01*
X161491991Y-106485471D01*
X161456826Y-106487237D01*
X161423822Y-106467557D01*
X161418516Y-106461688D01*
X161413066Y-106452604D01*
X161408900Y-106439263D01*
X161405846Y-106419047D01*
X161403732Y-106389339D01*
X161402386Y-106347522D01*
X161401638Y-106290979D01*
X161401314Y-106217092D01*
X161401245Y-106123246D01*
X161401284Y-106047584D01*
X161401539Y-105969675D01*
X161402183Y-105909665D01*
X161403387Y-105864938D01*
X161405324Y-105832875D01*
X161408164Y-105810861D01*
X161412079Y-105796277D01*
X161417242Y-105786508D01*
X161423822Y-105778935D01*
X161453006Y-105759913D01*
X161486137Y-105760753D01*
G36*
X161486137Y-105760753D02*
G01*
X161520291Y-105784066D01*
X161548000Y-105811775D01*
X161548000Y-106124827D01*
X161547959Y-106208857D01*
X161547701Y-106283079D01*
X161547030Y-106339831D01*
X161545752Y-106381802D01*
X161543673Y-106411679D01*
X161540599Y-106432151D01*
X161536334Y-106445904D01*
X161530684Y-106455627D01*
X161523455Y-106464007D01*
X161491991Y-106485471D01*
X161456826Y-106487237D01*
X161423822Y-106467557D01*
X161418516Y-106461688D01*
X161413066Y-106452604D01*
X161408900Y-106439263D01*
X161405846Y-106419047D01*
X161403732Y-106389339D01*
X161402386Y-106347522D01*
X161401638Y-106290979D01*
X161401314Y-106217092D01*
X161401245Y-106123246D01*
X161401284Y-106047584D01*
X161401539Y-105969675D01*
X161402183Y-105909665D01*
X161403387Y-105864938D01*
X161405324Y-105832875D01*
X161408164Y-105810861D01*
X161412079Y-105796277D01*
X161417242Y-105786508D01*
X161423822Y-105778935D01*
X161453006Y-105759913D01*
X161486137Y-105760753D01*
G37*
X154355406Y-105762239D02*
X154381127Y-105777937D01*
X154407778Y-105799517D01*
X154407778Y-106446974D01*
X154381127Y-106468554D01*
X154349767Y-106486029D01*
X154313966Y-106486865D01*
X154282528Y-106466372D01*
X154278652Y-106461706D01*
X154273186Y-106452239D01*
X154268979Y-106438557D01*
X154265867Y-106418038D01*
X154263687Y-106388058D01*
X154262276Y-106345994D01*
X154261471Y-106289222D01*
X154261107Y-106215120D01*
X154261022Y-106121063D01*
X154261022Y-105799517D01*
X154287673Y-105777937D01*
X154311386Y-105763167D01*
X154334400Y-105756357D01*
X154355406Y-105762239D01*
G36*
X154355406Y-105762239D02*
G01*
X154381127Y-105777937D01*
X154407778Y-105799517D01*
X154407778Y-106446974D01*
X154381127Y-106468554D01*
X154349767Y-106486029D01*
X154313966Y-106486865D01*
X154282528Y-106466372D01*
X154278652Y-106461706D01*
X154273186Y-106452239D01*
X154268979Y-106438557D01*
X154265867Y-106418038D01*
X154263687Y-106388058D01*
X154262276Y-106345994D01*
X154261471Y-106289222D01*
X154261107Y-106215120D01*
X154261022Y-106121063D01*
X154261022Y-105799517D01*
X154287673Y-105777937D01*
X154311386Y-105763167D01*
X154334400Y-105756357D01*
X154355406Y-105762239D01*
G37*
%TD*%
D12*
X90275000Y-97000000D02*
X145007191Y-97003463D01*
X90250000Y-111550043D02*
G75*
G02*
X90275000Y-97000000I0J7275043D01*
G01*
X175500000Y-98000000D02*
X174500000Y-98000000D01*
X175500000Y-108500000D02*
X175500000Y-98000000D01*
X174500000Y-108500000D02*
X175500000Y-108500000D01*
X172428779Y-98000000D02*
X174500000Y-98000000D01*
X172501874Y-108500000D02*
X174500000Y-108500000D01*
X172501874Y-108500000D02*
G75*
G02*
X146000001Y-111550000I-14001874J5000000D01*
G01*
X145007191Y-97003462D02*
G75*
G02*
X172428780Y-98000000I13492809J-6496538D01*
G01*
X90250000Y-111550000D02*
X146000000Y-111550000D01*
X108662278Y-103500000D02*
G75*
G02*
X102337722Y-103500000I-3162278J0D01*
G01*
X102337722Y-103500000D02*
G75*
G02*
X108662278Y-103500000I3162278J0D01*
G01*
M02*
