%TF.GenerationSoftware,KiCad,Pcbnew,9.0.1*%
%TF.CreationDate,2025-06-02T10:33:23+09:00*%
%TF.ProjectId,Project 1 LED Torch,50726f6a-6563-4742-9031-204c45442054,1*%
%TF.SameCoordinates,Original*%
%TF.FileFunction,Drillmap*%
%TF.FilePolarity,Positive*%
%FSLAX45Y45*%
G04 Gerber Fmt 4.5, Leading zero omitted, Abs format (unit mm)*
G04 Created by KiCad (PCBNEW 9.0.1) date 2025-06-02 10:33:23*
%MOMM*%
%LPD*%
G01*
G04 APERTURE LIST*
%ADD10C,0.050000*%
%ADD11C,0.200000*%
%ADD12C,0.100000*%
G04 APERTURE END LIST*
D10*
X9027500Y-9700000D02*
X14500719Y-9700346D01*
X9025000Y-11155004D02*
G75*
G02*
X9027500Y-9700000I0J727504D01*
G01*
X17550000Y-9800000D02*
X17450000Y-9800000D01*
X17550000Y-10850000D02*
X17550000Y-9800000D01*
X17450000Y-10850000D02*
X17550000Y-10850000D01*
X17242878Y-9800000D02*
X17450000Y-9800000D01*
X17250187Y-10850000D02*
X17450000Y-10850000D01*
X17250187Y-10850000D02*
G75*
G02*
X14600000Y-11155000I-1400187J500000D01*
G01*
X14500719Y-9700346D02*
G75*
G02*
X17242878Y-9800000I1349281J-649654D01*
G01*
X9025000Y-11155000D02*
X14600000Y-11155000D01*
X10866228Y-10350000D02*
G75*
G02*
X10233772Y-10350000I-316228J0D01*
G01*
X10233772Y-10350000D02*
G75*
G02*
X10866228Y-10350000I316228J0D01*
G01*
D11*
D12*
X11915000Y-9934000D02*
X11985000Y-10004000D01*
X11985000Y-9934000D02*
X11915000Y-10004000D01*
X11915000Y-10696000D02*
X11985000Y-10766000D01*
X11985000Y-10696000D02*
X11915000Y-10766000D01*
X9070000Y-10222500D02*
G75*
G02*
X8980000Y-10222500I-45000J0D01*
G01*
X8980000Y-10222500D02*
G75*
G02*
X9070000Y-10222500I45000J0D01*
G01*
X9070000Y-10476500D02*
G75*
G02*
X8980000Y-10476500I-45000J0D01*
G01*
X8980000Y-10476500D02*
G75*
G02*
X9070000Y-10476500I45000J0D01*
G01*
X12812500Y-10075000D02*
X12812500Y-10175000D01*
X12762500Y-10125000D02*
X12862500Y-10125000D01*
X12812500Y-10525000D02*
X12812500Y-10625000D01*
X12762500Y-10575000D02*
X12862500Y-10575000D01*
X13462500Y-10075000D02*
X13462500Y-10175000D01*
X13412500Y-10125000D02*
X13512500Y-10125000D01*
X13462500Y-10525000D02*
X13462500Y-10625000D01*
X13412500Y-10575000D02*
X13512500Y-10575000D01*
D11*
X8555773Y-12150767D02*
X8555773Y-11950767D01*
X8555773Y-11950767D02*
X8603392Y-11950767D01*
X8603392Y-11950767D02*
X8631963Y-11960291D01*
X8631963Y-11960291D02*
X8651011Y-11979339D01*
X8651011Y-11979339D02*
X8660534Y-11998386D01*
X8660534Y-11998386D02*
X8670058Y-12036481D01*
X8670058Y-12036481D02*
X8670058Y-12065053D01*
X8670058Y-12065053D02*
X8660534Y-12103148D01*
X8660534Y-12103148D02*
X8651011Y-12122196D01*
X8651011Y-12122196D02*
X8631963Y-12141243D01*
X8631963Y-12141243D02*
X8603392Y-12150767D01*
X8603392Y-12150767D02*
X8555773Y-12150767D01*
X8755773Y-12150767D02*
X8755773Y-12017434D01*
X8755773Y-12055529D02*
X8765296Y-12036481D01*
X8765296Y-12036481D02*
X8774820Y-12026958D01*
X8774820Y-12026958D02*
X8793868Y-12017434D01*
X8793868Y-12017434D02*
X8812915Y-12017434D01*
X8879582Y-12150767D02*
X8879582Y-12017434D01*
X8879582Y-11950767D02*
X8870058Y-11960291D01*
X8870058Y-11960291D02*
X8879582Y-11969815D01*
X8879582Y-11969815D02*
X8889106Y-11960291D01*
X8889106Y-11960291D02*
X8879582Y-11950767D01*
X8879582Y-11950767D02*
X8879582Y-11969815D01*
X9003392Y-12150767D02*
X8984344Y-12141243D01*
X8984344Y-12141243D02*
X8974820Y-12122196D01*
X8974820Y-12122196D02*
X8974820Y-11950767D01*
X9108153Y-12150767D02*
X9089106Y-12141243D01*
X9089106Y-12141243D02*
X9079582Y-12122196D01*
X9079582Y-12122196D02*
X9079582Y-11950767D01*
X9336725Y-12150767D02*
X9336725Y-11950767D01*
X9336725Y-11950767D02*
X9403392Y-12093624D01*
X9403392Y-12093624D02*
X9470058Y-11950767D01*
X9470058Y-11950767D02*
X9470058Y-12150767D01*
X9651011Y-12150767D02*
X9651011Y-12046005D01*
X9651011Y-12046005D02*
X9641487Y-12026958D01*
X9641487Y-12026958D02*
X9622439Y-12017434D01*
X9622439Y-12017434D02*
X9584344Y-12017434D01*
X9584344Y-12017434D02*
X9565296Y-12026958D01*
X9651011Y-12141243D02*
X9631963Y-12150767D01*
X9631963Y-12150767D02*
X9584344Y-12150767D01*
X9584344Y-12150767D02*
X9565296Y-12141243D01*
X9565296Y-12141243D02*
X9555773Y-12122196D01*
X9555773Y-12122196D02*
X9555773Y-12103148D01*
X9555773Y-12103148D02*
X9565296Y-12084100D01*
X9565296Y-12084100D02*
X9584344Y-12074577D01*
X9584344Y-12074577D02*
X9631963Y-12074577D01*
X9631963Y-12074577D02*
X9651011Y-12065053D01*
X9746249Y-12017434D02*
X9746249Y-12217434D01*
X9746249Y-12026958D02*
X9765296Y-12017434D01*
X9765296Y-12017434D02*
X9803392Y-12017434D01*
X9803392Y-12017434D02*
X9822439Y-12026958D01*
X9822439Y-12026958D02*
X9831963Y-12036481D01*
X9831963Y-12036481D02*
X9841487Y-12055529D01*
X9841487Y-12055529D02*
X9841487Y-12112672D01*
X9841487Y-12112672D02*
X9831963Y-12131719D01*
X9831963Y-12131719D02*
X9822439Y-12141243D01*
X9822439Y-12141243D02*
X9803392Y-12150767D01*
X9803392Y-12150767D02*
X9765296Y-12150767D01*
X9765296Y-12150767D02*
X9746249Y-12141243D01*
X9927201Y-12131719D02*
X9936725Y-12141243D01*
X9936725Y-12141243D02*
X9927201Y-12150767D01*
X9927201Y-12150767D02*
X9917677Y-12141243D01*
X9917677Y-12141243D02*
X9927201Y-12131719D01*
X9927201Y-12131719D02*
X9927201Y-12150767D01*
X9927201Y-12026958D02*
X9936725Y-12036481D01*
X9936725Y-12036481D02*
X9927201Y-12046005D01*
X9927201Y-12046005D02*
X9917677Y-12036481D01*
X9917677Y-12036481D02*
X9927201Y-12026958D01*
X9927201Y-12026958D02*
X9927201Y-12046005D01*
D12*
X8224996Y-12444283D02*
X8294996Y-12514283D01*
X8294996Y-12444283D02*
X8224996Y-12514283D01*
D11*
X8593868Y-12370767D02*
X8612915Y-12370767D01*
X8612915Y-12370767D02*
X8631963Y-12380291D01*
X8631963Y-12380291D02*
X8641487Y-12389815D01*
X8641487Y-12389815D02*
X8651011Y-12408862D01*
X8651011Y-12408862D02*
X8660534Y-12446958D01*
X8660534Y-12446958D02*
X8660534Y-12494577D01*
X8660534Y-12494577D02*
X8651011Y-12532672D01*
X8651011Y-12532672D02*
X8641487Y-12551719D01*
X8641487Y-12551719D02*
X8631963Y-12561243D01*
X8631963Y-12561243D02*
X8612915Y-12570767D01*
X8612915Y-12570767D02*
X8593868Y-12570767D01*
X8593868Y-12570767D02*
X8574820Y-12561243D01*
X8574820Y-12561243D02*
X8565296Y-12551719D01*
X8565296Y-12551719D02*
X8555773Y-12532672D01*
X8555773Y-12532672D02*
X8546249Y-12494577D01*
X8546249Y-12494577D02*
X8546249Y-12446958D01*
X8546249Y-12446958D02*
X8555773Y-12408862D01*
X8555773Y-12408862D02*
X8565296Y-12389815D01*
X8565296Y-12389815D02*
X8574820Y-12380291D01*
X8574820Y-12380291D02*
X8593868Y-12370767D01*
X8746249Y-12551719D02*
X8755773Y-12561243D01*
X8755773Y-12561243D02*
X8746249Y-12570767D01*
X8746249Y-12570767D02*
X8736725Y-12561243D01*
X8736725Y-12561243D02*
X8746249Y-12551719D01*
X8746249Y-12551719D02*
X8746249Y-12570767D01*
X8822439Y-12370767D02*
X8955773Y-12370767D01*
X8955773Y-12370767D02*
X8870058Y-12570767D01*
X9070058Y-12370767D02*
X9089106Y-12370767D01*
X9089106Y-12370767D02*
X9108154Y-12380291D01*
X9108154Y-12380291D02*
X9117677Y-12389815D01*
X9117677Y-12389815D02*
X9127201Y-12408862D01*
X9127201Y-12408862D02*
X9136725Y-12446958D01*
X9136725Y-12446958D02*
X9136725Y-12494577D01*
X9136725Y-12494577D02*
X9127201Y-12532672D01*
X9127201Y-12532672D02*
X9117677Y-12551719D01*
X9117677Y-12551719D02*
X9108154Y-12561243D01*
X9108154Y-12561243D02*
X9089106Y-12570767D01*
X9089106Y-12570767D02*
X9070058Y-12570767D01*
X9070058Y-12570767D02*
X9051011Y-12561243D01*
X9051011Y-12561243D02*
X9041487Y-12551719D01*
X9041487Y-12551719D02*
X9031963Y-12532672D01*
X9031963Y-12532672D02*
X9022439Y-12494577D01*
X9022439Y-12494577D02*
X9022439Y-12446958D01*
X9022439Y-12446958D02*
X9031963Y-12408862D01*
X9031963Y-12408862D02*
X9041487Y-12389815D01*
X9041487Y-12389815D02*
X9051011Y-12380291D01*
X9051011Y-12380291D02*
X9070058Y-12370767D01*
X9260534Y-12370767D02*
X9279582Y-12370767D01*
X9279582Y-12370767D02*
X9298630Y-12380291D01*
X9298630Y-12380291D02*
X9308154Y-12389815D01*
X9308154Y-12389815D02*
X9317677Y-12408862D01*
X9317677Y-12408862D02*
X9327201Y-12446958D01*
X9327201Y-12446958D02*
X9327201Y-12494577D01*
X9327201Y-12494577D02*
X9317677Y-12532672D01*
X9317677Y-12532672D02*
X9308154Y-12551719D01*
X9308154Y-12551719D02*
X9298630Y-12561243D01*
X9298630Y-12561243D02*
X9279582Y-12570767D01*
X9279582Y-12570767D02*
X9260534Y-12570767D01*
X9260534Y-12570767D02*
X9241487Y-12561243D01*
X9241487Y-12561243D02*
X9231963Y-12551719D01*
X9231963Y-12551719D02*
X9222439Y-12532672D01*
X9222439Y-12532672D02*
X9212915Y-12494577D01*
X9212915Y-12494577D02*
X9212915Y-12446958D01*
X9212915Y-12446958D02*
X9222439Y-12408862D01*
X9222439Y-12408862D02*
X9231963Y-12389815D01*
X9231963Y-12389815D02*
X9241487Y-12380291D01*
X9241487Y-12380291D02*
X9260534Y-12370767D01*
X9412915Y-12570767D02*
X9412915Y-12437434D01*
X9412915Y-12456481D02*
X9422439Y-12446958D01*
X9422439Y-12446958D02*
X9441487Y-12437434D01*
X9441487Y-12437434D02*
X9470058Y-12437434D01*
X9470058Y-12437434D02*
X9489106Y-12446958D01*
X9489106Y-12446958D02*
X9498630Y-12466005D01*
X9498630Y-12466005D02*
X9498630Y-12570767D01*
X9498630Y-12466005D02*
X9508154Y-12446958D01*
X9508154Y-12446958D02*
X9527201Y-12437434D01*
X9527201Y-12437434D02*
X9555773Y-12437434D01*
X9555773Y-12437434D02*
X9574820Y-12446958D01*
X9574820Y-12446958D02*
X9584344Y-12466005D01*
X9584344Y-12466005D02*
X9584344Y-12570767D01*
X9679582Y-12570767D02*
X9679582Y-12437434D01*
X9679582Y-12456481D02*
X9689106Y-12446958D01*
X9689106Y-12446958D02*
X9708154Y-12437434D01*
X9708154Y-12437434D02*
X9736725Y-12437434D01*
X9736725Y-12437434D02*
X9755773Y-12446958D01*
X9755773Y-12446958D02*
X9765296Y-12466005D01*
X9765296Y-12466005D02*
X9765296Y-12570767D01*
X9765296Y-12466005D02*
X9774820Y-12446958D01*
X9774820Y-12446958D02*
X9793868Y-12437434D01*
X9793868Y-12437434D02*
X9822439Y-12437434D01*
X9822439Y-12437434D02*
X9841487Y-12446958D01*
X9841487Y-12446958D02*
X9851011Y-12466005D01*
X9851011Y-12466005D02*
X9851011Y-12570767D01*
X10241487Y-12361243D02*
X10070058Y-12618386D01*
X10498630Y-12370767D02*
X10517678Y-12370767D01*
X10517678Y-12370767D02*
X10536725Y-12380291D01*
X10536725Y-12380291D02*
X10546249Y-12389815D01*
X10546249Y-12389815D02*
X10555773Y-12408862D01*
X10555773Y-12408862D02*
X10565297Y-12446958D01*
X10565297Y-12446958D02*
X10565297Y-12494577D01*
X10565297Y-12494577D02*
X10555773Y-12532672D01*
X10555773Y-12532672D02*
X10546249Y-12551719D01*
X10546249Y-12551719D02*
X10536725Y-12561243D01*
X10536725Y-12561243D02*
X10517678Y-12570767D01*
X10517678Y-12570767D02*
X10498630Y-12570767D01*
X10498630Y-12570767D02*
X10479582Y-12561243D01*
X10479582Y-12561243D02*
X10470058Y-12551719D01*
X10470058Y-12551719D02*
X10460535Y-12532672D01*
X10460535Y-12532672D02*
X10451011Y-12494577D01*
X10451011Y-12494577D02*
X10451011Y-12446958D01*
X10451011Y-12446958D02*
X10460535Y-12408862D01*
X10460535Y-12408862D02*
X10470058Y-12389815D01*
X10470058Y-12389815D02*
X10479582Y-12380291D01*
X10479582Y-12380291D02*
X10498630Y-12370767D01*
X10651011Y-12551719D02*
X10660535Y-12561243D01*
X10660535Y-12561243D02*
X10651011Y-12570767D01*
X10651011Y-12570767D02*
X10641487Y-12561243D01*
X10641487Y-12561243D02*
X10651011Y-12551719D01*
X10651011Y-12551719D02*
X10651011Y-12570767D01*
X10784344Y-12370767D02*
X10803392Y-12370767D01*
X10803392Y-12370767D02*
X10822439Y-12380291D01*
X10822439Y-12380291D02*
X10831963Y-12389815D01*
X10831963Y-12389815D02*
X10841487Y-12408862D01*
X10841487Y-12408862D02*
X10851011Y-12446958D01*
X10851011Y-12446958D02*
X10851011Y-12494577D01*
X10851011Y-12494577D02*
X10841487Y-12532672D01*
X10841487Y-12532672D02*
X10831963Y-12551719D01*
X10831963Y-12551719D02*
X10822439Y-12561243D01*
X10822439Y-12561243D02*
X10803392Y-12570767D01*
X10803392Y-12570767D02*
X10784344Y-12570767D01*
X10784344Y-12570767D02*
X10765297Y-12561243D01*
X10765297Y-12561243D02*
X10755773Y-12551719D01*
X10755773Y-12551719D02*
X10746249Y-12532672D01*
X10746249Y-12532672D02*
X10736725Y-12494577D01*
X10736725Y-12494577D02*
X10736725Y-12446958D01*
X10736725Y-12446958D02*
X10746249Y-12408862D01*
X10746249Y-12408862D02*
X10755773Y-12389815D01*
X10755773Y-12389815D02*
X10765297Y-12380291D01*
X10765297Y-12380291D02*
X10784344Y-12370767D01*
X10927201Y-12389815D02*
X10936725Y-12380291D01*
X10936725Y-12380291D02*
X10955773Y-12370767D01*
X10955773Y-12370767D02*
X11003392Y-12370767D01*
X11003392Y-12370767D02*
X11022439Y-12380291D01*
X11022439Y-12380291D02*
X11031963Y-12389815D01*
X11031963Y-12389815D02*
X11041487Y-12408862D01*
X11041487Y-12408862D02*
X11041487Y-12427910D01*
X11041487Y-12427910D02*
X11031963Y-12456481D01*
X11031963Y-12456481D02*
X10917678Y-12570767D01*
X10917678Y-12570767D02*
X11041487Y-12570767D01*
X11108154Y-12370767D02*
X11241487Y-12370767D01*
X11241487Y-12370767D02*
X11155773Y-12570767D01*
X11403392Y-12370767D02*
X11365296Y-12370767D01*
X11365296Y-12370767D02*
X11346249Y-12380291D01*
X11346249Y-12380291D02*
X11336725Y-12389815D01*
X11336725Y-12389815D02*
X11317677Y-12418386D01*
X11317677Y-12418386D02*
X11308154Y-12456481D01*
X11308154Y-12456481D02*
X11308154Y-12532672D01*
X11308154Y-12532672D02*
X11317677Y-12551719D01*
X11317677Y-12551719D02*
X11327201Y-12561243D01*
X11327201Y-12561243D02*
X11346249Y-12570767D01*
X11346249Y-12570767D02*
X11384344Y-12570767D01*
X11384344Y-12570767D02*
X11403392Y-12561243D01*
X11403392Y-12561243D02*
X11412916Y-12551719D01*
X11412916Y-12551719D02*
X11422439Y-12532672D01*
X11422439Y-12532672D02*
X11422439Y-12485053D01*
X11422439Y-12485053D02*
X11412916Y-12466005D01*
X11412916Y-12466005D02*
X11403392Y-12456481D01*
X11403392Y-12456481D02*
X11384344Y-12446958D01*
X11384344Y-12446958D02*
X11346249Y-12446958D01*
X11346249Y-12446958D02*
X11327201Y-12456481D01*
X11327201Y-12456481D02*
X11317677Y-12466005D01*
X11317677Y-12466005D02*
X11308154Y-12485053D01*
X11498630Y-12370767D02*
X11498630Y-12408862D01*
X11574820Y-12370767D02*
X11574820Y-12408862D01*
X11870059Y-12646958D02*
X11860535Y-12637434D01*
X11860535Y-12637434D02*
X11841487Y-12608862D01*
X11841487Y-12608862D02*
X11831963Y-12589815D01*
X11831963Y-12589815D02*
X11822439Y-12561243D01*
X11822439Y-12561243D02*
X11812916Y-12513624D01*
X11812916Y-12513624D02*
X11812916Y-12475529D01*
X11812916Y-12475529D02*
X11822439Y-12427910D01*
X11822439Y-12427910D02*
X11831963Y-12399339D01*
X11831963Y-12399339D02*
X11841487Y-12380291D01*
X11841487Y-12380291D02*
X11860535Y-12351719D01*
X11860535Y-12351719D02*
X11870059Y-12342196D01*
X11936725Y-12389815D02*
X11946249Y-12380291D01*
X11946249Y-12380291D02*
X11965297Y-12370767D01*
X11965297Y-12370767D02*
X12012916Y-12370767D01*
X12012916Y-12370767D02*
X12031963Y-12380291D01*
X12031963Y-12380291D02*
X12041487Y-12389815D01*
X12041487Y-12389815D02*
X12051011Y-12408862D01*
X12051011Y-12408862D02*
X12051011Y-12427910D01*
X12051011Y-12427910D02*
X12041487Y-12456481D01*
X12041487Y-12456481D02*
X11927201Y-12570767D01*
X11927201Y-12570767D02*
X12051011Y-12570767D01*
X12289106Y-12570767D02*
X12289106Y-12370767D01*
X12374820Y-12570767D02*
X12374820Y-12466005D01*
X12374820Y-12466005D02*
X12365297Y-12446958D01*
X12365297Y-12446958D02*
X12346249Y-12437434D01*
X12346249Y-12437434D02*
X12317678Y-12437434D01*
X12317678Y-12437434D02*
X12298630Y-12446958D01*
X12298630Y-12446958D02*
X12289106Y-12456481D01*
X12498630Y-12570767D02*
X12479582Y-12561243D01*
X12479582Y-12561243D02*
X12470059Y-12551719D01*
X12470059Y-12551719D02*
X12460535Y-12532672D01*
X12460535Y-12532672D02*
X12460535Y-12475529D01*
X12460535Y-12475529D02*
X12470059Y-12456481D01*
X12470059Y-12456481D02*
X12479582Y-12446958D01*
X12479582Y-12446958D02*
X12498630Y-12437434D01*
X12498630Y-12437434D02*
X12527201Y-12437434D01*
X12527201Y-12437434D02*
X12546249Y-12446958D01*
X12546249Y-12446958D02*
X12555773Y-12456481D01*
X12555773Y-12456481D02*
X12565297Y-12475529D01*
X12565297Y-12475529D02*
X12565297Y-12532672D01*
X12565297Y-12532672D02*
X12555773Y-12551719D01*
X12555773Y-12551719D02*
X12546249Y-12561243D01*
X12546249Y-12561243D02*
X12527201Y-12570767D01*
X12527201Y-12570767D02*
X12498630Y-12570767D01*
X12679582Y-12570767D02*
X12660535Y-12561243D01*
X12660535Y-12561243D02*
X12651011Y-12542196D01*
X12651011Y-12542196D02*
X12651011Y-12370767D01*
X12831963Y-12561243D02*
X12812916Y-12570767D01*
X12812916Y-12570767D02*
X12774820Y-12570767D01*
X12774820Y-12570767D02*
X12755773Y-12561243D01*
X12755773Y-12561243D02*
X12746249Y-12542196D01*
X12746249Y-12542196D02*
X12746249Y-12466005D01*
X12746249Y-12466005D02*
X12755773Y-12446958D01*
X12755773Y-12446958D02*
X12774820Y-12437434D01*
X12774820Y-12437434D02*
X12812916Y-12437434D01*
X12812916Y-12437434D02*
X12831963Y-12446958D01*
X12831963Y-12446958D02*
X12841487Y-12466005D01*
X12841487Y-12466005D02*
X12841487Y-12485053D01*
X12841487Y-12485053D02*
X12746249Y-12504100D01*
X12917678Y-12561243D02*
X12936725Y-12570767D01*
X12936725Y-12570767D02*
X12974820Y-12570767D01*
X12974820Y-12570767D02*
X12993868Y-12561243D01*
X12993868Y-12561243D02*
X13003392Y-12542196D01*
X13003392Y-12542196D02*
X13003392Y-12532672D01*
X13003392Y-12532672D02*
X12993868Y-12513624D01*
X12993868Y-12513624D02*
X12974820Y-12504100D01*
X12974820Y-12504100D02*
X12946249Y-12504100D01*
X12946249Y-12504100D02*
X12927201Y-12494577D01*
X12927201Y-12494577D02*
X12917678Y-12475529D01*
X12917678Y-12475529D02*
X12917678Y-12466005D01*
X12917678Y-12466005D02*
X12927201Y-12446958D01*
X12927201Y-12446958D02*
X12946249Y-12437434D01*
X12946249Y-12437434D02*
X12974820Y-12437434D01*
X12974820Y-12437434D02*
X12993868Y-12446958D01*
X13070059Y-12646958D02*
X13079582Y-12637434D01*
X13079582Y-12637434D02*
X13098630Y-12608862D01*
X13098630Y-12608862D02*
X13108154Y-12589815D01*
X13108154Y-12589815D02*
X13117678Y-12561243D01*
X13117678Y-12561243D02*
X13127201Y-12513624D01*
X13127201Y-12513624D02*
X13127201Y-12475529D01*
X13127201Y-12475529D02*
X13117678Y-12427910D01*
X13117678Y-12427910D02*
X13108154Y-12399339D01*
X13108154Y-12399339D02*
X13098630Y-12380291D01*
X13098630Y-12380291D02*
X13079582Y-12351719D01*
X13079582Y-12351719D02*
X13070059Y-12342196D01*
D12*
X8294996Y-12743283D02*
G75*
G02*
X8204996Y-12743283I-45000J0D01*
G01*
X8204996Y-12743283D02*
G75*
G02*
X8294996Y-12743283I45000J0D01*
G01*
D11*
X8593868Y-12634767D02*
X8612915Y-12634767D01*
X8612915Y-12634767D02*
X8631963Y-12644291D01*
X8631963Y-12644291D02*
X8641487Y-12653815D01*
X8641487Y-12653815D02*
X8651011Y-12672862D01*
X8651011Y-12672862D02*
X8660534Y-12710958D01*
X8660534Y-12710958D02*
X8660534Y-12758577D01*
X8660534Y-12758577D02*
X8651011Y-12796672D01*
X8651011Y-12796672D02*
X8641487Y-12815719D01*
X8641487Y-12815719D02*
X8631963Y-12825243D01*
X8631963Y-12825243D02*
X8612915Y-12834767D01*
X8612915Y-12834767D02*
X8593868Y-12834767D01*
X8593868Y-12834767D02*
X8574820Y-12825243D01*
X8574820Y-12825243D02*
X8565296Y-12815719D01*
X8565296Y-12815719D02*
X8555773Y-12796672D01*
X8555773Y-12796672D02*
X8546249Y-12758577D01*
X8546249Y-12758577D02*
X8546249Y-12710958D01*
X8546249Y-12710958D02*
X8555773Y-12672862D01*
X8555773Y-12672862D02*
X8565296Y-12653815D01*
X8565296Y-12653815D02*
X8574820Y-12644291D01*
X8574820Y-12644291D02*
X8593868Y-12634767D01*
X8746249Y-12815719D02*
X8755773Y-12825243D01*
X8755773Y-12825243D02*
X8746249Y-12834767D01*
X8746249Y-12834767D02*
X8736725Y-12825243D01*
X8736725Y-12825243D02*
X8746249Y-12815719D01*
X8746249Y-12815719D02*
X8746249Y-12834767D01*
X8851011Y-12834767D02*
X8889106Y-12834767D01*
X8889106Y-12834767D02*
X8908154Y-12825243D01*
X8908154Y-12825243D02*
X8917677Y-12815719D01*
X8917677Y-12815719D02*
X8936725Y-12787148D01*
X8936725Y-12787148D02*
X8946249Y-12749053D01*
X8946249Y-12749053D02*
X8946249Y-12672862D01*
X8946249Y-12672862D02*
X8936725Y-12653815D01*
X8936725Y-12653815D02*
X8927201Y-12644291D01*
X8927201Y-12644291D02*
X8908154Y-12634767D01*
X8908154Y-12634767D02*
X8870058Y-12634767D01*
X8870058Y-12634767D02*
X8851011Y-12644291D01*
X8851011Y-12644291D02*
X8841487Y-12653815D01*
X8841487Y-12653815D02*
X8831963Y-12672862D01*
X8831963Y-12672862D02*
X8831963Y-12720481D01*
X8831963Y-12720481D02*
X8841487Y-12739529D01*
X8841487Y-12739529D02*
X8851011Y-12749053D01*
X8851011Y-12749053D02*
X8870058Y-12758577D01*
X8870058Y-12758577D02*
X8908154Y-12758577D01*
X8908154Y-12758577D02*
X8927201Y-12749053D01*
X8927201Y-12749053D02*
X8936725Y-12739529D01*
X8936725Y-12739529D02*
X8946249Y-12720481D01*
X9070058Y-12634767D02*
X9089106Y-12634767D01*
X9089106Y-12634767D02*
X9108154Y-12644291D01*
X9108154Y-12644291D02*
X9117677Y-12653815D01*
X9117677Y-12653815D02*
X9127201Y-12672862D01*
X9127201Y-12672862D02*
X9136725Y-12710958D01*
X9136725Y-12710958D02*
X9136725Y-12758577D01*
X9136725Y-12758577D02*
X9127201Y-12796672D01*
X9127201Y-12796672D02*
X9117677Y-12815719D01*
X9117677Y-12815719D02*
X9108154Y-12825243D01*
X9108154Y-12825243D02*
X9089106Y-12834767D01*
X9089106Y-12834767D02*
X9070058Y-12834767D01*
X9070058Y-12834767D02*
X9051011Y-12825243D01*
X9051011Y-12825243D02*
X9041487Y-12815719D01*
X9041487Y-12815719D02*
X9031963Y-12796672D01*
X9031963Y-12796672D02*
X9022439Y-12758577D01*
X9022439Y-12758577D02*
X9022439Y-12710958D01*
X9022439Y-12710958D02*
X9031963Y-12672862D01*
X9031963Y-12672862D02*
X9041487Y-12653815D01*
X9041487Y-12653815D02*
X9051011Y-12644291D01*
X9051011Y-12644291D02*
X9070058Y-12634767D01*
X9260534Y-12634767D02*
X9279582Y-12634767D01*
X9279582Y-12634767D02*
X9298630Y-12644291D01*
X9298630Y-12644291D02*
X9308154Y-12653815D01*
X9308154Y-12653815D02*
X9317677Y-12672862D01*
X9317677Y-12672862D02*
X9327201Y-12710958D01*
X9327201Y-12710958D02*
X9327201Y-12758577D01*
X9327201Y-12758577D02*
X9317677Y-12796672D01*
X9317677Y-12796672D02*
X9308154Y-12815719D01*
X9308154Y-12815719D02*
X9298630Y-12825243D01*
X9298630Y-12825243D02*
X9279582Y-12834767D01*
X9279582Y-12834767D02*
X9260534Y-12834767D01*
X9260534Y-12834767D02*
X9241487Y-12825243D01*
X9241487Y-12825243D02*
X9231963Y-12815719D01*
X9231963Y-12815719D02*
X9222439Y-12796672D01*
X9222439Y-12796672D02*
X9212915Y-12758577D01*
X9212915Y-12758577D02*
X9212915Y-12710958D01*
X9212915Y-12710958D02*
X9222439Y-12672862D01*
X9222439Y-12672862D02*
X9231963Y-12653815D01*
X9231963Y-12653815D02*
X9241487Y-12644291D01*
X9241487Y-12644291D02*
X9260534Y-12634767D01*
X9412915Y-12834767D02*
X9412915Y-12701434D01*
X9412915Y-12720481D02*
X9422439Y-12710958D01*
X9422439Y-12710958D02*
X9441487Y-12701434D01*
X9441487Y-12701434D02*
X9470058Y-12701434D01*
X9470058Y-12701434D02*
X9489106Y-12710958D01*
X9489106Y-12710958D02*
X9498630Y-12730005D01*
X9498630Y-12730005D02*
X9498630Y-12834767D01*
X9498630Y-12730005D02*
X9508154Y-12710958D01*
X9508154Y-12710958D02*
X9527201Y-12701434D01*
X9527201Y-12701434D02*
X9555773Y-12701434D01*
X9555773Y-12701434D02*
X9574820Y-12710958D01*
X9574820Y-12710958D02*
X9584344Y-12730005D01*
X9584344Y-12730005D02*
X9584344Y-12834767D01*
X9679582Y-12834767D02*
X9679582Y-12701434D01*
X9679582Y-12720481D02*
X9689106Y-12710958D01*
X9689106Y-12710958D02*
X9708154Y-12701434D01*
X9708154Y-12701434D02*
X9736725Y-12701434D01*
X9736725Y-12701434D02*
X9755773Y-12710958D01*
X9755773Y-12710958D02*
X9765296Y-12730005D01*
X9765296Y-12730005D02*
X9765296Y-12834767D01*
X9765296Y-12730005D02*
X9774820Y-12710958D01*
X9774820Y-12710958D02*
X9793868Y-12701434D01*
X9793868Y-12701434D02*
X9822439Y-12701434D01*
X9822439Y-12701434D02*
X9841487Y-12710958D01*
X9841487Y-12710958D02*
X9851011Y-12730005D01*
X9851011Y-12730005D02*
X9851011Y-12834767D01*
X10241487Y-12625243D02*
X10070058Y-12882386D01*
X10498630Y-12634767D02*
X10517678Y-12634767D01*
X10517678Y-12634767D02*
X10536725Y-12644291D01*
X10536725Y-12644291D02*
X10546249Y-12653815D01*
X10546249Y-12653815D02*
X10555773Y-12672862D01*
X10555773Y-12672862D02*
X10565297Y-12710958D01*
X10565297Y-12710958D02*
X10565297Y-12758577D01*
X10565297Y-12758577D02*
X10555773Y-12796672D01*
X10555773Y-12796672D02*
X10546249Y-12815719D01*
X10546249Y-12815719D02*
X10536725Y-12825243D01*
X10536725Y-12825243D02*
X10517678Y-12834767D01*
X10517678Y-12834767D02*
X10498630Y-12834767D01*
X10498630Y-12834767D02*
X10479582Y-12825243D01*
X10479582Y-12825243D02*
X10470058Y-12815719D01*
X10470058Y-12815719D02*
X10460535Y-12796672D01*
X10460535Y-12796672D02*
X10451011Y-12758577D01*
X10451011Y-12758577D02*
X10451011Y-12710958D01*
X10451011Y-12710958D02*
X10460535Y-12672862D01*
X10460535Y-12672862D02*
X10470058Y-12653815D01*
X10470058Y-12653815D02*
X10479582Y-12644291D01*
X10479582Y-12644291D02*
X10498630Y-12634767D01*
X10651011Y-12815719D02*
X10660535Y-12825243D01*
X10660535Y-12825243D02*
X10651011Y-12834767D01*
X10651011Y-12834767D02*
X10641487Y-12825243D01*
X10641487Y-12825243D02*
X10651011Y-12815719D01*
X10651011Y-12815719D02*
X10651011Y-12834767D01*
X10784344Y-12634767D02*
X10803392Y-12634767D01*
X10803392Y-12634767D02*
X10822439Y-12644291D01*
X10822439Y-12644291D02*
X10831963Y-12653815D01*
X10831963Y-12653815D02*
X10841487Y-12672862D01*
X10841487Y-12672862D02*
X10851011Y-12710958D01*
X10851011Y-12710958D02*
X10851011Y-12758577D01*
X10851011Y-12758577D02*
X10841487Y-12796672D01*
X10841487Y-12796672D02*
X10831963Y-12815719D01*
X10831963Y-12815719D02*
X10822439Y-12825243D01*
X10822439Y-12825243D02*
X10803392Y-12834767D01*
X10803392Y-12834767D02*
X10784344Y-12834767D01*
X10784344Y-12834767D02*
X10765297Y-12825243D01*
X10765297Y-12825243D02*
X10755773Y-12815719D01*
X10755773Y-12815719D02*
X10746249Y-12796672D01*
X10746249Y-12796672D02*
X10736725Y-12758577D01*
X10736725Y-12758577D02*
X10736725Y-12710958D01*
X10736725Y-12710958D02*
X10746249Y-12672862D01*
X10746249Y-12672862D02*
X10755773Y-12653815D01*
X10755773Y-12653815D02*
X10765297Y-12644291D01*
X10765297Y-12644291D02*
X10784344Y-12634767D01*
X10917678Y-12634767D02*
X11041487Y-12634767D01*
X11041487Y-12634767D02*
X10974820Y-12710958D01*
X10974820Y-12710958D02*
X11003392Y-12710958D01*
X11003392Y-12710958D02*
X11022439Y-12720481D01*
X11022439Y-12720481D02*
X11031963Y-12730005D01*
X11031963Y-12730005D02*
X11041487Y-12749053D01*
X11041487Y-12749053D02*
X11041487Y-12796672D01*
X11041487Y-12796672D02*
X11031963Y-12815719D01*
X11031963Y-12815719D02*
X11022439Y-12825243D01*
X11022439Y-12825243D02*
X11003392Y-12834767D01*
X11003392Y-12834767D02*
X10946249Y-12834767D01*
X10946249Y-12834767D02*
X10927201Y-12825243D01*
X10927201Y-12825243D02*
X10917678Y-12815719D01*
X11222439Y-12634767D02*
X11127201Y-12634767D01*
X11127201Y-12634767D02*
X11117678Y-12730005D01*
X11117678Y-12730005D02*
X11127201Y-12720481D01*
X11127201Y-12720481D02*
X11146249Y-12710958D01*
X11146249Y-12710958D02*
X11193868Y-12710958D01*
X11193868Y-12710958D02*
X11212916Y-12720481D01*
X11212916Y-12720481D02*
X11222439Y-12730005D01*
X11222439Y-12730005D02*
X11231963Y-12749053D01*
X11231963Y-12749053D02*
X11231963Y-12796672D01*
X11231963Y-12796672D02*
X11222439Y-12815719D01*
X11222439Y-12815719D02*
X11212916Y-12825243D01*
X11212916Y-12825243D02*
X11193868Y-12834767D01*
X11193868Y-12834767D02*
X11146249Y-12834767D01*
X11146249Y-12834767D02*
X11127201Y-12825243D01*
X11127201Y-12825243D02*
X11117678Y-12815719D01*
X11403392Y-12701434D02*
X11403392Y-12834767D01*
X11355773Y-12625243D02*
X11308154Y-12768100D01*
X11308154Y-12768100D02*
X11431963Y-12768100D01*
X11498630Y-12634767D02*
X11498630Y-12672862D01*
X11574820Y-12634767D02*
X11574820Y-12672862D01*
X11870059Y-12910958D02*
X11860535Y-12901434D01*
X11860535Y-12901434D02*
X11841487Y-12872862D01*
X11841487Y-12872862D02*
X11831963Y-12853815D01*
X11831963Y-12853815D02*
X11822439Y-12825243D01*
X11822439Y-12825243D02*
X11812916Y-12777624D01*
X11812916Y-12777624D02*
X11812916Y-12739529D01*
X11812916Y-12739529D02*
X11822439Y-12691910D01*
X11822439Y-12691910D02*
X11831963Y-12663339D01*
X11831963Y-12663339D02*
X11841487Y-12644291D01*
X11841487Y-12644291D02*
X11860535Y-12615719D01*
X11860535Y-12615719D02*
X11870059Y-12606196D01*
X11936725Y-12653815D02*
X11946249Y-12644291D01*
X11946249Y-12644291D02*
X11965297Y-12634767D01*
X11965297Y-12634767D02*
X12012916Y-12634767D01*
X12012916Y-12634767D02*
X12031963Y-12644291D01*
X12031963Y-12644291D02*
X12041487Y-12653815D01*
X12041487Y-12653815D02*
X12051011Y-12672862D01*
X12051011Y-12672862D02*
X12051011Y-12691910D01*
X12051011Y-12691910D02*
X12041487Y-12720481D01*
X12041487Y-12720481D02*
X11927201Y-12834767D01*
X11927201Y-12834767D02*
X12051011Y-12834767D01*
X12289106Y-12834767D02*
X12289106Y-12634767D01*
X12374820Y-12834767D02*
X12374820Y-12730005D01*
X12374820Y-12730005D02*
X12365297Y-12710958D01*
X12365297Y-12710958D02*
X12346249Y-12701434D01*
X12346249Y-12701434D02*
X12317678Y-12701434D01*
X12317678Y-12701434D02*
X12298630Y-12710958D01*
X12298630Y-12710958D02*
X12289106Y-12720481D01*
X12498630Y-12834767D02*
X12479582Y-12825243D01*
X12479582Y-12825243D02*
X12470059Y-12815719D01*
X12470059Y-12815719D02*
X12460535Y-12796672D01*
X12460535Y-12796672D02*
X12460535Y-12739529D01*
X12460535Y-12739529D02*
X12470059Y-12720481D01*
X12470059Y-12720481D02*
X12479582Y-12710958D01*
X12479582Y-12710958D02*
X12498630Y-12701434D01*
X12498630Y-12701434D02*
X12527201Y-12701434D01*
X12527201Y-12701434D02*
X12546249Y-12710958D01*
X12546249Y-12710958D02*
X12555773Y-12720481D01*
X12555773Y-12720481D02*
X12565297Y-12739529D01*
X12565297Y-12739529D02*
X12565297Y-12796672D01*
X12565297Y-12796672D02*
X12555773Y-12815719D01*
X12555773Y-12815719D02*
X12546249Y-12825243D01*
X12546249Y-12825243D02*
X12527201Y-12834767D01*
X12527201Y-12834767D02*
X12498630Y-12834767D01*
X12679582Y-12834767D02*
X12660535Y-12825243D01*
X12660535Y-12825243D02*
X12651011Y-12806196D01*
X12651011Y-12806196D02*
X12651011Y-12634767D01*
X12831963Y-12825243D02*
X12812916Y-12834767D01*
X12812916Y-12834767D02*
X12774820Y-12834767D01*
X12774820Y-12834767D02*
X12755773Y-12825243D01*
X12755773Y-12825243D02*
X12746249Y-12806196D01*
X12746249Y-12806196D02*
X12746249Y-12730005D01*
X12746249Y-12730005D02*
X12755773Y-12710958D01*
X12755773Y-12710958D02*
X12774820Y-12701434D01*
X12774820Y-12701434D02*
X12812916Y-12701434D01*
X12812916Y-12701434D02*
X12831963Y-12710958D01*
X12831963Y-12710958D02*
X12841487Y-12730005D01*
X12841487Y-12730005D02*
X12841487Y-12749053D01*
X12841487Y-12749053D02*
X12746249Y-12768100D01*
X12917678Y-12825243D02*
X12936725Y-12834767D01*
X12936725Y-12834767D02*
X12974820Y-12834767D01*
X12974820Y-12834767D02*
X12993868Y-12825243D01*
X12993868Y-12825243D02*
X13003392Y-12806196D01*
X13003392Y-12806196D02*
X13003392Y-12796672D01*
X13003392Y-12796672D02*
X12993868Y-12777624D01*
X12993868Y-12777624D02*
X12974820Y-12768100D01*
X12974820Y-12768100D02*
X12946249Y-12768100D01*
X12946249Y-12768100D02*
X12927201Y-12758577D01*
X12927201Y-12758577D02*
X12917678Y-12739529D01*
X12917678Y-12739529D02*
X12917678Y-12730005D01*
X12917678Y-12730005D02*
X12927201Y-12710958D01*
X12927201Y-12710958D02*
X12946249Y-12701434D01*
X12946249Y-12701434D02*
X12974820Y-12701434D01*
X12974820Y-12701434D02*
X12993868Y-12710958D01*
X13070059Y-12910958D02*
X13079582Y-12901434D01*
X13079582Y-12901434D02*
X13098630Y-12872862D01*
X13098630Y-12872862D02*
X13108154Y-12853815D01*
X13108154Y-12853815D02*
X13117678Y-12825243D01*
X13117678Y-12825243D02*
X13127201Y-12777624D01*
X13127201Y-12777624D02*
X13127201Y-12739529D01*
X13127201Y-12739529D02*
X13117678Y-12691910D01*
X13117678Y-12691910D02*
X13108154Y-12663339D01*
X13108154Y-12663339D02*
X13098630Y-12644291D01*
X13098630Y-12644291D02*
X13079582Y-12615719D01*
X13079582Y-12615719D02*
X13070059Y-12606196D01*
D12*
X8244996Y-12957283D02*
X8244996Y-13057283D01*
X8194996Y-13007283D02*
X8294996Y-13007283D01*
D11*
X8660534Y-13098767D02*
X8546249Y-13098767D01*
X8603392Y-13098767D02*
X8603392Y-12898767D01*
X8603392Y-12898767D02*
X8584344Y-12927339D01*
X8584344Y-12927339D02*
X8565296Y-12946386D01*
X8565296Y-12946386D02*
X8546249Y-12955910D01*
X8746249Y-13079719D02*
X8755773Y-13089243D01*
X8755773Y-13089243D02*
X8746249Y-13098767D01*
X8746249Y-13098767D02*
X8736725Y-13089243D01*
X8736725Y-13089243D02*
X8746249Y-13079719D01*
X8746249Y-13079719D02*
X8746249Y-13098767D01*
X8879582Y-12898767D02*
X8898630Y-12898767D01*
X8898630Y-12898767D02*
X8917677Y-12908291D01*
X8917677Y-12908291D02*
X8927201Y-12917815D01*
X8927201Y-12917815D02*
X8936725Y-12936862D01*
X8936725Y-12936862D02*
X8946249Y-12974958D01*
X8946249Y-12974958D02*
X8946249Y-13022577D01*
X8946249Y-13022577D02*
X8936725Y-13060672D01*
X8936725Y-13060672D02*
X8927201Y-13079719D01*
X8927201Y-13079719D02*
X8917677Y-13089243D01*
X8917677Y-13089243D02*
X8898630Y-13098767D01*
X8898630Y-13098767D02*
X8879582Y-13098767D01*
X8879582Y-13098767D02*
X8860534Y-13089243D01*
X8860534Y-13089243D02*
X8851011Y-13079719D01*
X8851011Y-13079719D02*
X8841487Y-13060672D01*
X8841487Y-13060672D02*
X8831963Y-13022577D01*
X8831963Y-13022577D02*
X8831963Y-12974958D01*
X8831963Y-12974958D02*
X8841487Y-12936862D01*
X8841487Y-12936862D02*
X8851011Y-12917815D01*
X8851011Y-12917815D02*
X8860534Y-12908291D01*
X8860534Y-12908291D02*
X8879582Y-12898767D01*
X9070058Y-12898767D02*
X9089106Y-12898767D01*
X9089106Y-12898767D02*
X9108154Y-12908291D01*
X9108154Y-12908291D02*
X9117677Y-12917815D01*
X9117677Y-12917815D02*
X9127201Y-12936862D01*
X9127201Y-12936862D02*
X9136725Y-12974958D01*
X9136725Y-12974958D02*
X9136725Y-13022577D01*
X9136725Y-13022577D02*
X9127201Y-13060672D01*
X9127201Y-13060672D02*
X9117677Y-13079719D01*
X9117677Y-13079719D02*
X9108154Y-13089243D01*
X9108154Y-13089243D02*
X9089106Y-13098767D01*
X9089106Y-13098767D02*
X9070058Y-13098767D01*
X9070058Y-13098767D02*
X9051011Y-13089243D01*
X9051011Y-13089243D02*
X9041487Y-13079719D01*
X9041487Y-13079719D02*
X9031963Y-13060672D01*
X9031963Y-13060672D02*
X9022439Y-13022577D01*
X9022439Y-13022577D02*
X9022439Y-12974958D01*
X9022439Y-12974958D02*
X9031963Y-12936862D01*
X9031963Y-12936862D02*
X9041487Y-12917815D01*
X9041487Y-12917815D02*
X9051011Y-12908291D01*
X9051011Y-12908291D02*
X9070058Y-12898767D01*
X9260534Y-12898767D02*
X9279582Y-12898767D01*
X9279582Y-12898767D02*
X9298630Y-12908291D01*
X9298630Y-12908291D02*
X9308154Y-12917815D01*
X9308154Y-12917815D02*
X9317677Y-12936862D01*
X9317677Y-12936862D02*
X9327201Y-12974958D01*
X9327201Y-12974958D02*
X9327201Y-13022577D01*
X9327201Y-13022577D02*
X9317677Y-13060672D01*
X9317677Y-13060672D02*
X9308154Y-13079719D01*
X9308154Y-13079719D02*
X9298630Y-13089243D01*
X9298630Y-13089243D02*
X9279582Y-13098767D01*
X9279582Y-13098767D02*
X9260534Y-13098767D01*
X9260534Y-13098767D02*
X9241487Y-13089243D01*
X9241487Y-13089243D02*
X9231963Y-13079719D01*
X9231963Y-13079719D02*
X9222439Y-13060672D01*
X9222439Y-13060672D02*
X9212915Y-13022577D01*
X9212915Y-13022577D02*
X9212915Y-12974958D01*
X9212915Y-12974958D02*
X9222439Y-12936862D01*
X9222439Y-12936862D02*
X9231963Y-12917815D01*
X9231963Y-12917815D02*
X9241487Y-12908291D01*
X9241487Y-12908291D02*
X9260534Y-12898767D01*
X9412915Y-13098767D02*
X9412915Y-12965434D01*
X9412915Y-12984481D02*
X9422439Y-12974958D01*
X9422439Y-12974958D02*
X9441487Y-12965434D01*
X9441487Y-12965434D02*
X9470058Y-12965434D01*
X9470058Y-12965434D02*
X9489106Y-12974958D01*
X9489106Y-12974958D02*
X9498630Y-12994005D01*
X9498630Y-12994005D02*
X9498630Y-13098767D01*
X9498630Y-12994005D02*
X9508154Y-12974958D01*
X9508154Y-12974958D02*
X9527201Y-12965434D01*
X9527201Y-12965434D02*
X9555773Y-12965434D01*
X9555773Y-12965434D02*
X9574820Y-12974958D01*
X9574820Y-12974958D02*
X9584344Y-12994005D01*
X9584344Y-12994005D02*
X9584344Y-13098767D01*
X9679582Y-13098767D02*
X9679582Y-12965434D01*
X9679582Y-12984481D02*
X9689106Y-12974958D01*
X9689106Y-12974958D02*
X9708154Y-12965434D01*
X9708154Y-12965434D02*
X9736725Y-12965434D01*
X9736725Y-12965434D02*
X9755773Y-12974958D01*
X9755773Y-12974958D02*
X9765296Y-12994005D01*
X9765296Y-12994005D02*
X9765296Y-13098767D01*
X9765296Y-12994005D02*
X9774820Y-12974958D01*
X9774820Y-12974958D02*
X9793868Y-12965434D01*
X9793868Y-12965434D02*
X9822439Y-12965434D01*
X9822439Y-12965434D02*
X9841487Y-12974958D01*
X9841487Y-12974958D02*
X9851011Y-12994005D01*
X9851011Y-12994005D02*
X9851011Y-13098767D01*
X10241487Y-12889243D02*
X10070058Y-13146386D01*
X10498630Y-12898767D02*
X10517678Y-12898767D01*
X10517678Y-12898767D02*
X10536725Y-12908291D01*
X10536725Y-12908291D02*
X10546249Y-12917815D01*
X10546249Y-12917815D02*
X10555773Y-12936862D01*
X10555773Y-12936862D02*
X10565297Y-12974958D01*
X10565297Y-12974958D02*
X10565297Y-13022577D01*
X10565297Y-13022577D02*
X10555773Y-13060672D01*
X10555773Y-13060672D02*
X10546249Y-13079719D01*
X10546249Y-13079719D02*
X10536725Y-13089243D01*
X10536725Y-13089243D02*
X10517678Y-13098767D01*
X10517678Y-13098767D02*
X10498630Y-13098767D01*
X10498630Y-13098767D02*
X10479582Y-13089243D01*
X10479582Y-13089243D02*
X10470058Y-13079719D01*
X10470058Y-13079719D02*
X10460535Y-13060672D01*
X10460535Y-13060672D02*
X10451011Y-13022577D01*
X10451011Y-13022577D02*
X10451011Y-12974958D01*
X10451011Y-12974958D02*
X10460535Y-12936862D01*
X10460535Y-12936862D02*
X10470058Y-12917815D01*
X10470058Y-12917815D02*
X10479582Y-12908291D01*
X10479582Y-12908291D02*
X10498630Y-12898767D01*
X10651011Y-13079719D02*
X10660535Y-13089243D01*
X10660535Y-13089243D02*
X10651011Y-13098767D01*
X10651011Y-13098767D02*
X10641487Y-13089243D01*
X10641487Y-13089243D02*
X10651011Y-13079719D01*
X10651011Y-13079719D02*
X10651011Y-13098767D01*
X10784344Y-12898767D02*
X10803392Y-12898767D01*
X10803392Y-12898767D02*
X10822439Y-12908291D01*
X10822439Y-12908291D02*
X10831963Y-12917815D01*
X10831963Y-12917815D02*
X10841487Y-12936862D01*
X10841487Y-12936862D02*
X10851011Y-12974958D01*
X10851011Y-12974958D02*
X10851011Y-13022577D01*
X10851011Y-13022577D02*
X10841487Y-13060672D01*
X10841487Y-13060672D02*
X10831963Y-13079719D01*
X10831963Y-13079719D02*
X10822439Y-13089243D01*
X10822439Y-13089243D02*
X10803392Y-13098767D01*
X10803392Y-13098767D02*
X10784344Y-13098767D01*
X10784344Y-13098767D02*
X10765297Y-13089243D01*
X10765297Y-13089243D02*
X10755773Y-13079719D01*
X10755773Y-13079719D02*
X10746249Y-13060672D01*
X10746249Y-13060672D02*
X10736725Y-13022577D01*
X10736725Y-13022577D02*
X10736725Y-12974958D01*
X10736725Y-12974958D02*
X10746249Y-12936862D01*
X10746249Y-12936862D02*
X10755773Y-12917815D01*
X10755773Y-12917815D02*
X10765297Y-12908291D01*
X10765297Y-12908291D02*
X10784344Y-12898767D01*
X10917678Y-12898767D02*
X11041487Y-12898767D01*
X11041487Y-12898767D02*
X10974820Y-12974958D01*
X10974820Y-12974958D02*
X11003392Y-12974958D01*
X11003392Y-12974958D02*
X11022439Y-12984481D01*
X11022439Y-12984481D02*
X11031963Y-12994005D01*
X11031963Y-12994005D02*
X11041487Y-13013053D01*
X11041487Y-13013053D02*
X11041487Y-13060672D01*
X11041487Y-13060672D02*
X11031963Y-13079719D01*
X11031963Y-13079719D02*
X11022439Y-13089243D01*
X11022439Y-13089243D02*
X11003392Y-13098767D01*
X11003392Y-13098767D02*
X10946249Y-13098767D01*
X10946249Y-13098767D02*
X10927201Y-13089243D01*
X10927201Y-13089243D02*
X10917678Y-13079719D01*
X11136725Y-13098767D02*
X11174820Y-13098767D01*
X11174820Y-13098767D02*
X11193868Y-13089243D01*
X11193868Y-13089243D02*
X11203392Y-13079719D01*
X11203392Y-13079719D02*
X11222439Y-13051148D01*
X11222439Y-13051148D02*
X11231963Y-13013053D01*
X11231963Y-13013053D02*
X11231963Y-12936862D01*
X11231963Y-12936862D02*
X11222439Y-12917815D01*
X11222439Y-12917815D02*
X11212916Y-12908291D01*
X11212916Y-12908291D02*
X11193868Y-12898767D01*
X11193868Y-12898767D02*
X11155773Y-12898767D01*
X11155773Y-12898767D02*
X11136725Y-12908291D01*
X11136725Y-12908291D02*
X11127201Y-12917815D01*
X11127201Y-12917815D02*
X11117678Y-12936862D01*
X11117678Y-12936862D02*
X11117678Y-12984481D01*
X11117678Y-12984481D02*
X11127201Y-13003529D01*
X11127201Y-13003529D02*
X11136725Y-13013053D01*
X11136725Y-13013053D02*
X11155773Y-13022577D01*
X11155773Y-13022577D02*
X11193868Y-13022577D01*
X11193868Y-13022577D02*
X11212916Y-13013053D01*
X11212916Y-13013053D02*
X11222439Y-13003529D01*
X11222439Y-13003529D02*
X11231963Y-12984481D01*
X11403392Y-12965434D02*
X11403392Y-13098767D01*
X11355773Y-12889243D02*
X11308154Y-13032100D01*
X11308154Y-13032100D02*
X11431963Y-13032100D01*
X11498630Y-12898767D02*
X11498630Y-12936862D01*
X11574820Y-12898767D02*
X11574820Y-12936862D01*
X11870059Y-13174958D02*
X11860535Y-13165434D01*
X11860535Y-13165434D02*
X11841487Y-13136862D01*
X11841487Y-13136862D02*
X11831963Y-13117815D01*
X11831963Y-13117815D02*
X11822439Y-13089243D01*
X11822439Y-13089243D02*
X11812916Y-13041624D01*
X11812916Y-13041624D02*
X11812916Y-13003529D01*
X11812916Y-13003529D02*
X11822439Y-12955910D01*
X11822439Y-12955910D02*
X11831963Y-12927339D01*
X11831963Y-12927339D02*
X11841487Y-12908291D01*
X11841487Y-12908291D02*
X11860535Y-12879719D01*
X11860535Y-12879719D02*
X11870059Y-12870196D01*
X12031963Y-12965434D02*
X12031963Y-13098767D01*
X11984344Y-12889243D02*
X11936725Y-13032100D01*
X11936725Y-13032100D02*
X12060535Y-13032100D01*
X12289106Y-13098767D02*
X12289106Y-12898767D01*
X12374820Y-13098767D02*
X12374820Y-12994005D01*
X12374820Y-12994005D02*
X12365297Y-12974958D01*
X12365297Y-12974958D02*
X12346249Y-12965434D01*
X12346249Y-12965434D02*
X12317678Y-12965434D01*
X12317678Y-12965434D02*
X12298630Y-12974958D01*
X12298630Y-12974958D02*
X12289106Y-12984481D01*
X12498630Y-13098767D02*
X12479582Y-13089243D01*
X12479582Y-13089243D02*
X12470059Y-13079719D01*
X12470059Y-13079719D02*
X12460535Y-13060672D01*
X12460535Y-13060672D02*
X12460535Y-13003529D01*
X12460535Y-13003529D02*
X12470059Y-12984481D01*
X12470059Y-12984481D02*
X12479582Y-12974958D01*
X12479582Y-12974958D02*
X12498630Y-12965434D01*
X12498630Y-12965434D02*
X12527201Y-12965434D01*
X12527201Y-12965434D02*
X12546249Y-12974958D01*
X12546249Y-12974958D02*
X12555773Y-12984481D01*
X12555773Y-12984481D02*
X12565297Y-13003529D01*
X12565297Y-13003529D02*
X12565297Y-13060672D01*
X12565297Y-13060672D02*
X12555773Y-13079719D01*
X12555773Y-13079719D02*
X12546249Y-13089243D01*
X12546249Y-13089243D02*
X12527201Y-13098767D01*
X12527201Y-13098767D02*
X12498630Y-13098767D01*
X12679582Y-13098767D02*
X12660535Y-13089243D01*
X12660535Y-13089243D02*
X12651011Y-13070196D01*
X12651011Y-13070196D02*
X12651011Y-12898767D01*
X12831963Y-13089243D02*
X12812916Y-13098767D01*
X12812916Y-13098767D02*
X12774820Y-13098767D01*
X12774820Y-13098767D02*
X12755773Y-13089243D01*
X12755773Y-13089243D02*
X12746249Y-13070196D01*
X12746249Y-13070196D02*
X12746249Y-12994005D01*
X12746249Y-12994005D02*
X12755773Y-12974958D01*
X12755773Y-12974958D02*
X12774820Y-12965434D01*
X12774820Y-12965434D02*
X12812916Y-12965434D01*
X12812916Y-12965434D02*
X12831963Y-12974958D01*
X12831963Y-12974958D02*
X12841487Y-12994005D01*
X12841487Y-12994005D02*
X12841487Y-13013053D01*
X12841487Y-13013053D02*
X12746249Y-13032100D01*
X12917678Y-13089243D02*
X12936725Y-13098767D01*
X12936725Y-13098767D02*
X12974820Y-13098767D01*
X12974820Y-13098767D02*
X12993868Y-13089243D01*
X12993868Y-13089243D02*
X13003392Y-13070196D01*
X13003392Y-13070196D02*
X13003392Y-13060672D01*
X13003392Y-13060672D02*
X12993868Y-13041624D01*
X12993868Y-13041624D02*
X12974820Y-13032100D01*
X12974820Y-13032100D02*
X12946249Y-13032100D01*
X12946249Y-13032100D02*
X12927201Y-13022577D01*
X12927201Y-13022577D02*
X12917678Y-13003529D01*
X12917678Y-13003529D02*
X12917678Y-12994005D01*
X12917678Y-12994005D02*
X12927201Y-12974958D01*
X12927201Y-12974958D02*
X12946249Y-12965434D01*
X12946249Y-12965434D02*
X12974820Y-12965434D01*
X12974820Y-12965434D02*
X12993868Y-12974958D01*
X13070059Y-13174958D02*
X13079582Y-13165434D01*
X13079582Y-13165434D02*
X13098630Y-13136862D01*
X13098630Y-13136862D02*
X13108154Y-13117815D01*
X13108154Y-13117815D02*
X13117678Y-13089243D01*
X13117678Y-13089243D02*
X13127201Y-13041624D01*
X13127201Y-13041624D02*
X13127201Y-13003529D01*
X13127201Y-13003529D02*
X13117678Y-12955910D01*
X13117678Y-12955910D02*
X13108154Y-12927339D01*
X13108154Y-12927339D02*
X13098630Y-12908291D01*
X13098630Y-12908291D02*
X13079582Y-12879719D01*
X13079582Y-12879719D02*
X13070059Y-12870196D01*
M02*
